<?xml version="1.0" encoding="UTF-8" standalone="no"?>
<!DOCTYPE svg PUBLIC "-//W3C//DTD SVG 1.1//EN"
 "http://www.w3.org/Graphics/SVG/1.1/DTD/svg11.dtd">
<!-- Generated by graphviz version 15.1.0 (20260618.0150)
 -->
<!-- Title: OrderFlow Pages: 1 -->
<svg width="1134pt" height="1675pt"
 viewBox="0.00 0.00 1134.00 1675.00" xmlns="http://www.w3.org/2000/svg" xmlns:xlink="http://www.w3.org/1999/xlink">
<g id="graph0" class="graph" transform="scale(1 1) rotate(0) translate(12.96 1662.12)">
<title>OrderFlow</title>
<polygon fill="white" stroke="none" points="-12.96,12.96 -12.96,-1662.12 1121.21,-1662.12 1121.21,12.96 -12.96,12.96"/>
<g id="clust1" class="cluster">
<title>cluster_intake</title>
<path fill="white" stroke="#a8c7fa" d="M746,-1487.16C746,-1487.16 910,-1487.16 910,-1487.16 916,-1487.16 922,-1493.16 922,-1499.16 922,-1499.16 922,-1629.16 922,-1629.16 922,-1635.16 916,-1641.16 910,-1641.16 910,-1641.16 746,-1641.16 746,-1641.16 740,-1641.16 734,-1635.16 734,-1629.16 734,-1629.16 734,-1499.16 734,-1499.16 734,-1493.16 740,-1487.16 746,-1487.16"/>
<text xml:space="preserve" text-anchor="middle" x="828" y="-1623.86" font-family="Hiragino Sans" font-size="14.00">1. 注文受付</text>
</g>
<g id="clust2" class="cluster">
<title>cluster_preconditions</title>
<path fill="white" stroke="#a8c7fa" d="M673,-786.64C673,-786.64 988,-786.64 988,-786.64 994,-786.64 1000,-792.64 1000,-798.64 1000,-798.64 1000,-1453.16 1000,-1453.16 1000,-1459.16 994,-1465.16 988,-1465.16 988,-1465.16 673,-1465.16 673,-1465.16 667,-1465.16 661,-1459.16 661,-1453.16 661,-1453.16 661,-798.64 661,-798.64 661,-792.64 667,-786.64 673,-786.64"/>
<text xml:space="preserve" text-anchor="middle" x="830.5" y="-1447.86" font-family="Hiragino Sans" font-size="14.00">2. 注文前提条件（並行処理）</text>
</g>
<g id="clust6" class="cluster">
<title>cluster_commit</title>
<path fill="white" stroke="#a8c7fa" d="M502,-284.34C502,-284.34 692,-284.34 692,-284.34 698,-284.34 704,-290.34 704,-296.34 704,-296.34 704,-743.14 704,-743.14 704,-749.14 698,-755.14 692,-755.14 692,-755.14 502,-755.14 502,-755.14 496,-755.14 490,-749.14 490,-743.14 490,-743.14 490,-296.34 490,-296.34 490,-290.34 496,-284.34 502,-284.34"/>
<text xml:space="preserve" text-anchor="middle" x="597" y="-737.84" font-family="Hiragino Sans" font-size="14.00">3. 決済と注文確定</text>
</g>
<g id="clust7" class="cluster">
<title>cluster_after</title>
<path fill="white" stroke="#8b7bd8" stroke-dasharray="5,2" d="M20,-8C20,-8 470,-8 470,-8 476,-8 482,-14 482,-20 482,-20 482,-347.34 482,-347.34 482,-353.34 476,-359.34 470,-359.34 470,-359.34 20,-359.34 20,-359.34 14,-359.34 8,-353.34 8,-347.34 8,-347.34 8,-20 8,-20 8,-14 14,-8 20,-8"/>
<text xml:space="preserve" text-anchor="middle" x="245" y="-342.04" font-family="Hiragino Sans" font-size="14.00">4. 注文確定後（非同期処理）</text>
</g>
<g id="clust11" class="cluster">
<title>cluster_compensation</title>
<path fill="white" stroke="#d55c50" stroke-dasharray="5,2" d="M795,-106.67C795,-106.67 1034,-106.67 1034,-106.67 1040,-106.67 1046,-112.67 1046,-118.67 1046,-118.67 1046,-347.34 1046,-347.34 1046,-353.34 1040,-359.34 1034,-359.34 1034,-359.34 795,-359.34 795,-359.34 789,-359.34 783,-353.34 783,-347.34 783,-347.34 783,-118.67 783,-118.67 783,-112.67 789,-106.67 795,-106.67"/>
<text xml:space="preserve" text-anchor="middle" x="914.5" y="-342.04" font-family="Hiragino Sans" font-size="14.00">失敗・補償処理</text>
</g>
<!-- start -->
<g id="node1" class="node">
<title>start</title>
<path fill="#e8f3ff" stroke="#2563eb" d="M868.08,-1610.16C868.08,-1610.16 787.92,-1610.16 787.92,-1610.16 781.92,-1610.16 775.92,-1604.16 775.92,-1598.16 775.92,-1598.16 775.92,-1586.16 775.92,-1586.16 775.92,-1580.16 781.92,-1574.16 787.92,-1574.16 787.92,-1574.16 868.08,-1574.16 868.08,-1574.16 874.08,-1574.16 880.08,-1580.16 880.08,-1586.16 880.08,-1586.16 880.08,-1598.16 880.08,-1598.16 880.08,-1604.16 874.08,-1610.16 868.08,-1610.16"/>
<text xml:space="preserve" text-anchor="middle" x="828" y="-1587.14" font-family="Hiragino Sans" font-size="12.00" fill="#172033">ユーザーが注文</text>
</g>
<!-- api -->
<g id="node2" class="node">
<title>api</title>
<path fill="#e8f3ff" stroke="#2563eb" d="M902.21,-1531.16C902.21,-1531.16 753.79,-1531.16 753.79,-1531.16 747.79,-1531.16 741.79,-1525.16 741.79,-1519.16 741.79,-1519.16 741.79,-1507.16 741.79,-1507.16 741.79,-1501.16 747.79,-1495.16 753.79,-1495.16 753.79,-1495.16 902.21,-1495.16 902.21,-1495.16 908.21,-1495.16 914.21,-1501.16 914.21,-1507.16 914.21,-1507.16 914.21,-1519.16 914.21,-1519.16 914.21,-1525.16 908.21,-1531.16 902.21,-1531.16"/>
<text xml:space="preserve" text-anchor="middle" x="828" y="-1508.14" font-family="Hiragino Sans" font-size="12.00" fill="#172033">注文APIが注文を受け付ける</text>
</g>
<!-- start&#45;&gt;api -->
<g id="edge1" class="edge">
<title>start&#45;&gt;api</title>
<path fill="none" stroke="#52606d" d="M828,-1573.84C828,-1573.84 828,-1540.38 828,-1540.38"/>
<polygon fill="#52606d" stroke="#52606d" points="830.52,-1540.38 828,-1533.18 825.48,-1540.38 830.52,-1540.38"/>
</g>
<!-- fork -->
<g id="node3" class="node">
<title>fork</title>
<path fill="#fff7d6" stroke="#a16207" d="M816.77,-1429.93C816.77,-1429.93 771.07,-1412.69 771.07,-1412.69 765.45,-1410.57 765.45,-1406.34 771.07,-1404.22 771.07,-1404.22 816.77,-1386.98 816.77,-1386.98 822.39,-1384.86 833.61,-1384.86 839.23,-1386.98 839.23,-1386.98 884.93,-1404.22 884.93,-1404.22 890.55,-1406.34 890.55,-1410.57 884.93,-1412.69 884.93,-1412.69 839.23,-1429.93 839.23,-1429.93 833.61,-1432.05 822.39,-1432.05 816.77,-1429.93"/>
<text xml:space="preserve" text-anchor="middle" x="828" y="-1403.43" font-family="Hiragino Sans" font-size="12.00" fill="#172033">並行開始</text>
</g>
<!-- api&#45;&gt;fork -->
<g id="edge29" class="edge">
<title>api&#45;&gt;fork</title>
<path fill="none" stroke="#52606d" d="M828,-1494.93C828,-1494.93 828,-1443.04 828,-1443.04"/>
<polygon fill="#52606d" stroke="#52606d" points="830.52,-1443.04 828,-1435.84 825.48,-1443.04 830.52,-1443.04"/>
</g>
<!-- inventory -->
<g id="node4" class="node">
<title>inventory</title>
<path fill="#e8f3ff" stroke="#2563eb" d="M948.08,-1339.74C948.08,-1339.74 867.92,-1339.74 867.92,-1339.74 861.92,-1339.74 855.92,-1333.74 855.92,-1327.74 855.92,-1327.74 855.92,-1313.28 855.92,-1313.28 855.92,-1307.28 861.92,-1301.28 867.92,-1301.28 867.92,-1301.28 948.08,-1301.28 948.08,-1301.28 954.08,-1301.28 960.08,-1307.28 960.08,-1313.28 960.08,-1313.28 960.08,-1327.74 960.08,-1327.74 960.08,-1333.74 954.08,-1339.74 948.08,-1339.74"/>
<text xml:space="preserve" text-anchor="middle" x="908" y="-1321.86" font-family="Hiragino Sans" font-size="12.00" fill="#172033">在庫サービスへ</text>
<text xml:space="preserve" text-anchor="middle" x="908" y="-1309.11" font-family="Hiragino Sans" font-size="12.00" fill="#172033">引当を依頼</text>
</g>
<!-- fork&#45;&gt;inventory -->
<g id="edge2" class="edge">
<title>fork&#45;&gt;inventory</title>
<path fill="none" stroke="#52606d" d="M876.04,-1400.34C876.04,-1400.34 876.04,-1348.75 876.04,-1348.75"/>
<polygon fill="#52606d" stroke="#52606d" points="878.56,-1348.75 876.04,-1341.55 873.52,-1348.75 878.56,-1348.75"/>
</g>
<!-- fraud -->
<g id="node7" class="node">
<title>fraud</title>
<path fill="#e8f3ff" stroke="#2563eb" d="M801.08,-1339.74C801.08,-1339.74 696.92,-1339.74 696.92,-1339.74 690.92,-1339.74 684.92,-1333.74 684.92,-1327.74 684.92,-1327.74 684.92,-1313.28 684.92,-1313.28 684.92,-1307.28 690.92,-1301.28 696.92,-1301.28 696.92,-1301.28 801.08,-1301.28 801.08,-1301.28 807.08,-1301.28 813.08,-1307.28 813.08,-1313.28 813.08,-1313.28 813.08,-1327.74 813.08,-1327.74 813.08,-1333.74 807.08,-1339.74 801.08,-1339.74"/>
<text xml:space="preserve" text-anchor="middle" x="749" y="-1321.86" font-family="Hiragino Sans" font-size="12.00" fill="#172033">不正検知サービスへ</text>
<text xml:space="preserve" text-anchor="middle" x="749" y="-1309.11" font-family="Hiragino Sans" font-size="12.00" fill="#172033">審査を依頼</text>
</g>
<!-- fork&#45;&gt;fraud -->
<g id="edge3" class="edge">
<title>fork&#45;&gt;fraud</title>
<path fill="none" stroke="#52606d" d="M786.46,-1398.02C786.46,-1398.02 786.46,-1348.63 786.46,-1348.63"/>
<polygon fill="#52606d" stroke="#52606d" points="788.98,-1348.63 786.46,-1341.43 783.94,-1348.63 788.98,-1348.63"/>
</g>
<!-- inventory_result -->
<g id="node5" class="node">
<title>inventory_result</title>
<path fill="#fff7d6" stroke="#a16207" d="M901.18,-1253.09C901.18,-1253.09 842.66,-1225.02 842.66,-1225.02 837.25,-1222.42 837.25,-1217.23 842.66,-1214.63 842.66,-1214.63 901.18,-1186.56 901.18,-1186.56 906.59,-1183.96 917.41,-1183.96 922.82,-1186.56 922.82,-1186.56 981.34,-1214.63 981.34,-1214.63 986.75,-1217.23 986.75,-1222.42 981.34,-1225.02 981.34,-1225.02 922.82,-1253.09 922.82,-1253.09 917.41,-1255.69 906.59,-1255.69 901.18,-1253.09"/>
<text xml:space="preserve" text-anchor="middle" x="912" y="-1221.17" font-family="Hiragino Sans" font-size="12.00" fill="#172033">在庫を確保</text>
<text xml:space="preserve" text-anchor="middle" x="912" y="-1208.42" font-family="Hiragino Sans" font-size="12.00" fill="#172033">できた?</text>
</g>
<!-- inventory&#45;&gt;inventory_result -->
<g id="edge4" class="edge">
<title>inventory&#45;&gt;inventory_result</title>
<path fill="none" stroke="#52606d" d="M908,-1301.1C908,-1301.1 908,-1265.42 908,-1265.42"/>
<polygon fill="#52606d" stroke="#52606d" points="910.52,-1265.42 908,-1258.22 905.48,-1265.42 910.52,-1265.42"/>
</g>
<!-- inventory_ready -->
<g id="node6" class="node">
<title>inventory_ready</title>
<path fill="#e8f3ff" stroke="#2563eb" d="M903.08,-936.44C903.08,-936.44 834.92,-936.44 834.92,-936.44 828.92,-936.44 822.92,-930.44 822.92,-924.44 822.92,-924.44 822.92,-912.44 822.92,-912.44 822.92,-906.44 828.92,-900.44 834.92,-900.44 834.92,-900.44 903.08,-900.44 903.08,-900.44 909.08,-900.44 915.08,-906.44 915.08,-912.44 915.08,-912.44 915.08,-924.44 915.08,-924.44 915.08,-930.44 909.08,-936.44 903.08,-936.44"/>
<text xml:space="preserve" text-anchor="middle" x="869" y="-913.42" font-family="Hiragino Sans" font-size="12.00" fill="#172033">在庫確保完了</text>
</g>
<!-- inventory_result&#45;&gt;inventory_ready -->
<g id="edge5" class="edge">
<title>inventory_result&#45;&gt;inventory_ready</title>
<path fill="none" stroke="#52606d" d="M923.08,-1186.37C923.08,-1107.79 923.08,-918 923.08,-918 923.08,-918 922.33,-918 922.33,-918"/>
<polygon fill="#52606d" stroke="#52606d" points="924.27,-915.48 917.07,-918 924.27,-920.52 924.27,-915.48"/>
<text xml:space="preserve" text-anchor="middle" x="945.75" y="-1062.36" font-family="Hiragino Sans" font-size="10.00" fill="#364152">はい</text>
</g>
<!-- order_fail -->
<g id="node30" class="node">
<title>order_fail</title>
<path fill="#fdecec" stroke="#b42318" d="M1012.2,-150.67C1012.2,-150.67 869.79,-150.67 869.79,-150.67 863.79,-150.67 857.79,-144.67 857.79,-138.67 857.79,-138.67 857.79,-126.67 857.79,-126.67 857.79,-120.67 863.79,-114.67 869.79,-114.67 869.79,-114.67 1012.2,-114.67 1012.2,-114.67 1018.2,-114.67 1024.2,-120.67 1024.2,-126.67 1024.2,-126.67 1024.2,-138.67 1024.2,-138.67 1024.2,-144.67 1018.2,-150.67 1012.2,-150.67"/>
<text xml:space="preserve" text-anchor="middle" x="941" y="-127.65" font-family="Hiragino Sans" font-size="12.00" fill="#172033">注文失敗をWeb画面へ返す</text>
</g>
<!-- inventory_result&#45;&gt;order_fail -->
<g id="edge32" class="edge">
<title>inventory_result&#45;&gt;order_fail</title>
<path fill="none" stroke="#b42318" d="M948.97,-1198.57C948.97,-1057.83 948.97,-266 948.97,-266 948.97,-266 997.14,-266 997.14,-266 997.14,-266 997.14,-159.64 997.14,-159.64"/>
<polygon fill="#b42318" stroke="#b42318" points="999.66,-159.64 997.14,-152.44 994.62,-159.64 999.66,-159.64"/>
<text xml:space="preserve" text-anchor="middle" x="1093.62" y="-655.18" font-family="Hiragino Sans" font-size="10.00" fill="#364152">いいえ</text>
</g>
<!-- ready -->
<g id="node12" class="node">
<title>ready</title>
<path fill="#e6f7ed" stroke="#15803d" stroke-width="2" d="M872.74,-832.11C872.74,-832.11 839.9,-851.37 839.9,-851.37 834.72,-854.41 823.55,-857.44 817.55,-857.44 817.55,-857.44 734.45,-857.44 734.45,-857.44 728.45,-857.44 717.28,-854.41 712.1,-851.37 712.1,-851.37 679.26,-832.11 679.26,-832.11 674.08,-829.08 674.08,-823.01 679.26,-819.97 679.26,-819.97 712.1,-800.71 712.1,-800.71 717.28,-797.68 728.45,-794.64 734.45,-794.64 734.45,-794.64 817.55,-794.64 817.55,-794.64 823.55,-794.64 834.72,-797.68 839.9,-800.71 839.9,-800.71 872.74,-819.97 872.74,-819.97 877.92,-823.01 877.92,-829.08 872.74,-832.11"/>
<text xml:space="preserve" text-anchor="middle" x="776" y="-827.39" font-family="Hiragino Sans" font-size="12.00" fill="#172033">AND合流</text>
<text xml:space="preserve" text-anchor="middle" x="776" y="-814.64" font-family="Hiragino Sans" font-size="12.00" fill="#172033">在庫確保 + 審査通過</text>
</g>
<!-- inventory_ready&#45;&gt;ready -->
<g id="edge11" class="edge">
<title>inventory_ready&#45;&gt;ready</title>
<path fill="none" stroke="#52606d" d="M853.01,-900.19C853.01,-900.19 853.01,-853.29 853.01,-853.29"/>
<polygon fill="#52606d" stroke="#52606d" points="855.53,-853.29 853.01,-846.09 850.49,-853.29 855.53,-853.29"/>
</g>
<!-- fraud_result -->
<g id="node8" class="node">
<title>fraud_result</title>
<path fill="#fff7d6" stroke="#a16207" d="M725.77,-1241.3C725.77,-1241.3 680.07,-1224.06 680.07,-1224.06 674.45,-1221.94 674.45,-1217.71 680.07,-1215.59 680.07,-1215.59 725.77,-1198.35 725.77,-1198.35 731.39,-1196.23 742.61,-1196.23 748.23,-1198.35 748.23,-1198.35 793.93,-1215.59 793.93,-1215.59 799.55,-1217.71 799.55,-1221.94 793.93,-1224.06 793.93,-1224.06 748.23,-1241.3 748.23,-1241.3 742.61,-1243.42 731.39,-1243.42 725.77,-1241.3"/>
<text xml:space="preserve" text-anchor="middle" x="737" y="-1214.8" font-family="Hiragino Sans" font-size="12.00" fill="#172033">審査結果</text>
</g>
<!-- fraud&#45;&gt;fraud_result -->
<g id="edge6" class="edge">
<title>fraud&#45;&gt;fraud_result</title>
<path fill="none" stroke="#52606d" d="M745.04,-1301.1C745.04,-1301.1 745.04,-1251.42 745.04,-1251.42"/>
<polygon fill="#52606d" stroke="#52606d" points="747.56,-1251.42 745.04,-1244.22 742.52,-1251.42 747.56,-1251.42"/>
</g>
<!-- manual -->
<g id="node9" class="node">
<title>manual</title>
<path fill="#e8f3ff" stroke="#2563eb" d="M837.08,-1128.86C837.08,-1128.86 744.92,-1128.86 744.92,-1128.86 738.92,-1128.86 732.92,-1122.86 732.92,-1116.86 732.92,-1116.86 732.92,-1104.86 732.92,-1104.86 732.92,-1098.86 738.92,-1092.86 744.92,-1092.86 744.92,-1092.86 837.08,-1092.86 837.08,-1092.86 843.08,-1092.86 849.08,-1098.86 849.08,-1104.86 849.08,-1104.86 849.08,-1116.86 849.08,-1116.86 849.08,-1122.86 843.08,-1128.86 837.08,-1128.86"/>
<text xml:space="preserve" text-anchor="middle" x="791" y="-1105.84" font-family="Hiragino Sans" font-size="12.00" fill="#172033">担当者が手動審査</text>
</g>
<!-- fraud_result&#45;&gt;manual -->
<g id="edge8" class="edge">
<title>fraud_result&#45;&gt;manual</title>
<path fill="none" stroke="#52606d" d="M757,-1201.34C757,-1201.34 757,-1137.79 757,-1137.79"/>
<polygon fill="#52606d" stroke="#52606d" points="759.52,-1137.79 757,-1130.59 754.48,-1137.79 759.52,-1137.79"/>
<text xml:space="preserve" text-anchor="middle" x="778.62" y="-1150.86" font-family="Hiragino Sans" font-size="10.00" fill="#364152">要確認</text>
</g>
<!-- fraud_ok -->
<g id="node11" class="node">
<title>fraud_ok</title>
<path fill="#e8f3ff" stroke="#2563eb" d="M784.08,-936.44C784.08,-936.44 739.92,-936.44 739.92,-936.44 733.92,-936.44 727.92,-930.44 727.92,-924.44 727.92,-924.44 727.92,-912.44 727.92,-912.44 727.92,-906.44 733.92,-900.44 739.92,-900.44 739.92,-900.44 784.08,-900.44 784.08,-900.44 790.08,-900.44 796.08,-906.44 796.08,-912.44 796.08,-912.44 796.08,-924.44 796.08,-924.44 796.08,-930.44 790.08,-936.44 784.08,-936.44"/>
<text xml:space="preserve" text-anchor="middle" x="762" y="-913.42" font-family="Hiragino Sans" font-size="12.00" fill="#172033">審査通過</text>
</g>
<!-- fraud_result&#45;&gt;fraud_ok -->
<g id="edge7" class="edge">
<title>fraud_result&#45;&gt;fraud_ok</title>
<path fill="none" stroke="#52606d" d="M696.37,-1209.08C696.37,-1155.32 696.37,-918 696.37,-918 696.37,-918 718.94,-918 718.94,-918"/>
<polygon fill="#52606d" stroke="#52606d" points="718.94,-920.52 726.14,-918 718.94,-915.48 718.94,-920.52"/>
<text xml:space="preserve" text-anchor="middle" x="705.75" y="-1062.36" font-family="Hiragino Sans" font-size="10.00" fill="#364152">承認</text>
</g>
<!-- cancel -->
<g id="node27" class="node">
<title>cancel</title>
<path fill="#fdecec" stroke="#b42318" d="M1026.08,-328.34C1026.08,-328.34 969.92,-328.34 969.92,-328.34 963.92,-328.34 957.92,-322.34 957.92,-316.34 957.92,-316.34 957.92,-304.34 957.92,-304.34 957.92,-298.34 963.92,-292.34 969.92,-292.34 969.92,-292.34 1026.08,-292.34 1026.08,-292.34 1032.08,-292.34 1038.08,-298.34 1038.08,-304.34 1038.08,-304.34 1038.08,-316.34 1038.08,-316.34 1038.08,-322.34 1032.08,-328.34 1026.08,-328.34"/>
<text xml:space="preserve" text-anchor="middle" x="998" y="-305.32" font-family="Hiragino Sans" font-size="12.00" fill="#172033">注文を中止</text>
</g>
<!-- fraud_result&#45;&gt;cancel -->
<g id="edge33" class="edge">
<title>fraud_result&#45;&gt;cancel</title>
<path fill="none" stroke="#b42318" d="M781.08,-1210.26C781.08,-1192.23 781.08,-1155 781.08,-1155 781.08,-1155 980.75,-1155 980.75,-1155 980.75,-1155 980.75,-337.48 980.75,-337.48"/>
<polygon fill="#b42318" stroke="#b42318" points="983.27,-337.48 980.75,-330.28 978.23,-337.48 983.27,-337.48"/>
<text xml:space="preserve" text-anchor="middle" x="1020.75" y="-764.14" font-family="Hiragino Sans" font-size="10.00" fill="#364152">拒否</text>
</g>
<!-- manual_result -->
<g id="node10" class="node">
<title>manual_result</title>
<path fill="#fff7d6" stroke="#a16207" d="M804.44,-1037.14C804.44,-1037.14 735.4,-1017.88 735.4,-1017.88 729.62,-1016.27 729.62,-1013.04 735.4,-1011.43 735.4,-1011.43 804.44,-992.17 804.44,-992.17 810.22,-990.56 821.78,-990.56 827.56,-992.17 827.56,-992.17 896.6,-1011.43 896.6,-1011.43 902.38,-1013.04 902.38,-1016.27 896.6,-1017.88 896.6,-1017.88 827.56,-1037.14 827.56,-1037.14 821.78,-1038.75 810.22,-1038.75 804.44,-1037.14"/>
<text xml:space="preserve" text-anchor="middle" x="816" y="-1009.63" font-family="Hiragino Sans" font-size="12.00" fill="#172033">手動審査結果</text>
</g>
<!-- manual&#45;&gt;manual_result -->
<g id="edge9" class="edge">
<title>manual&#45;&gt;manual_result</title>
<path fill="none" stroke="#52606d" d="M791,-1092.77C791,-1092.77 791,-1042.37 791,-1042.37"/>
<polygon fill="#52606d" stroke="#52606d" points="793.52,-1042.37 791,-1035.17 788.48,-1042.37 793.52,-1042.37"/>
</g>
<!-- manual_result&#45;&gt;fraud_ok -->
<g id="edge10" class="edge">
<title>manual_result&#45;&gt;fraud_ok</title>
<path fill="none" stroke="#52606d" d="M762,-1003.62C762,-1003.62 762,-945.62 762,-945.62"/>
<polygon fill="#52606d" stroke="#52606d" points="764.52,-945.62 762,-938.42 759.48,-945.62 764.52,-945.62"/>
<text xml:space="preserve" text-anchor="middle" x="798.75" y="-958.44" font-family="Hiragino Sans" font-size="10.00" fill="#364152">承認</text>
</g>
<!-- manual_result&#45;&gt;cancel -->
<g id="edge34" class="edge">
<title>manual_result&#45;&gt;cancel</title>
<path fill="none" stroke="#b42318" d="M908.73,-1015C941.02,-1015 969.33,-1015 969.33,-1015 969.33,-1015 969.33,-337.54 969.33,-337.54"/>
<polygon fill="#b42318" stroke="#b42318" points="971.85,-337.54 969.33,-330.34 966.81,-337.54 971.85,-337.54"/>
<text xml:space="preserve" text-anchor="middle" x="965.75" y="-655.18" font-family="Hiragino Sans" font-size="10.00" fill="#364152">拒否</text>
</g>
<!-- fraud_ok&#45;&gt;ready -->
<g id="edge12" class="edge">
<title>fraud_ok&#45;&gt;ready</title>
<path fill="none" stroke="#52606d" d="M762,-900.19C762,-900.19 762,-866.82 762,-866.82"/>
<polygon fill="#52606d" stroke="#52606d" points="764.52,-866.82 762,-859.62 759.48,-866.82 764.52,-866.82"/>
</g>
<!-- payment -->
<g id="node13" class="node">
<title>payment</title>
<path fill="#e8f3ff" stroke="#2563eb" d="M673.08,-724.14C673.08,-724.14 592.92,-724.14 592.92,-724.14 586.92,-724.14 580.92,-718.14 580.92,-712.14 580.92,-712.14 580.92,-697.68 580.92,-697.68 580.92,-691.68 586.92,-685.68 592.92,-685.68 592.92,-685.68 673.08,-685.68 673.08,-685.68 679.08,-685.68 685.08,-691.68 685.08,-697.68 685.08,-697.68 685.08,-712.14 685.08,-712.14 685.08,-718.14 679.08,-724.14 673.08,-724.14"/>
<text xml:space="preserve" text-anchor="middle" x="633" y="-706.26" font-family="Hiragino Sans" font-size="12.00" fill="#172033">決済サービスへ</text>
<text xml:space="preserve" text-anchor="middle" x="633" y="-693.51" font-family="Hiragino Sans" font-size="12.00" fill="#172033">決済を依頼</text>
</g>
<!-- ready&#45;&gt;payment -->
<g id="edge30" class="edge">
<title>ready&#45;&gt;payment</title>
<path fill="none" stroke="#52606d" d="M676.99,-820.2C676.99,-820.2 676.99,-733.11 676.99,-733.11"/>
<polygon fill="#52606d" stroke="#52606d" points="679.51,-733.11 676.99,-725.91 674.47,-733.11 679.51,-733.11"/>
</g>
<!-- payment_result -->
<g id="node14" class="node">
<title>payment_result</title>
<path fill="#fff7d6" stroke="#a16207" d="M609.65,-629.28C609.65,-629.28 557.44,-611.37 557.44,-611.37 551.77,-609.42 551.77,-605.52 557.44,-603.57 557.44,-603.57 609.65,-585.66 609.65,-585.66 615.32,-583.71 626.68,-583.71 632.35,-585.66 632.35,-585.66 684.56,-603.57 684.56,-603.57 690.23,-605.52 690.23,-609.42 684.56,-611.37 684.56,-611.37 632.35,-629.28 632.35,-629.28 626.68,-631.23 615.32,-631.23 609.65,-629.28"/>
<text xml:space="preserve" text-anchor="middle" x="621" y="-602.45" font-family="Hiragino Sans" font-size="12.00" fill="#172033">決済成功?</text>
</g>
<!-- payment&#45;&gt;payment_result -->
<g id="edge13" class="edge">
<title>payment&#45;&gt;payment_result</title>
<path fill="none" stroke="#52606d" d="M633,-685.19C633,-685.19 633,-638.25 633,-638.25"/>
<polygon fill="#52606d" stroke="#52606d" points="635.52,-638.25 633,-631.05 630.48,-638.25 635.52,-638.25"/>
</g>
<!-- save -->
<g id="node15" class="node">
<title>save</title>
<path fill="#e8f3ff" stroke="#2563eb" d="M678.71,-529.26C678.71,-529.26 545.29,-529.26 545.29,-529.26 539.29,-529.26 533.29,-523.26 533.29,-517.26 533.29,-517.26 533.29,-505.26 533.29,-505.26 533.29,-499.26 539.29,-493.26 545.29,-493.26 545.29,-493.26 678.71,-493.26 678.71,-493.26 684.71,-493.26 690.71,-499.26 690.71,-505.26 690.71,-505.26 690.71,-517.26 690.71,-517.26 690.71,-523.26 684.71,-529.26 678.71,-529.26"/>
<text xml:space="preserve" text-anchor="middle" x="612" y="-506.24" font-family="Hiragino Sans" font-size="12.00" fill="#172033">注文DBへ確定注文を保存</text>
</g>
<!-- payment_result&#45;&gt;save -->
<g id="edge14" class="edge">
<title>payment_result&#45;&gt;save</title>
<path fill="none" stroke="#52606d" d="M618.4,-582.19C618.4,-582.19 618.4,-538.4 618.4,-538.4"/>
<polygon fill="#52606d" stroke="#52606d" points="620.92,-538.4 618.4,-531.2 615.88,-538.4 620.92,-538.4"/>
<text xml:space="preserve" text-anchor="middle" x="626.75" y="-551.26" font-family="Hiragino Sans" font-size="10.00" fill="#364152">成功</text>
</g>
<!-- release -->
<g id="node29" class="node">
<title>release</title>
<path fill="#fdecec" stroke="#b42318" d="M958.08,-238.61C958.08,-238.61 853.92,-238.61 853.92,-238.61 847.92,-238.61 841.92,-232.61 841.92,-226.61 841.92,-226.61 841.92,-214.61 841.92,-214.61 841.92,-208.61 847.92,-202.61 853.92,-202.61 853.92,-202.61 958.08,-202.61 958.08,-202.61 964.08,-202.61 970.08,-208.61 970.08,-214.61 970.08,-214.61 970.08,-226.61 970.08,-226.61 970.08,-232.61 964.08,-238.61 958.08,-238.61"/>
<text xml:space="preserve" text-anchor="middle" x="906" y="-215.59" font-family="Hiragino Sans" font-size="12.00" fill="#172033">引当済み在庫を解放</text>
</g>
<!-- payment_result&#45;&gt;release -->
<g id="edge35" class="edge">
<title>payment_result&#45;&gt;release</title>
<path fill="none" stroke="#b42318" d="M695.8,-607C790.09,-607 940.03,-607 940.03,-607 940.03,-607 940.03,-247.7 940.03,-247.7"/>
<polygon fill="#b42318" stroke="#b42318" points="942.55,-247.7 940.03,-240.5 937.51,-247.7 942.55,-247.7"/>
<text xml:space="preserve" text-anchor="middle" x="759.75" y="-420.3" font-family="Hiragino Sans" font-size="10.00" fill="#364152">失敗</text>
</g>
<!-- save_result -->
<g id="node16" class="node">
<title>save_result</title>
<path fill="#fff7d6" stroke="#a16207" d="M585.39,-447.24C585.39,-447.24 509.7,-427.57 509.7,-427.57 503.9,-426.06 503.9,-423.04 509.7,-421.53 509.7,-421.53 585.39,-401.86 585.39,-401.86 591.19,-400.35 602.81,-400.35 608.61,-401.86 608.61,-401.86 684.3,-421.53 684.3,-421.53 690.1,-423.04 690.1,-426.06 684.3,-427.57 684.3,-427.57 608.61,-447.24 608.61,-447.24 602.81,-448.75 591.19,-448.75 585.39,-447.24"/>
<text xml:space="preserve" text-anchor="middle" x="597" y="-419.53" font-family="Hiragino Sans" font-size="12.00" fill="#172033">注文保存成功?</text>
</g>
<!-- save&#45;&gt;save_result -->
<g id="edge15" class="edge">
<title>save&#45;&gt;save_result</title>
<path fill="none" stroke="#52606d" d="M612,-492.87C612,-492.87 612,-455.31 612,-455.31"/>
<polygon fill="#52606d" stroke="#52606d" points="614.52,-455.31 612,-448.11 609.48,-455.31 614.52,-455.31"/>
</g>
<!-- respond -->
<g id="node17" class="node">
<title>respond</title>
<path fill="#e8f3ff" stroke="#2563eb" d="M668.21,-328.34C668.21,-328.34 525.79,-328.34 525.79,-328.34 519.79,-328.34 513.79,-322.34 513.79,-316.34 513.79,-316.34 513.79,-304.34 513.79,-304.34 513.79,-298.34 519.79,-292.34 525.79,-292.34 525.79,-292.34 668.21,-292.34 668.21,-292.34 674.21,-292.34 680.21,-298.34 680.21,-304.34 680.21,-304.34 680.21,-316.34 680.21,-316.34 680.21,-322.34 674.21,-328.34 668.21,-328.34"/>
<text xml:space="preserve" text-anchor="middle" x="597" y="-305.32" font-family="Hiragino Sans" font-size="12.00" fill="#172033">注文成功をWeb画面へ返す</text>
</g>
<!-- save_result&#45;&gt;respond -->
<g id="edge16" class="edge">
<title>save_result&#45;&gt;respond</title>
<path fill="none" stroke="#52606d" d="M597,-398.35C597,-398.35 597,-337.31 597,-337.31"/>
<polygon fill="#52606d" stroke="#52606d" points="599.52,-337.31 597,-330.11 594.48,-337.31 599.52,-337.31"/>
<text xml:space="preserve" text-anchor="middle" x="606.75" y="-368.34" font-family="Hiragino Sans" font-size="10.00" fill="#364152">成功</text>
</g>
<!-- async -->
<g id="node18" class="node">
<title>async</title>
<path fill="#f3efff" stroke="#6d4aff" d="M362.08,-328.34C362.08,-328.34 269.92,-328.34 269.92,-328.34 263.92,-328.34 257.92,-322.34 257.92,-316.34 257.92,-316.34 257.92,-304.34 257.92,-304.34 257.92,-298.34 263.92,-292.34 269.92,-292.34 269.92,-292.34 362.08,-292.34 362.08,-292.34 368.08,-292.34 374.08,-298.34 374.08,-304.34 374.08,-304.34 374.08,-316.34 374.08,-316.34 374.08,-322.34 368.08,-328.34 362.08,-328.34"/>
<text xml:space="preserve" text-anchor="middle" x="316" y="-305.32" font-family="Hiragino Sans" font-size="12.00" fill="#172033">非同期処理を開始</text>
</g>
<!-- save_result&#45;&gt;async -->
<g id="edge31" class="edge">
<title>save_result&#45;&gt;async</title>
<path fill="none" stroke="#52606d" stroke-dasharray="5,2" d="M505.94,-422.16C505.94,-405.71 505.94,-310 505.94,-310 505.94,-310 383.25,-310 383.25,-310"/>
<polygon fill="#52606d" stroke="#52606d" points="383.25,-307.48 376.05,-310 383.25,-312.52 383.25,-307.48"/>
<text xml:space="preserve" text-anchor="middle" x="440.38" y="-368.34" font-family="Hiragino Sans" font-size="10.00" fill="#364152">注文確定後</text>
</g>
<!-- refund -->
<g id="node28" class="node">
<title>refund</title>
<path fill="#fdecec" stroke="#b42318" d="M919.08,-328.34C919.08,-328.34 802.92,-328.34 802.92,-328.34 796.92,-328.34 790.92,-322.34 790.92,-316.34 790.92,-316.34 790.92,-304.34 790.92,-304.34 790.92,-298.34 796.92,-292.34 802.92,-292.34 802.92,-292.34 919.08,-292.34 919.08,-292.34 925.08,-292.34 931.08,-298.34 931.08,-304.34 931.08,-304.34 931.08,-316.34 931.08,-316.34 931.08,-322.34 925.08,-328.34 919.08,-328.34"/>
<text xml:space="preserve" text-anchor="middle" x="861" y="-305.32" font-family="Hiragino Sans" font-size="12.00" fill="#172033">決済を取消または返金</text>
</g>
<!-- save_result&#45;&gt;refund -->
<g id="edge36" class="edge">
<title>save_result&#45;&gt;refund</title>
<path fill="none" stroke="#b42318" d="M688.06,-422.16C688.06,-405.71 688.06,-310 688.06,-310 688.06,-310 781.94,-310 781.94,-310"/>
<polygon fill="#b42318" stroke="#b42318" points="781.94,-312.52 789.14,-310 781.94,-307.48 781.94,-312.52"/>
<text xml:space="preserve" text-anchor="middle" x="689.75" y="-368.34" font-family="Hiragino Sans" font-size="10.00" fill="#364152">失敗</text>
</g>
<!-- ship -->
<g id="node19" class="node">
<title>ship</title>
<path fill="#f3efff" stroke="#6d4aff" d="M190.08,-239.84C190.08,-239.84 109.92,-239.84 109.92,-239.84 103.92,-239.84 97.92,-233.84 97.92,-227.84 97.92,-227.84 97.92,-213.38 97.92,-213.38 97.92,-207.38 103.92,-201.38 109.92,-201.38 109.92,-201.38 190.08,-201.38 190.08,-201.38 196.08,-201.38 202.08,-207.38 202.08,-213.38 202.08,-213.38 202.08,-227.84 202.08,-227.84 202.08,-233.84 196.08,-239.84 190.08,-239.84"/>
<text xml:space="preserve" text-anchor="middle" x="150" y="-221.96" font-family="Hiragino Sans" font-size="12.00" fill="#172033">配送サービスへ</text>
<text xml:space="preserve" text-anchor="middle" x="150" y="-209.21" font-family="Hiragino Sans" font-size="12.00" fill="#172033">配送を依頼</text>
</g>
<!-- async&#45;&gt;ship -->
<g id="edge17" class="edge">
<title>async&#45;&gt;ship</title>
<path fill="none" stroke="#52606d" d="M257.47,-310C209.68,-310 150,-310 150,-310 150,-310 150,-248.72 150,-248.72"/>
<polygon fill="#52606d" stroke="#52606d" points="152.52,-248.72 150,-241.52 147.48,-248.72 152.52,-248.72"/>
</g>
<!-- notify -->
<g id="node23" class="node">
<title>notify</title>
<path fill="#f3efff" stroke="#6d4aff" d="M356.08,-239.84C356.08,-239.84 275.92,-239.84 275.92,-239.84 269.92,-239.84 263.92,-233.84 263.92,-227.84 263.92,-227.84 263.92,-213.38 263.92,-213.38 263.92,-207.38 269.92,-201.38 275.92,-201.38 275.92,-201.38 356.08,-201.38 356.08,-201.38 362.08,-201.38 368.08,-207.38 368.08,-213.38 368.08,-213.38 368.08,-227.84 368.08,-227.84 368.08,-233.84 362.08,-239.84 356.08,-239.84"/>
<text xml:space="preserve" text-anchor="middle" x="316" y="-221.96" font-family="Hiragino Sans" font-size="12.00" fill="#172033">通知サービスへ</text>
<text xml:space="preserve" text-anchor="middle" x="316" y="-209.21" font-family="Hiragino Sans" font-size="12.00" fill="#172033">確認通知を依頼</text>
</g>
<!-- async&#45;&gt;notify -->
<g id="edge18" class="edge">
<title>async&#45;&gt;notify</title>
<path fill="none" stroke="#52606d" d="M316,-292.18C316,-292.18 316,-249.01 316,-249.01"/>
<polygon fill="#52606d" stroke="#52606d" points="318.52,-249.01 316,-241.81 313.48,-249.01 318.52,-249.01"/>
</g>
<!-- ship_result -->
<g id="node20" class="node">
<title>ship_result</title>
<path fill="#fff7d6" stroke="#a16207" d="M103.39,-155.36C103.39,-155.36 27.7,-135.69 27.7,-135.69 21.9,-134.18 21.9,-131.16 27.7,-129.65 27.7,-129.65 103.39,-109.98 103.39,-109.98 109.19,-108.47 120.81,-108.47 126.61,-109.98 126.61,-109.98 202.3,-129.65 202.3,-129.65 208.1,-131.16 208.1,-134.18 202.3,-135.69 202.3,-135.69 126.61,-155.36 126.61,-155.36 120.81,-156.87 109.19,-156.87 103.39,-155.36"/>
<text xml:space="preserve" text-anchor="middle" x="115" y="-127.65" font-family="Hiragino Sans" font-size="12.00" fill="#172033">配送依頼成功?</text>
</g>
<!-- ship&#45;&gt;ship_result -->
<g id="edge19" class="edge">
<title>ship&#45;&gt;ship_result</title>
<path fill="none" stroke="#52606d" d="M150,-201.09C150,-201.09 150,-158.47 150,-158.47"/>
<polygon fill="#52606d" stroke="#52606d" points="152.52,-158.47 150,-151.27 147.48,-158.47 152.52,-158.47"/>
</g>
<!-- ship_done -->
<g id="node21" class="node">
<title>ship_done</title>
<path fill="#f3efff" stroke="#6d4aff" d="M100.08,-53.23C100.08,-53.23 31.92,-53.23 31.92,-53.23 25.92,-53.23 19.92,-47.23 19.92,-41.23 19.92,-41.23 19.92,-29.23 19.92,-29.23 19.92,-23.23 25.92,-17.23 31.92,-17.23 31.92,-17.23 100.08,-17.23 100.08,-17.23 106.08,-17.23 112.08,-23.23 112.08,-29.23 112.08,-29.23 112.08,-41.23 112.08,-41.23 112.08,-47.23 106.08,-53.23 100.08,-53.23"/>
<text xml:space="preserve" text-anchor="middle" x="66" y="-30.21" font-family="Hiragino Sans" font-size="12.00" fill="#172033">配送手配完了</text>
</g>
<!-- ship_result&#45;&gt;ship_done -->
<g id="edge20" class="edge">
<title>ship_result&#45;&gt;ship_done</title>
<path fill="none" stroke="#52606d" d="M66,-119.53C66,-119.53 66,-62.18 66,-62.18"/>
<polygon fill="#52606d" stroke="#52606d" points="68.52,-62.18 66,-54.98 63.48,-62.18 68.52,-62.18"/>
<text xml:space="preserve" text-anchor="middle" x="100.75" y="-76.46" font-family="Hiragino Sans" font-size="10.00" fill="#364152">成功</text>
</g>
<!-- ops -->
<g id="node22" class="node">
<title>ops</title>
<path fill="#f3efff" stroke="#6d4aff" d="M219.08,-54.46C219.08,-54.46 150.92,-54.46 150.92,-54.46 144.92,-54.46 138.92,-48.46 138.92,-42.46 138.92,-42.46 138.92,-28 138.92,-28 138.92,-22 144.92,-16 150.92,-16 150.92,-16 219.08,-16 219.08,-16 225.08,-16 231.08,-22 231.08,-28 231.08,-28 231.08,-42.46 231.08,-42.46 231.08,-48.46 225.08,-54.46 219.08,-54.46"/>
<text xml:space="preserve" text-anchor="middle" x="185" y="-36.58" font-family="Hiragino Sans" font-size="12.00" fill="#172033">運用担当者へ</text>
<text xml:space="preserve" text-anchor="middle" x="185" y="-23.83" font-family="Hiragino Sans" font-size="12.00" fill="#172033">対応を依頼</text>
</g>
<!-- ship_result&#45;&gt;ops -->
<g id="edge21" class="edge">
<title>ship_result&#45;&gt;ops</title>
<path fill="none" stroke="#52606d" d="M176.41,-122.61C176.41,-122.61 176.41,-63.51 176.41,-63.51"/>
<polygon fill="#52606d" stroke="#52606d" points="178.94,-63.51 176.42,-56.31 173.9,-63.51 178.94,-63.51"/>
<text xml:space="preserve" text-anchor="middle" x="187.75" y="-76.46" font-family="Hiragino Sans" font-size="10.00" fill="#364152">失敗</text>
</g>
<!-- notify_result -->
<g id="node24" class="node">
<title>notify_result</title>
<path fill="#fff7d6" stroke="#a16207" d="M304.65,-154.48C304.65,-154.48 252.44,-136.57 252.44,-136.57 246.77,-134.62 246.77,-130.72 252.44,-128.77 252.44,-128.77 304.65,-110.86 304.65,-110.86 310.32,-108.91 321.68,-108.91 327.35,-110.86 327.35,-110.86 379.56,-128.77 379.56,-128.77 385.23,-130.72 385.23,-134.62 379.56,-136.57 379.56,-136.57 327.35,-154.48 327.35,-154.48 321.68,-156.43 310.32,-156.43 304.65,-154.48"/>
<text xml:space="preserve" text-anchor="middle" x="316" y="-127.65" font-family="Hiragino Sans" font-size="12.00" fill="#172033">通知成功?</text>
</g>
<!-- notify&#45;&gt;notify_result -->
<g id="edge22" class="edge">
<title>notify&#45;&gt;notify_result</title>
<path fill="none" stroke="#52606d" d="M316,-201.09C316,-201.09 316,-167.52 316,-167.52"/>
<polygon fill="#52606d" stroke="#52606d" points="318.52,-167.52 316,-160.32 313.48,-167.52 318.52,-167.52"/>
</g>
<!-- notify_done -->
<g id="node25" class="node">
<title>notify_done</title>
<path fill="#f3efff" stroke="#6d4aff" d="M316.08,-53.23C316.08,-53.23 271.92,-53.23 271.92,-53.23 265.92,-53.23 259.92,-47.23 259.92,-41.23 259.92,-41.23 259.92,-29.23 259.92,-29.23 259.92,-23.23 265.92,-17.23 271.92,-17.23 271.92,-17.23 316.08,-17.23 316.08,-17.23 322.08,-17.23 328.08,-23.23 328.08,-29.23 328.08,-29.23 328.08,-41.23 328.08,-41.23 328.08,-47.23 322.08,-53.23 316.08,-53.23"/>
<text xml:space="preserve" text-anchor="middle" x="294" y="-30.21" font-family="Hiragino Sans" font-size="12.00" fill="#172033">通知完了</text>
</g>
<!-- notify_result&#45;&gt;notify_done -->
<g id="edge23" class="edge">
<title>notify_result&#45;&gt;notify_done</title>
<path fill="none" stroke="#52606d" d="M294,-114.34C294,-114.34 294,-62.19 294,-62.19"/>
<polygon fill="#52606d" stroke="#52606d" points="296.52,-62.19 294,-54.99 291.48,-62.19 296.52,-62.19"/>
<text xml:space="preserve" text-anchor="middle" x="308.75" y="-76.46" font-family="Hiragino Sans" font-size="10.00" fill="#364152">成功</text>
</g>
<!-- notify_queue -->
<g id="node26" class="node">
<title>notify_queue</title>
<path fill="#f3efff" stroke="#6d4aff" d="M459.08,-53.23C459.08,-53.23 366.92,-53.23 366.92,-53.23 360.92,-53.23 354.92,-47.23 354.92,-41.23 354.92,-41.23 354.92,-29.23 354.92,-29.23 354.92,-23.23 360.92,-17.23 366.92,-17.23 366.92,-17.23 459.08,-17.23 459.08,-17.23 465.08,-17.23 471.08,-23.23 471.08,-29.23 471.08,-29.23 471.08,-41.23 471.08,-41.23 471.08,-47.23 465.08,-53.23 459.08,-53.23"/>
<text xml:space="preserve" text-anchor="middle" x="413" y="-30.21" font-family="Hiragino Sans" font-size="12.00" fill="#172033">通知キューへ登録</text>
</g>
<!-- notify_result&#45;&gt;notify_queue -->
<g id="edge24" class="edge">
<title>notify_result&#45;&gt;notify_queue</title>
<path fill="none" stroke="#52606d" d="M372.91,-125.97C372.91,-125.97 372.91,-62.06 372.91,-62.06"/>
<polygon fill="#52606d" stroke="#52606d" points="375.44,-62.06 372.92,-54.86 370.4,-62.06 375.44,-62.06"/>
<text xml:space="preserve" text-anchor="middle" x="380.75" y="-76.46" font-family="Hiragino Sans" font-size="10.00" fill="#364152">失敗</text>
</g>
<!-- notify_queue&#45;&gt;notify -->
<g id="edge25" class="edge">
<title>notify_queue&#45;&gt;notify</title>
<path fill="none" stroke="#52606d" stroke-dasharray="5,2" d="M431,-53.72C431,-100.71 431,-221 431,-221 431,-221 377.16,-221 377.16,-221"/>
<polygon fill="#52606d" stroke="#52606d" points="377.16,-218.48 369.96,-221 377.16,-223.52 377.16,-218.48"/>
<text xml:space="preserve" text-anchor="middle" x="459.62" y="-128.42" font-family="Hiragino Sans" font-size="10.00" fill="#364152">再試行</text>
</g>
<!-- cancel&#45;&gt;release -->
<g id="edge26" class="edge">
<title>cancel&#45;&gt;release</title>
<path fill="none" stroke="#52606d" stroke-dasharray="5,2" d="M964,-292.18C964,-292.18 964,-247.76 964,-247.76"/>
<polygon fill="#52606d" stroke="#52606d" points="966.52,-247.76 964,-240.56 961.48,-247.76 966.52,-247.76"/>
<text xml:space="preserve" text-anchor="middle" x="985.12" y="-261.84" font-family="Hiragino Sans" font-size="10.00" fill="#364152">必要な場合だけ</text>
</g>
<!-- refund&#45;&gt;release -->
<g id="edge27" class="edge">
<title>refund&#45;&gt;release</title>
<path fill="none" stroke="#52606d" stroke-dasharray="5,2" d="M886.5,-292.18C886.5,-292.18 886.5,-247.76 886.5,-247.76"/>
<polygon fill="#52606d" stroke="#52606d" points="889.02,-247.76 886.5,-240.56 883.98,-247.76 889.02,-247.76"/>
</g>
<!-- release&#45;&gt;order_fail -->
<g id="edge28" class="edge">
<title>release&#45;&gt;order_fail</title>
<path fill="none" stroke="#52606d" d="M913.94,-202.39C913.94,-202.39 913.94,-159.58 913.94,-159.58"/>
<polygon fill="#52606d" stroke="#52606d" points="916.46,-159.58 913.94,-152.38 911.42,-159.58 916.46,-159.58"/>
</g>
</g>
</svg>
