<?xml version="1.0" encoding="UTF-8" standalone="no"?>
<!DOCTYPE svg PUBLIC "-//W3C//DTD SVG 1.1//EN"
 "http://www.w3.org/Graphics/SVG/1.1/DTD/svg11.dtd">
<!-- Generated by graphviz version 15.1.0 (20260618.0150)
 -->
<!-- Title: OrderClasses Pages: 1 -->
<svg width="973pt" height="751pt"
 viewBox="0.00 0.00 973.00 751.00" xmlns="http://www.w3.org/2000/svg" xmlns:xlink="http://www.w3.org/1999/xlink">
<g id="graph0" class="graph" transform="scale(1 1) rotate(0) translate(18 733.25)">
<title>OrderClasses</title>
<polygon fill="white" stroke="none" points="-18,18 -18,-733.25 955,-733.25 955,18 -18,18"/>
<text xml:space="preserve" text-anchor="middle" x="468.5" y="-697.95" font-family="Helvetica,sans-Serif" font-size="14.00">EC注文ドメインのクラス図</text>
<g id="clust1" class="cluster">
<title>cluster_order</title>
<path fill="white" stroke="#9cb7ac" d="M20,-157.75C20,-157.75 549,-157.75 549,-157.75 555,-157.75 561,-163.75 561,-169.75 561,-169.75 561,-513 561,-513 561,-519 555,-525 549,-525 549,-525 20,-525 20,-525 14,-525 8,-519 8,-513 8,-513 8,-169.75 8,-169.75 8,-163.75 14,-157.75 20,-157.75"/>
<text xml:space="preserve" text-anchor="middle" x="284.5" y="-507.7" font-family="Helvetica,sans-Serif" font-size="14.00">Order Domain</text>
</g>
<g id="clust3" class="cluster">
<title>cluster_customer</title>
<path fill="white" stroke="#9cb7ac" d="M437,-558.75C437,-558.75 539,-558.75 539,-558.75 545,-558.75 551,-564.75 551,-570.75 551,-570.75 551,-670.75 551,-670.75 551,-676.75 545,-682.75 539,-682.75 539,-682.75 437,-682.75 437,-682.75 431,-682.75 425,-676.75 425,-670.75 425,-670.75 425,-570.75 425,-570.75 425,-564.75 431,-558.75 437,-558.75"/>
<text xml:space="preserve" text-anchor="middle" x="488" y="-665.45" font-family="Helvetica,sans-Serif" font-size="14.00">Customer Domain</text>
</g>
<g id="clust4" class="cluster">
<title>cluster_catalog</title>
<path fill="white" stroke="#9cb7ac" d="M437,-8C437,-8 527,-8 527,-8 533,-8 539,-14 539,-20 539,-20 539,-112 539,-112 539,-118 533,-124 527,-124 527,-124 437,-124 437,-124 431,-124 425,-118 425,-112 425,-112 425,-20 425,-20 425,-14 431,-8 437,-8"/>
<text xml:space="preserve" text-anchor="middle" x="482" y="-106.7" font-family="Helvetica,sans-Serif" font-size="14.00">Catalog Domain</text>
</g>
<g id="clust5" class="cluster">
<title>cluster_fulfillment</title>
<path fill="white" stroke="#9cb7ac" d="M585,-161.25C585,-161.25 917,-161.25 917,-161.25 923,-161.25 929,-167.25 929,-173.25 929,-173.25 929,-288.25 929,-288.25 929,-294.25 923,-300.25 917,-300.25 917,-300.25 585,-300.25 585,-300.25 579,-300.25 573,-294.25 573,-288.25 573,-288.25 573,-173.25 573,-173.25 573,-167.25 579,-161.25 585,-161.25"/>
<text xml:space="preserve" text-anchor="middle" x="751" y="-282.95" font-family="Helvetica,sans-Serif" font-size="14.00">Fulfillment</text>
</g>
<!-- Order -->
<g id="node1" class="node">
<title>Order</title>
<polygon fill="#ddebe4" stroke="none" points="424.5,-468 424.5,-493 551.5,-493 551.5,-468 424.5,-468"/>
<text xml:space="preserve" text-anchor="start" x="469.25" y="-475.7" font-family="Helvetica,sans-Serif" font-weight="bold" font-size="14.00">Order</text>
<text xml:space="preserve" text-anchor="start" x="455.75" y="-451.75" font-family="Helvetica,sans-Serif" font-size="14.00">id: OrderId</text>
<text xml:space="preserve" text-anchor="start" x="429.5" y="-436.75" font-family="Helvetica,sans-Serif" font-size="14.00">status: OrderStatus</text>
<text xml:space="preserve" text-anchor="start" x="450.88" y="-421.75" font-family="Helvetica,sans-Serif" font-size="14.00">total: Money</text>
<text xml:space="preserve" text-anchor="start" x="447.88" y="-396.75" font-family="Helvetica,sans-Serif" font-size="14.00">addLine()</text>
<text xml:space="preserve" text-anchor="start" x="429.5" y="-381.75" font-family="Helvetica,sans-Serif" font-size="14.00">applyDiscount()</text>
<text xml:space="preserve" text-anchor="start" x="449.38" y="-366.75" font-family="Helvetica,sans-Serif" font-size="14.00">confirm()</text>
<text xml:space="preserve" text-anchor="start" x="452.38" y="-351.75" font-family="Helvetica,sans-Serif" font-size="14.00">cancel()</text>
<polygon fill="none" stroke="black" points="423.5,-342 423.5,-494 552.5,-494 552.5,-342 423.5,-342"/>
</g>
<!-- OrderLine -->
<g id="node2" class="node">
<title>OrderLine</title>
<polygon fill="#ddebe4" stroke="none" points="416.25,-246.75 416.25,-271.75 547.75,-271.75 547.75,-246.75 416.25,-246.75"/>
<text xml:space="preserve" text-anchor="start" x="449.38" y="-254.45" font-family="Helvetica,sans-Serif" font-weight="bold" font-size="14.00">OrderLine</text>
<text xml:space="preserve" text-anchor="start" x="421.25" y="-230.5" font-family="Helvetica,sans-Serif" font-size="14.00">productId: ProductId</text>
<text xml:space="preserve" text-anchor="start" x="447.5" y="-215.5" font-family="Helvetica,sans-Serif" font-size="14.00">quantity: int</text>
<text xml:space="preserve" text-anchor="start" x="431.38" y="-200.5" font-family="Helvetica,sans-Serif" font-size="14.00">unitPrice: Money</text>
<text xml:space="preserve" text-anchor="start" x="421.25" y="-175.5" font-family="Helvetica,sans-Serif" font-size="14.00">subtotal(): Money</text>
<polygon fill="none" stroke="black" points="415.25,-165.75 415.25,-272.75 548.75,-272.75 548.75,-165.75 415.25,-165.75"/>
</g>
<!-- Order&#45;&gt;OrderLine -->
<g id="edge2" class="edge">
<title>Order&#45;&gt;OrderLine</title>
<path fill="none" stroke="#52645d" d="M485.71,-342.06C485.12,-322.45 484.48,-301.52 483.9,-282.65"/>
<polygon fill="#52645d" stroke="#52645d" points="483.9,-282.58 480.77,-278.18 483.63,-273.59 486.76,-278 483.9,-282.58"/>
<text xml:space="preserve" text-anchor="middle" x="517.07" y="-309.45" font-family="Helvetica,sans-Serif" font-size="9.00">contains &#160;1 : 1..*</text>
</g>
<!-- DiscountPolicy -->
<g id="node3" class="node">
<title>DiscountPolicy</title>
<polygon fill="#fff4cc" stroke="none" points="212.12,-212.75 212.12,-250.75 381.88,-250.75 381.88,-212.75 212.12,-212.75"/>
<text xml:space="preserve" text-anchor="start" x="271.12" y="-233.45" font-family="Helvetica,sans-Serif" font-style="italic" font-size="14.00">interface</text>
<text xml:space="preserve" text-anchor="start" x="248.25" y="-219.45" font-family="Helvetica,sans-Serif" font-weight="bold" font-size="14.00">DiscountPolicy</text>
<text xml:space="preserve" text-anchor="start" x="217.12" y="-196.5" font-family="Helvetica,sans-Serif" font-size="14.00">discountFor(order): Money</text>
<polygon fill="none" stroke="black" points="211.12,-186.75 211.12,-251.75 382.88,-251.75 382.88,-186.75 211.12,-186.75"/>
</g>
<!-- Order&#45;&gt;DiscountPolicy -->
<g id="edge6" class="edge">
<title>Order&#45;&gt;DiscountPolicy</title>
<path fill="none" stroke="#52645d" stroke-dasharray="5,2" d="M423.6,-350.66C393.65,-319.81 359.12,-284.24 333.69,-258.05"/>
<polygon fill="#52645d" stroke="#52645d" points="335.59,-256.24 328.49,-252.68 331.83,-259.89 335.59,-256.24"/>
<text xml:space="preserve" text-anchor="middle" x="401.77" y="-309.45" font-family="Helvetica,sans-Serif" font-size="9.00">applies</text>
</g>
<!-- Payment -->
<g id="node8" class="node">
<title>Payment</title>
<polygon fill="#f7faf8" stroke="black" points="581.12,-169.75 581.12,-268.75 732.88,-268.75 732.88,-169.75 581.12,-169.75"/>
<text xml:space="preserve" text-anchor="middle" x="657" y="-251.45" font-family="Helvetica,sans-Serif" font-size="14.00">Payment</text>
<polyline fill="none" stroke="black" points="581.12,-245.75 732.88,-245.75"/>
<text xml:space="preserve" text-anchor="start" x="589.12" y="-228.45" font-family="Helvetica,sans-Serif" font-size="14.00">id: PaymentId</text>
<text xml:space="preserve" text-anchor="start" x="589.12" y="-213.45" font-family="Helvetica,sans-Serif" font-size="14.00">status: PaymentStatus</text>
<polyline fill="none" stroke="black" points="581.12,-207.75 732.88,-207.75"/>
<text xml:space="preserve" text-anchor="start" x="589.12" y="-190.45" font-family="Helvetica,sans-Serif" font-size="14.00">authorize()</text>
<text xml:space="preserve" text-anchor="start" x="589.12" y="-175.45" font-family="Helvetica,sans-Serif" font-size="14.00">refund()</text>
</g>
<!-- Order&#45;&gt;Payment -->
<g id="edge4" class="edge">
<title>Order&#45;&gt;Payment</title>
<path fill="none" stroke="#52645d" d="M552.37,-342.06C571.07,-320.29 591.15,-296.91 608.68,-276.5"/>
<polygon fill="none" stroke="#52645d" points="608.56,-276.64 609.22,-271.27 614.43,-269.81 613.77,-275.18 608.56,-276.64"/>
<text xml:space="preserve" text-anchor="middle" x="610.94" y="-309.45" font-family="Helvetica,sans-Serif" font-size="9.00">payment &#160;1 : 0..1</text>
</g>
<!-- Shipment -->
<g id="node9" class="node">
<title>Shipment</title>
<polygon fill="#f7faf8" stroke="black" points="765.25,-177.25 765.25,-261.25 920.75,-261.25 920.75,-177.25 765.25,-177.25"/>
<text xml:space="preserve" text-anchor="middle" x="843" y="-243.95" font-family="Helvetica,sans-Serif" font-size="14.00">Shipment</text>
<polyline fill="none" stroke="black" points="765.25,-238.25 920.75,-238.25"/>
<text xml:space="preserve" text-anchor="start" x="773.25" y="-220.95" font-family="Helvetica,sans-Serif" font-size="14.00">id: ShipmentId</text>
<text xml:space="preserve" text-anchor="start" x="773.25" y="-205.95" font-family="Helvetica,sans-Serif" font-size="14.00">status: ShipmentStatus</text>
<polyline fill="none" stroke="black" points="765.25,-200.25 920.75,-200.25"/>
<text xml:space="preserve" text-anchor="start" x="773.25" y="-182.95" font-family="Helvetica,sans-Serif" font-size="14.00">arrange()</text>
</g>
<!-- Order&#45;&gt;Shipment -->
<g id="edge5" class="edge">
<title>Order&#45;&gt;Shipment</title>
<path fill="none" stroke="#52645d" d="M552.25,-394.17C606.72,-373.46 685.82,-340.11 749,-300.25 763.83,-290.89 778.79,-279.34 792.27,-267.95"/>
<polygon fill="none" stroke="#52645d" points="792.09,-268.11 793.55,-262.9 798.92,-262.25 797.46,-267.46 792.09,-268.11"/>
<text xml:space="preserve" text-anchor="middle" x="770.4" y="-309.45" font-family="Helvetica,sans-Serif" font-size="9.00">shipment &#160;1 : 0..1</text>
</g>
<!-- Product -->
<g id="node7" class="node">
<title>Product</title>
<polygon fill="#f7faf8" stroke="black" points="435,-16.5 435,-92.5 529,-92.5 529,-16.5 435,-16.5"/>
<text xml:space="preserve" text-anchor="middle" x="482" y="-75.2" font-family="Helvetica,sans-Serif" font-size="14.00">Product</text>
<polyline fill="none" stroke="black" points="435,-69.5 529,-69.5"/>
<text xml:space="preserve" text-anchor="start" x="443" y="-52.2" font-family="Helvetica,sans-Serif" font-size="14.00">id: ProductId</text>
<text xml:space="preserve" text-anchor="start" x="443" y="-37.2" font-family="Helvetica,sans-Serif" font-size="14.00">name: String</text>
<text xml:space="preserve" text-anchor="start" x="443" y="-22.2" font-family="Helvetica,sans-Serif" font-size="14.00">price: Money</text>
</g>
<!-- OrderLine&#45;&gt;Product -->
<g id="edge3" class="edge">
<title>OrderLine&#45;&gt;Product</title>
<path fill="none" stroke="#52645d" d="M482,-165.86C482,-145.23 482,-121.74 482,-101.75"/>
<polygon fill="#52645d" stroke="#52645d" points="484.63,-101.85 482,-94.35 479.38,-101.85 484.63,-101.85"/>
<text xml:space="preserve" text-anchor="middle" x="513.88" y="-133.2" font-family="Helvetica,sans-Serif" font-size="9.00">references &#160;* : 1</text>
</g>
<!-- PercentageDiscount -->
<g id="node4" class="node">
<title>PercentageDiscount</title>
<polygon fill="#f7faf8" stroke="none" points="17.12,-425.5 17.12,-450.5 186.88,-450.5 186.88,-425.5 17.12,-425.5"/>
<text xml:space="preserve" text-anchor="start" x="36.75" y="-433.2" font-family="Helvetica,sans-Serif" font-weight="bold" font-size="14.00">PercentageDiscount</text>
<text xml:space="preserve" text-anchor="start" x="63" y="-409.25" font-family="Helvetica,sans-Serif" font-size="14.00">rate: decimal</text>
<text xml:space="preserve" text-anchor="start" x="22.12" y="-394.25" font-family="Helvetica,sans-Serif" font-size="14.00">discountFor(order): Money</text>
<polygon fill="none" stroke="black" points="16.12,-384.5 16.12,-451.5 187.88,-451.5 187.88,-384.5 16.12,-384.5"/>
</g>
<!-- PercentageDiscount&#45;&gt;DiscountPolicy -->
<g id="edge7" class="edge">
<title>PercentageDiscount&#45;&gt;DiscountPolicy</title>
<path fill="none" stroke="#52645d" stroke-dasharray="5,2" d="M134.2,-384.51C168.76,-349.64 223.59,-294.32 259.93,-257.66"/>
<polygon fill="none" stroke="#52645d" points="261.56,-259.74 264.98,-252.56 257.83,-256.04 261.56,-259.74"/>
</g>
<!-- CouponDiscount -->
<g id="node5" class="node">
<title>CouponDiscount</title>
<polygon fill="#f7faf8" stroke="none" points="221.12,-425.5 221.12,-450.5 390.88,-450.5 390.88,-425.5 221.12,-425.5"/>
<text xml:space="preserve" text-anchor="start" x="251.62" y="-433.2" font-family="Helvetica,sans-Serif" font-weight="bold" font-size="14.00">CouponDiscount</text>
<text xml:space="preserve" text-anchor="start" x="246.38" y="-409.25" font-family="Helvetica,sans-Serif" font-size="14.00">couponCode: String</text>
<text xml:space="preserve" text-anchor="start" x="226.12" y="-394.25" font-family="Helvetica,sans-Serif" font-size="14.00">discountFor(order): Money</text>
<polygon fill="none" stroke="black" points="220.12,-384.5 220.12,-451.5 391.88,-451.5 391.88,-384.5 220.12,-384.5"/>
</g>
<!-- CouponDiscount&#45;&gt;DiscountPolicy -->
<g id="edge8" class="edge">
<title>CouponDiscount&#45;&gt;DiscountPolicy</title>
<path fill="none" stroke="#52645d" stroke-dasharray="5,2" d="M304.51,-384.51C302.96,-350.5 300.51,-297.05 298.84,-260.42"/>
<polygon fill="none" stroke="#52645d" points="301.46,-260.37 298.5,-253 296.22,-260.61 301.46,-260.37"/>
</g>
<!-- Customer -->
<g id="node6" class="node">
<title>Customer</title>
<polygon fill="#f7faf8" stroke="black" points="435.75,-567.25 435.75,-651.25 540.25,-651.25 540.25,-567.25 435.75,-567.25"/>
<text xml:space="preserve" text-anchor="middle" x="488" y="-633.95" font-family="Helvetica,sans-Serif" font-size="14.00">Customer</text>
<polyline fill="none" stroke="black" points="435.75,-628.25 540.25,-628.25"/>
<text xml:space="preserve" text-anchor="start" x="443.75" y="-610.95" font-family="Helvetica,sans-Serif" font-size="14.00">id: CustomerId</text>
<text xml:space="preserve" text-anchor="start" x="443.75" y="-595.95" font-family="Helvetica,sans-Serif" font-size="14.00">name: String</text>
<polyline fill="none" stroke="black" points="435.75,-590.25 540.25,-590.25"/>
<text xml:space="preserve" text-anchor="start" x="443.75" y="-572.95" font-family="Helvetica,sans-Serif" font-size="14.00">placeOrder()</text>
</g>
<!-- Customer&#45;&gt;Order -->
<g id="edge1" class="edge">
<title>Customer&#45;&gt;Order</title>
<path fill="none" stroke="#52645d" d="M488,-567.19C488,-548.28 488,-525.12 488,-502.78"/>
<polygon fill="#52645d" stroke="#52645d" points="490.63,-502.95 488,-495.45 485.38,-502.95 490.63,-502.95"/>
<text xml:space="preserve" text-anchor="middle" x="516.5" y="-534.2" font-family="Helvetica,sans-Serif" font-size="9.00">places &#160;1 : 0..*</text>
</g>
</g>
</svg>
