<svg xmlns="http://www.w3.org/2000/svg" xmlns:xlink="http://www.w3.org/1999/xlink" contentStyleType="text/css" data-diagram-type="DESCRIPTION" height="2097px" preserveAspectRatio="none" style="width:1270px;height:2097px;background:#FFFFFF;" version="1.1" viewBox="0 0 1270 2097" width="1270px" zoomAndPan="magnify"><?plantuml 1.2026.6?><defs/><g><!--cluster INTAKE--><g class="cluster" data-qualified-name="INTAKE" data-source-line="20" id="ent0001"><rect fill="#E8F3FF" height="190" rx="5" ry="5" style="stroke:#2563EB;stroke-width:1;" width="204" x="859" y="7"/><text fill="#172033" font-family="'Hiragino Sans'" font-size="12" font-weight="700" lengthAdjust="spacing" textLength="62.76" x="929.62" y="25.56">1. &#27880;&#25991;&#21463;&#20184;</text></g><!--cluster PRE--><g class="cluster" data-qualified-name="PRE" data-source-line="26" id="ent0005"><rect fill="#E8F3FF" height="787" rx="5" ry="5" style="stroke:#2563EB;stroke-width:1;" width="299" x="805" y="230"/><text fill="#172033" font-family="'Hiragino Sans'" font-size="12" font-weight="700" lengthAdjust="spacing" textLength="158.76" x="875.12" y="248.56">2. &#27880;&#25991;&#21069;&#25552;&#26465;&#20214;&#65288;&#20006;&#34892;&#20966;&#29702;&#65289;</text></g><!--cluster COMMIT--><g class="cluster" data-qualified-name="COMMIT" data-source-line="58" id="ent0030"><rect fill="#E8F3FF" height="608" rx="5" ry="5" style="stroke:#2563EB;stroke-width:1;" width="222" x="610" y="1074"/><text fill="#172033" font-family="'Hiragino Sans'" font-size="12" font-weight="700" lengthAdjust="spacing" textLength="98.76" x="671.62" y="1092.56">3. &#27770;&#28168;&#12392;&#27880;&#25991;&#30906;&#23450;</text></g><!--cluster AFTER--><g class="cluster" data-qualified-name="AFTER" data-source-line="71" id="ent0040"><rect fill="#FFFFFF" height="508" rx="5" ry="5" style="stroke:#2563EB;stroke-width:1;" width="529" x="7" y="1575"/><text fill="#172033" font-family="'Hiragino Sans'" font-size="12" font-weight="700" lengthAdjust="spacing" textLength="158.808" x="192.096" y="1593.56">4. &#27880;&#25991;&#30906;&#23450;&#24460;&#65288;&#38750;&#21516;&#26399;&#20966;&#29702;&#65289;</text></g><!--cluster COMP--><g class="cluster" data-qualified-name="COMP" data-source-line="97" id="ent0062"><rect fill="#FFFFFF" height="357" rx="5" ry="5" style="stroke:#2563EB;stroke-width:1;" width="322" x="872" y="1575"/><text fill="#172033" font-family="'Hiragino Sans'" font-size="12" font-weight="700" lengthAdjust="spacing" textLength="84" x="991" y="1593.56">&#22833;&#25943;&#12539;&#35036;&#20767;&#20966;&#29702;</text></g><!--entity START--><g class="entity" data-qualified-name="INTAKE.START" data-source-line="21" id="ent0002"><rect fill="#E8F3FF" height="38" rx="5" ry="5" style="stroke:#2563EB;stroke-width:0.5;" width="104" x="909" y="44"/><text fill="#172033" font-family="'Hiragino Sans'" font-size="12" lengthAdjust="spacing" textLength="84" x="919" y="70.56">&#12518;&#12540;&#12470;&#12540;&#12364;&#27880;&#25991;</text></g><!--entity API--><g class="entity" data-qualified-name="INTAKE.API" data-source-line="22" id="ent0003"><rect fill="#E8F3FF" height="38" rx="5" ry="5" style="stroke:#2563EB;stroke-width:0.5;" width="171.932" x="875.03" y="143"/><text fill="#172033" font-family="'Hiragino Sans'" font-size="12" lengthAdjust="spacing" textLength="151.932" x="885.03" y="169.56">&#27880;&#25991;API&#12364;&#27880;&#25991;&#12434;&#21463;&#12369;&#20184;&#12369;&#12427;</text></g><!--entity FORK--><g class="entity" data-qualified-name="PRE.FORK" data-source-line="27" id="ent0006"><rect fill="#FFF7D6" height="38" rx="5" ry="5" style="stroke:#2563EB;stroke-width:0.5;" width="68" x="927" y="267"/><text fill="#172033" font-family="'Hiragino Sans'" font-size="12" lengthAdjust="spacing" textLength="48" x="937" y="293.56">&#20006;&#34892;&#38283;&#22987;</text></g><!--entity INVENTORY--><g class="entity" data-qualified-name="PRE.INVENTORY" data-source-line="29" id="ent0007"><rect fill="#E8F3FF" height="56" rx="5" ry="5" style="stroke:#2563EB;stroke-width:0.5;" width="104" x="984" y="366"/><text fill="#172033" font-family="'Hiragino Sans'" font-size="12" lengthAdjust="spacing" textLength="84" x="994" y="392.56">&#22312;&#24235;&#12469;&#12540;&#12499;&#12473;&#12408;</text><text fill="#172033" font-family="'Hiragino Sans'" font-size="12" lengthAdjust="spacing" textLength="60" x="994" y="410.56">&#24341;&#24403;&#12434;&#20381;&#38972;</text></g><!--entity INVENTORY_RESULT--><g class="entity" data-qualified-name="PRE.INVENTORY_RESULT" data-source-line="30" id="ent0008"><rect fill="#FFF7D6" height="56" rx="5" ry="5" style="stroke:#2563EB;stroke-width:0.5;" width="80" x="1004" y="483"/><text fill="#172033" font-family="'Hiragino Sans'" font-size="12" lengthAdjust="spacing" textLength="60" x="1014" y="509.56">&#22312;&#24235;&#12434;&#30906;&#20445;</text><text fill="#172033" font-family="'Hiragino Sans'" font-size="12" lengthAdjust="spacing" textLength="42.852" x="1014" y="527.56">&#12391;&#12365;&#12383;?</text></g><!--entity INVENTORY_READY--><g class="entity" data-qualified-name="PRE.INVENTORY_READY" data-source-line="31" id="ent0009"><rect fill="#E8F3FF" height="38" rx="5" ry="5" style="stroke:#2563EB;stroke-width:0.5;" width="92" x="925" y="846"/><text fill="#172033" font-family="'Hiragino Sans'" font-size="12" lengthAdjust="spacing" textLength="72" x="935" y="872.56">&#22312;&#24235;&#30906;&#20445;&#23436;&#20102;</text></g><!--entity FRAUD--><g class="entity" data-qualified-name="PRE.FRAUD" data-source-line="33" id="ent0010"><rect fill="#E8F3FF" height="56" rx="5" ry="5" style="stroke:#2563EB;stroke-width:0.5;" width="128" x="821" y="366"/><text fill="#172033" font-family="'Hiragino Sans'" font-size="12" lengthAdjust="spacing" textLength="108" x="831" y="392.56">&#19981;&#27491;&#26908;&#30693;&#12469;&#12540;&#12499;&#12473;&#12408;</text><text fill="#172033" font-family="'Hiragino Sans'" font-size="12" lengthAdjust="spacing" textLength="60" x="831" y="410.56">&#23529;&#26619;&#12434;&#20381;&#38972;</text></g><!--entity FRAUD_RESULT--><g class="entity" data-qualified-name="PRE.FRAUD_RESULT" data-source-line="34" id="ent0011"><rect fill="#FFF7D6" height="38" rx="5" ry="5" style="stroke:#2563EB;stroke-width:0.5;" width="68" x="901" y="492"/><text fill="#172033" font-family="'Hiragino Sans'" font-size="12" lengthAdjust="spacing" textLength="48" x="911" y="518.56">&#23529;&#26619;&#32080;&#26524;</text></g><!--entity MANUAL--><g class="entity" data-qualified-name="PRE.MANUAL" data-source-line="35" id="ent0012"><rect fill="#E8F3FF" height="38" rx="5" ry="5" style="stroke:#2563EB;stroke-width:0.5;" width="116" x="892" y="616"/><text fill="#172033" font-family="'Hiragino Sans'" font-size="12" lengthAdjust="spacing" textLength="96" x="902" y="642.56">&#25285;&#24403;&#32773;&#12364;&#25163;&#21205;&#23529;&#26619;</text></g><!--entity MANUAL_RESULT--><g class="entity" data-qualified-name="PRE.MANUAL_RESULT" data-source-line="36" id="ent0013"><rect fill="#FFF7D6" height="38" rx="5" ry="5" style="stroke:#2563EB;stroke-width:0.5;" width="92" x="904" y="731"/><text fill="#172033" font-family="'Hiragino Sans'" font-size="12" lengthAdjust="spacing" textLength="72" x="914" y="757.56">&#25163;&#21205;&#23529;&#26619;&#32080;&#26524;</text></g><!--entity FRAUD_OK--><g class="entity" data-qualified-name="PRE.FRAUD_OK" data-source-line="37" id="ent0014"><rect fill="#E8F3FF" height="38" rx="5" ry="5" style="stroke:#2563EB;stroke-width:0.5;" width="68" x="822" y="846"/><text fill="#172033" font-family="'Hiragino Sans'" font-size="12" lengthAdjust="spacing" textLength="48" x="832" y="872.56">&#23529;&#26619;&#36890;&#36942;</text></g><!--entity READY--><g class="entity" data-qualified-name="PRE.READY" data-source-line="39" id="ent0015"><rect fill="#E6F7ED" height="56" rx="5" ry="5" style="stroke:#2563EB;stroke-width:0.5;" width="131.864" x="821.07" y="945"/><text fill="#172033" font-family="'Hiragino Sans'" font-size="12" lengthAdjust="spacing" textLength="51.384" x="831.07" y="971.56">AND&#21512;&#27969;</text><text fill="#172033" font-family="'Hiragino Sans'" font-size="12" lengthAdjust="spacing" textLength="111.864" x="831.07" y="989.56">&#22312;&#24235;&#30906;&#20445; + &#23529;&#26619;&#36890;&#36942;</text></g><!--entity PAYMENT--><g class="entity" data-qualified-name="COMMIT.PAYMENT" data-source-line="59" id="ent0031"><rect fill="#E8F3FF" height="56" rx="5" ry="5" style="stroke:#2563EB;stroke-width:0.5;" width="104" x="677" y="1119"/><text fill="#172033" font-family="'Hiragino Sans'" font-size="12" lengthAdjust="spacing" textLength="84" x="687" y="1145.56">&#27770;&#28168;&#12469;&#12540;&#12499;&#12473;&#12408;</text><text fill="#172033" font-family="'Hiragino Sans'" font-size="12" lengthAdjust="spacing" textLength="60" x="687" y="1163.56">&#27770;&#28168;&#12434;&#20381;&#38972;</text></g><!--entity PAYMENT_RESULT--><g class="entity" data-qualified-name="COMMIT.PAYMENT_RESULT" data-source-line="60" id="ent0032"><rect fill="#FFF7D6" height="38" rx="5" ry="5" style="stroke:#2563EB;stroke-width:0.5;" width="74.852" x="683.57" y="1252"/><text fill="#172033" font-family="'Hiragino Sans'" font-size="12" lengthAdjust="spacing" textLength="54.852" x="693.57" y="1278.56">&#27770;&#28168;&#25104;&#21151;?</text></g><!--entity SAVE--><g class="entity" data-qualified-name="COMMIT.SAVE" data-source-line="61" id="ent0033"><rect fill="#E8F3FF" height="38" rx="5" ry="5" style="stroke:#2563EB;stroke-width:0.5;" width="157.64" x="642.18" y="1367"/><text fill="#172033" font-family="'Hiragino Sans'" font-size="12" lengthAdjust="spacing" textLength="137.64" x="652.18" y="1393.56">&#27880;&#25991;DB&#12408;&#30906;&#23450;&#27880;&#25991;&#12434;&#20445;&#23384;</text></g><!--entity SAVE_RESULT--><g class="entity" data-qualified-name="COMMIT.SAVE_RESULT" data-source-line="62" id="ent0034"><rect fill="#FFF7D6" height="38" rx="5" ry="5" style="stroke:#2563EB;stroke-width:0.5;" width="98.852" x="676.57" y="1466"/><text fill="#172033" font-family="'Hiragino Sans'" font-size="12" lengthAdjust="spacing" textLength="78.852" x="686.57" y="1492.56">&#27880;&#25991;&#20445;&#23384;&#25104;&#21151;?</text></g><!--entity RESPOND--><g class="entity" data-qualified-name="COMMIT.RESPOND" data-source-line="63" id="ent0035"><rect fill="#E8F3FF" height="38" rx="5" ry="5" style="stroke:#2563EB;stroke-width:0.5;" width="166.88" x="633.56" y="1620"/><text fill="#172033" font-family="'Hiragino Sans'" font-size="12" lengthAdjust="spacing" textLength="146.88" x="643.56" y="1646.56">&#27880;&#25991;&#25104;&#21151;&#12434;Web&#30011;&#38754;&#12408;&#36820;&#12377;</text></g><!--entity ASYNC--><g class="entity" data-qualified-name="AFTER.ASYNC" data-source-line="72" id="ent0041"><rect fill="#F3EFFF" height="38" rx="5" ry="5" style="stroke:#2563EB;stroke-width:0.5;" width="116" x="356" y="1620"/><text fill="#172033" font-family="'Hiragino Sans'" font-size="12" lengthAdjust="spacing" textLength="96" x="366" y="1646.56">&#38750;&#21516;&#26399;&#20966;&#29702;&#12434;&#38283;&#22987;</text></g><!--entity SHIP--><g class="entity" data-qualified-name="AFTER.SHIP" data-source-line="73" id="ent0042"><rect fill="#F3EFFF" height="56" rx="5" ry="5" style="stroke:#2563EB;stroke-width:0.5;" width="104" x="223" y="1753"/><text fill="#172033" font-family="'Hiragino Sans'" font-size="12" lengthAdjust="spacing" textLength="84" x="233" y="1779.56">&#37197;&#36865;&#12469;&#12540;&#12499;&#12473;&#12408;</text><text fill="#172033" font-family="'Hiragino Sans'" font-size="12" lengthAdjust="spacing" textLength="60" x="233" y="1797.56">&#37197;&#36865;&#12434;&#20381;&#38972;</text></g><!--entity SHIP_RESULT--><g class="entity" data-qualified-name="AFTER.SHIP_RESULT" data-source-line="74" id="ent0043"><rect fill="#FFF7D6" height="38" rx="5" ry="5" style="stroke:#2563EB;stroke-width:0.5;" width="98.852" x="161.57" y="1870"/><text fill="#172033" font-family="'Hiragino Sans'" font-size="12" lengthAdjust="spacing" textLength="78.852" x="171.57" y="1896.56">&#37197;&#36865;&#20381;&#38972;&#25104;&#21151;?</text></g><!--entity SHIP_DONE--><g class="entity" data-qualified-name="AFTER.SHIP_DONE" data-source-line="75" id="ent0044"><rect fill="#F3EFFF" height="38" rx="5" ry="5" style="stroke:#2563EB;stroke-width:0.5;" width="92" x="31" y="2012"/><text fill="#172033" font-family="'Hiragino Sans'" font-size="12" lengthAdjust="spacing" textLength="72" x="41" y="2038.56">&#37197;&#36865;&#25163;&#37197;&#23436;&#20102;</text></g><!--entity OPS--><g class="entity" data-qualified-name="AFTER.OPS" data-source-line="76" id="ent0045"><rect fill="#F3EFFF" height="56" rx="5" ry="5" style="stroke:#2563EB;stroke-width:0.5;" width="92" x="158" y="2003"/><text fill="#172033" font-family="'Hiragino Sans'" font-size="12" lengthAdjust="spacing" textLength="72" x="168" y="2029.56">&#36939;&#29992;&#25285;&#24403;&#32773;&#12408;</text><text fill="#172033" font-family="'Hiragino Sans'" font-size="12" lengthAdjust="spacing" textLength="60" x="168" y="2047.56">&#23550;&#24540;&#12434;&#20381;&#38972;</text></g><!--entity NOTIFY--><g class="entity" data-qualified-name="AFTER.NOTIFY" data-source-line="77" id="ent0046"><rect fill="#F3EFFF" height="56" rx="5" ry="5" style="stroke:#2563EB;stroke-width:0.5;" width="104" x="362" y="1753"/><text fill="#172033" font-family="'Hiragino Sans'" font-size="12" lengthAdjust="spacing" textLength="84" x="372" y="1779.56">&#36890;&#30693;&#12469;&#12540;&#12499;&#12473;&#12408;</text><text fill="#172033" font-family="'Hiragino Sans'" font-size="12" lengthAdjust="spacing" textLength="84" x="372" y="1797.56">&#30906;&#35469;&#36890;&#30693;&#12434;&#20381;&#38972;</text></g><!--entity NOTIFY_RESULT--><g class="entity" data-qualified-name="AFTER.NOTIFY_RESULT" data-source-line="78" id="ent0047"><rect fill="#FFF7D6" height="38" rx="5" ry="5" style="stroke:#2563EB;stroke-width:0.5;" width="74.852" x="406.57" y="1870"/><text fill="#172033" font-family="'Hiragino Sans'" font-size="12" lengthAdjust="spacing" textLength="54.852" x="416.57" y="1896.56">&#36890;&#30693;&#25104;&#21151;?</text></g><!--entity NOTIFY_DONE--><g class="entity" data-qualified-name="AFTER.NOTIFY_DONE" data-source-line="79" id="ent0048"><rect fill="#F3EFFF" height="38" rx="5" ry="5" style="stroke:#2563EB;stroke-width:0.5;" width="68" x="436" y="2012"/><text fill="#172033" font-family="'Hiragino Sans'" font-size="12" lengthAdjust="spacing" textLength="48" x="446" y="2038.56">&#36890;&#30693;&#23436;&#20102;</text></g><!--entity NOTIFY_QUEUE--><g class="entity" data-qualified-name="AFTER.NOTIFY_QUEUE" data-source-line="80" id="ent0049"><rect fill="#F3EFFF" height="38" rx="5" ry="5" style="stroke:#2563EB;stroke-width:0.5;" width="116" x="285" y="2012"/><text fill="#172033" font-family="'Hiragino Sans'" font-size="12" lengthAdjust="spacing" textLength="96" x="295" y="2038.56">&#36890;&#30693;&#12461;&#12517;&#12540;&#12408;&#30331;&#37682;</text></g><!--entity CANCEL--><g class="entity" data-qualified-name="COMP.CANCEL" data-source-line="98" id="ent0063"><rect fill="#FDECEC" height="38" rx="5" ry="5" style="stroke:#2563EB;stroke-width:0.5;" width="80" x="1090" y="1620"/><text fill="#172033" font-family="'Hiragino Sans'" font-size="12" lengthAdjust="spacing" textLength="60" x="1100" y="1646.56">&#27880;&#25991;&#12434;&#20013;&#27490;</text></g><!--entity REFUND--><g class="entity" data-qualified-name="COMP.REFUND" data-source-line="99" id="ent0064"><rect fill="#FDECEC" height="38" rx="5" ry="5" style="stroke:#2563EB;stroke-width:0.5;" width="140" x="915" y="1620"/><text fill="#172033" font-family="'Hiragino Sans'" font-size="12" lengthAdjust="spacing" textLength="120" x="925" y="1646.56">&#27770;&#28168;&#12434;&#21462;&#28040;&#12414;&#12383;&#12399;&#36820;&#37329;</text></g><!--entity RELEASE--><g class="entity" data-qualified-name="COMP.RELEASE" data-source-line="100" id="ent0065"><rect fill="#FDECEC" height="38" rx="5" ry="5" style="stroke:#2563EB;stroke-width:0.5;" width="128" x="936" y="1762"/><text fill="#172033" font-family="'Hiragino Sans'" font-size="12" lengthAdjust="spacing" textLength="108" x="946" y="1788.56">&#24341;&#24403;&#28168;&#12415;&#22312;&#24235;&#12434;&#35299;&#25918;</text></g><!--entity ORDER_FAIL--><g class="entity" data-qualified-name="COMP.ORDER_FAIL" data-source-line="101" id="ent0066"><rect fill="#FDECEC" height="38" rx="5" ry="5" style="stroke:#2563EB;stroke-width:0.5;" width="166.88" x="959.56" y="1870"/><text fill="#172033" font-family="'Hiragino Sans'" font-size="12" lengthAdjust="spacing" textLength="146.88" x="969.56" y="1896.56">&#27880;&#25991;&#22833;&#25943;&#12434;Web&#30011;&#38754;&#12408;&#36820;&#12377;</text></g><!--link START to API--><g class="link" data-entity-1="ent0002" data-entity-2="ent0003" data-link-type="dependency" data-source-line="23" id="lnk4"><path d="M961,82.24 C961,99.48 961,120.19 961,137.51" fill="none" id="START-to-API" style="stroke:#52606D;stroke-width:1;"/><polygon fill="#52606D" points="961,142.51,965,133.51,961,137.51,957,133.51,961,142.51" style="stroke:#52606D;stroke-width:1;stroke-linejoin:miter;stroke-miterlimit:10;"/></g><!--link FORK to INVENTORY--><g class="link" data-entity-1="ent0006" data-entity-2="ent0007" data-link-type="dependency" data-source-line="41" id="lnk16"><path d="M974.06,305.46 C985.82,322.07 1000.3534,342.6074 1013.7234,361.5174" fill="none" id="FORK-to-INVENTORY" style="stroke:#52606D;stroke-width:1;"/><polygon fill="#52606D" points="1016.61,365.6,1014.6803,355.942,1013.7234,361.5174,1008.1481,360.5605,1016.61,365.6" style="stroke:#52606D;stroke-width:1;stroke-linejoin:miter;stroke-miterlimit:10;"/></g><!--link FORK to FRAUD--><g class="link" data-entity-1="ent0006" data-entity-2="ent0010" data-link-type="dependency" data-source-line="42" id="lnk17"><path d="M947.76,305.46 C935.85,322.07 921.1123,342.6257 907.5623,361.5357" fill="none" id="FORK-to-FRAUD" style="stroke:#52606D;stroke-width:1;"/><polygon fill="#52606D" points="904.65,365.6,913.1436,360.6141,907.5623,361.5357,906.6407,355.9544,904.65,365.6" style="stroke:#52606D;stroke-width:1;stroke-linejoin:miter;stroke-miterlimit:10;"/></g><!--link INVENTORY to INVENTORY_RESULT--><g class="link" data-entity-1="ent0007" data-entity-2="ent0008" data-link-type="dependency" data-source-line="43" id="lnk18"><path d="M1037.9,422.25 C1039.16,440.45 1040.4727,459.3121 1041.7427,477.5521" fill="none" id="INVENTORY-to-INVENTORY_RESULT" style="stroke:#52606D;stroke-width:1;"/><polygon fill="#52606D" points="1042.09,482.54,1045.4552,473.2839,1041.7427,477.5521,1037.4745,473.8396,1042.09,482.54" style="stroke:#52606D;stroke-width:1;stroke-linejoin:miter;stroke-miterlimit:10;"/></g><!--link INVENTORY_RESULT to INVENTORY_READY--><g class="link" data-entity-1="ent0008" data-entity-2="ent0009" data-link-type="dependency" data-source-line="44" id="lnk19"><path d="M1043.56,539.16 C1042.2,586.63 1036.64,687.41 1014,769 C1006.26,796.91 993.7708,822.6378 983.7108,841.3178" fill="none" id="INVENTORY_RESULT-to-INVENTORY_READY" style="stroke:#52606D;stroke-width:1;"/><polygon fill="#52606D" points="981.34,845.72,989.1292,839.6927,983.7108,841.3178,982.0856,835.8994,981.34,845.72" style="stroke:#52606D;stroke-width:1;stroke-linejoin:miter;stroke-miterlimit:10;"/><text fill="#364152" font-family="'Hiragino Sans'" font-size="10" lengthAdjust="spacing" textLength="20" x="1032.06" y="698.8">&#12399;&#12356;</text></g><!--link FRAUD to FRAUD_RESULT--><g class="link" data-entity-1="ent0010" data-entity-2="ent0011" data-link-type="dependency" data-source-line="45" id="lnk20"><path d="M896.85,422.25 C906.15,443.64 916.8462,468.2447 924.9862,486.9647" fill="none" id="FRAUD-to-FRAUD_RESULT" style="stroke:#52606D;stroke-width:1;"/><polygon fill="#52606D" points="926.98,491.55,927.0594,481.7015,924.9862,486.9647,919.7229,484.8916,926.98,491.55" style="stroke:#52606D;stroke-width:1;stroke-linejoin:miter;stroke-miterlimit:10;"/></g><!--link FRAUD_RESULT to FRAUD_OK--><g class="link" data-entity-1="ent0011" data-entity-2="ent0014" data-link-type="dependency" data-source-line="46" id="lnk21"><path d="M920.97,530.35 C906.62,550.25 885.04,583.54 875,616 C849.42,698.72 851.9695,798.9984 854.3995,840.7584" fill="none" id="FRAUD_RESULT-to-FRAUD_OK" style="stroke:#52606D;stroke-width:1;"/><polygon fill="#52606D" points="854.69,845.75,858.1604,836.5328,854.3995,840.7584,850.1739,836.9976,854.69,845.75" style="stroke:#52606D;stroke-width:1;stroke-linejoin:miter;stroke-miterlimit:10;"/><text fill="#364152" font-family="'Hiragino Sans'" font-size="10" lengthAdjust="spacing" textLength="20" x="861.11" y="698.8">&#25215;&#35469;</text></g><!--link FRAUD_RESULT to MANUAL--><g class="link" data-entity-1="ent0011" data-entity-2="ent0012" data-link-type="dependency" data-source-line="47" id="lnk22"><path d="M937.25,530.26 C940.07,553.26 944.2888,587.5875 947.1288,610.6475" fill="none" id="FRAUD_RESULT-to-MANUAL" style="stroke:#52606D;stroke-width:1;"/><polygon fill="#52606D" points="947.74,615.61,950.6099,606.1886,947.1288,610.6475,942.6699,607.1664,947.74,615.61" style="stroke:#52606D;stroke-width:1;stroke-linejoin:miter;stroke-miterlimit:10;"/><text fill="#364152" font-family="'Hiragino Sans'" font-size="10" lengthAdjust="spacing" textLength="30" x="944.84" y="583.8">&#35201;&#30906;&#35469;</text></g><!--link MANUAL to MANUAL_RESULT--><g class="link" data-entity-1="ent0012" data-entity-2="ent0013" data-link-type="dependency" data-source-line="48" id="lnk23"><path d="M950,654.41 C950,675.42 950,704.59 950,725.6" fill="none" id="MANUAL-to-MANUAL_RESULT" style="stroke:#52606D;stroke-width:1;"/><polygon fill="#52606D" points="950,730.6,954,721.6,950,725.6,946,721.6,950,730.6" style="stroke:#52606D;stroke-width:1;stroke-linejoin:miter;stroke-miterlimit:10;"/></g><!--link MANUAL_RESULT to FRAUD_OK--><g class="link" data-entity-1="ent0013" data-entity-2="ent0014" data-link-type="dependency" data-source-line="49" id="lnk24"><path d="M934.69,769.41 C917.21,790.42 891.9768,820.7454 874.5068,841.7554" fill="none" id="MANUAL_RESULT-to-FRAUD_OK" style="stroke:#52606D;stroke-width:1;"/><polygon fill="#52606D" points="871.31,845.6,880.1398,841.2372,874.5068,841.7554,873.9886,836.1224,871.31,845.6" style="stroke:#52606D;stroke-width:1;stroke-linejoin:miter;stroke-miterlimit:10;"/><text fill="#364152" font-family="'Hiragino Sans'" font-size="10" lengthAdjust="spacing" textLength="20" x="909.63" y="813.8">&#25215;&#35469;</text></g><!--link INVENTORY_READY to READY--><g class="link" data-entity-1="ent0009" data-entity-2="ent0015" data-link-type="dependency" data-source-line="50" id="lnk25"><path d="M956.37,884.46 C943.21,901.07 926.7947,921.7707 911.8147,940.6807" fill="none" id="INVENTORY_READY-to-READY" style="stroke:#52606D;stroke-width:1;"/><polygon fill="#52606D" points="908.71,944.6,917.4339,940.0291,911.8147,940.6807,911.1631,935.0615,908.71,944.6" style="stroke:#52606D;stroke-width:1;stroke-linejoin:miter;stroke-miterlimit:10;"/></g><!--link FRAUD_OK to READY--><g class="link" data-entity-1="ent0014" data-entity-2="ent0015" data-link-type="dependency" data-source-line="51" id="lnk26"><path d="M861.4,884.46 C866.26,901.07 872.0566,920.891 877.5866,939.801" fill="none" id="FRAUD_OK-to-READY" style="stroke:#52606D;stroke-width:1;"/><polygon fill="#52606D" points="878.99,944.6,880.3031,934.8391,877.5866,939.801,872.6247,937.0845,878.99,944.6" style="stroke:#52606D;stroke-width:1;stroke-linejoin:miter;stroke-miterlimit:10;"/></g><!--link INVENTORY to FRAUD--><!--link INVENTORY_RESULT to FRAUD_RESULT--><!--link INVENTORY_READY to FRAUD_OK--><!--link PAYMENT to PAYMENT_RESULT--><g class="link" data-entity-1="ent0031" data-entity-2="ent0032" data-link-type="dependency" data-source-line="65" id="lnk36"><path d="M727.2,1175.38 C725.68,1198.7 723.848,1226.5708 722.518,1246.8008" fill="none" id="PAYMENT-to-PAYMENT_RESULT" style="stroke:#52606D;stroke-width:1;"/><polygon fill="#52606D" points="722.19,1251.79,726.7718,1243.0718,722.518,1246.8008,718.789,1242.547,722.19,1251.79" style="stroke:#52606D;stroke-width:1;stroke-linejoin:miter;stroke-miterlimit:10;"/></g><!--link PAYMENT_RESULT to SAVE--><g class="link" data-entity-1="ent0032" data-entity-2="ent0033" data-link-type="dependency" data-source-line="66" id="lnk37"><path d="M721,1290.41 C721,1311.42 721,1340.59 721,1361.6" fill="none" id="PAYMENT_RESULT-to-SAVE" style="stroke:#52606D;stroke-width:1;"/><polygon fill="#52606D" points="721,1366.6,725,1357.6,721,1361.6,717,1357.6,721,1366.6" style="stroke:#52606D;stroke-width:1;stroke-linejoin:miter;stroke-miterlimit:10;"/><text fill="#364152" font-family="'Hiragino Sans'" font-size="10" lengthAdjust="spacing" textLength="20" x="722" y="1334.8">&#25104;&#21151;</text></g><!--link SAVE to SAVE_RESULT--><g class="link" data-entity-1="ent0033" data-entity-2="ent0034" data-link-type="dependency" data-source-line="67" id="lnk38"><path d="M721.94,1405.24 C722.83,1422.48 723.8905,1443.1967 724.7905,1460.5167" fill="none" id="SAVE-to-SAVE_RESULT" style="stroke:#52606D;stroke-width:1;"/><polygon fill="#52606D" points="725.05,1465.51,728.5776,1456.3146,724.7905,1460.5167,720.5884,1456.7297,725.05,1465.51" style="stroke:#52606D;stroke-width:1;stroke-linejoin:miter;stroke-miterlimit:10;"/></g><!--link SAVE_RESULT to RESPOND--><g class="link" data-entity-1="ent0034" data-entity-2="ent0035" data-link-type="dependency" data-source-line="68" id="lnk39"><path d="M724.91,1504.33 C723.18,1533.55 720.1151,1585.3487 718.3851,1614.6087" fill="none" id="SAVE_RESULT-to-RESPOND" style="stroke:#52606D;stroke-width:1;"/><polygon fill="#52606D" points="718.09,1619.6,722.6142,1610.8518,718.3851,1614.6087,714.6282,1610.3796,718.09,1619.6" style="stroke:#52606D;stroke-width:1;stroke-linejoin:miter;stroke-miterlimit:10;"/><text fill="#364152" font-family="'Hiragino Sans'" font-size="10" lengthAdjust="spacing" textLength="20" x="724.09" y="1548.8">&#25104;&#21151;</text></g><!--link ASYNC to SHIP--><g class="link" data-entity-1="ent0041" data-entity-2="ent0042" data-link-type="dependency" data-source-line="82" id="lnk50"><path d="M395.83,1658.3 C371.99,1682.32 333.4521,1721.1211 305.7921,1748.9911" fill="none" id="ASYNC-to-SHIP" style="stroke:#52606D;stroke-width:1;"/><polygon fill="#52606D" points="302.27,1752.54,311.449,1748.9697,305.7921,1748.9911,305.7707,1743.3343,302.27,1752.54" style="stroke:#52606D;stroke-width:1;stroke-linejoin:miter;stroke-miterlimit:10;"/></g><!--link ASYNC to NOTIFY--><g class="link" data-entity-1="ent0041" data-entity-2="ent0046" data-link-type="dependency" data-source-line="83" id="lnk51"><path d="M414,1658.3 C414,1682.32 414,1719.67 414,1747.54" fill="none" id="ASYNC-to-NOTIFY" style="stroke:#52606D;stroke-width:1;"/><polygon fill="#52606D" points="414,1752.54,418,1743.54,414,1747.54,410,1743.54,414,1752.54" style="stroke:#52606D;stroke-width:1;stroke-linejoin:miter;stroke-miterlimit:10;"/></g><!--link SHIP to SHIP_RESULT--><g class="link" data-entity-1="ent0042" data-entity-2="ent0043" data-link-type="dependency" data-source-line="84" id="lnk52"><path d="M258.52,1809.3 C247.04,1828.31 234.625,1848.87 224.575,1865.51" fill="none" id="SHIP-to-SHIP_RESULT" style="stroke:#52606D;stroke-width:1;"/><polygon fill="#52606D" points="221.99,1869.79,230.0669,1864.154,224.575,1865.51,223.2189,1860.0181,221.99,1869.79" style="stroke:#52606D;stroke-width:1;stroke-linejoin:miter;stroke-miterlimit:10;"/></g><!--link SHIP_RESULT to SHIP_DONE--><g class="link" data-entity-1="ent0043" data-entity-2="ent0044" data-link-type="dependency" data-source-line="85" id="lnk53"><path d="M193.48,1908.3 C167.8,1935.13 123.668,1981.2486 97.978,2008.0786" fill="none" id="SHIP_RESULT-to-SHIP_DONE" style="stroke:#52606D;stroke-width:1;"/><polygon fill="#52606D" points="94.52,2011.69,103.6335,2007.9558,97.978,2008.0786,97.8552,2002.4231,94.52,2011.69" style="stroke:#52606D;stroke-width:1;stroke-linejoin:miter;stroke-miterlimit:10;"/><text fill="#364152" font-family="'Hiragino Sans'" font-size="10" lengthAdjust="spacing" textLength="20" x="145" y="1970.8">&#25104;&#21151;</text></g><!--link SHIP_RESULT to OPS--><g class="link" data-entity-1="ent0043" data-entity-2="ent0045" data-link-type="dependency" data-source-line="86" id="lnk54"><path d="M210.08,1908.3 C208.88,1932.32 207.0208,1969.6763 205.6208,1997.5463" fill="none" id="SHIP_RESULT-to-OPS" style="stroke:#52606D;stroke-width:1;"/><polygon fill="#52606D" points="205.37,2002.54,209.8165,1993.752,205.6208,1997.5463,201.8266,1993.3507,205.37,2002.54" style="stroke:#52606D;stroke-width:1;stroke-linejoin:miter;stroke-miterlimit:10;"/><text fill="#364152" font-family="'Hiragino Sans'" font-size="10" lengthAdjust="spacing" textLength="20" x="208.5" y="1970.8">&#22833;&#25943;</text></g><!--link NOTIFY to NOTIFY_RESULT--><g class="link" data-entity-1="ent0046" data-entity-2="ent0047" data-link-type="dependency" data-source-line="87" id="lnk55"><path d="M421.73,1809.3 C427.11,1828.31 432.7782,1848.339 437.4882,1864.979" fill="none" id="NOTIFY-to-NOTIFY_RESULT" style="stroke:#52606D;stroke-width:1;"/><polygon fill="#52606D" points="438.85,1869.79,440.2476,1860.0408,437.4882,1864.979,432.55,1862.2196,438.85,1869.79" style="stroke:#52606D;stroke-width:1;stroke-linejoin:miter;stroke-miterlimit:10;"/></g><!--link NOTIFY_RESULT to NOTIFY_DONE--><g class="link" data-entity-1="ent0047" data-entity-2="ent0048" data-link-type="dependency" data-source-line="88" id="lnk56"><path d="M447.4,1908.3 C452.38,1935.13 460.7075,1979.944 465.6875,2006.774" fill="none" id="NOTIFY_RESULT-to-NOTIFY_DONE" style="stroke:#52606D;stroke-width:1;"/><polygon fill="#52606D" points="466.6,2011.69,468.8904,2002.1112,465.6875,2006.774,461.0247,2003.5711,466.6,2011.69" style="stroke:#52606D;stroke-width:1;stroke-linejoin:miter;stroke-miterlimit:10;"/><text fill="#364152" font-family="'Hiragino Sans'" font-size="10" lengthAdjust="spacing" textLength="20" x="460.33" y="1970.8">&#25104;&#21151;</text></g><!--link NOTIFY_RESULT to NOTIFY_QUEUE--><g class="link" data-entity-1="ent0047" data-entity-2="ent0049" data-link-type="dependency" data-source-line="89" id="lnk57"><path d="M430.8,1908.3 C411.44,1935.13 378.4957,1980.8054 359.1357,2007.6354" fill="none" id="NOTIFY_RESULT-to-NOTIFY_QUEUE" style="stroke:#52606D;stroke-width:1;"/><polygon fill="#52606D" points="356.21,2011.69,364.72,2006.7323,359.1357,2007.6354,358.2326,2002.0511,356.21,2011.69" style="stroke:#52606D;stroke-width:1;stroke-linejoin:miter;stroke-miterlimit:10;"/><text fill="#364152" font-family="'Hiragino Sans'" font-size="10" lengthAdjust="spacing" textLength="20" x="394.5" y="1970.8">&#22833;&#25943;</text></g><!--link NOTIFY_QUEUE to NOTIFY--><g class="link" data-entity-1="ent0049" data-entity-2="ent0046" data-link-type="dependency" data-source-line="90" id="lnk58"><path d="M341.79,2011.66 C340.39,1981.29 340.14,1919.05 357,1870 C364.57,1847.97 375.8223,1829.9717 388.1823,1813.4717" fill="none" id="NOTIFY_QUEUE-to-NOTIFY" style="stroke:#52606D;stroke-width:1;stroke-dasharray:7,7;"/><polygon fill="#52606D" points="391.18,1809.47,382.5828,1814.275,388.1823,1813.4717,388.9856,1819.0713,391.18,1809.47" style="stroke:#52606D;stroke-width:1;stroke-linejoin:miter;stroke-miterlimit:10;"/><text fill="#364152" font-family="'Hiragino Sans'" font-size="10" lengthAdjust="spacing" textLength="30" x="358" y="1895.3">&#20877;&#35430;&#34892;</text></g><!--link SHIP to NOTIFY--><!--link SHIP_RESULT to NOTIFY_RESULT--><!--link SHIP_DONE to NOTIFY_DONE--><!--link CANCEL to RELEASE--><g class="link" data-entity-1="ent0063" data-entity-2="ent0065" data-link-type="dependency" data-source-line="102" id="lnk67"><path d="M1113,1658.3 C1088.09,1685.13 1045.3227,1731.1965 1020.4027,1758.0265" fill="none" id="CANCEL-to-RELEASE" style="stroke:#52606D;stroke-width:1;stroke-dasharray:7,7;"/><polygon fill="#52606D" points="1017,1761.69,1026.0557,1757.8178,1020.4027,1758.0265,1020.1941,1752.3735,1017,1761.69" style="stroke:#52606D;stroke-width:1;stroke-linejoin:miter;stroke-miterlimit:10;"/><text fill="#364152" font-family="'Hiragino Sans'" font-size="10" lengthAdjust="spacing" textLength="70" x="1066" y="1720.8">&#24517;&#35201;&#12394;&#22580;&#21512;&#12384;&#12369;</text></g><!--link REFUND to RELEASE--><g class="link" data-entity-1="ent0064" data-entity-2="ent0065" data-link-type="dependency" data-source-line="103" id="lnk68"><path d="M986.96,1658.3 C989.84,1685.13 994.6264,1729.8886 997.5064,1756.7186" fill="none" id="REFUND-to-RELEASE" style="stroke:#52606D;stroke-width:1;stroke-dasharray:7,7;"/><polygon fill="#52606D" points="998.04,1761.69,1001.0566,1752.3145,997.5064,1756.7186,993.1023,1753.1683,998.04,1761.69" style="stroke:#52606D;stroke-width:1;stroke-linejoin:miter;stroke-miterlimit:10;"/></g><!--link RELEASE to ORDER_FAIL--><g class="link" data-entity-1="ent0065" data-entity-2="ent0066" data-link-type="dependency" data-source-line="104" id="lnk69"><path d="M1007.49,1800.46 C1015.38,1819.92 1025.8608,1845.7366 1033.7208,1865.1166" fill="none" id="RELEASE-to-ORDER_FAIL" style="stroke:#52606D;stroke-width:1;"/><polygon fill="#52606D" points="1035.6,1869.75,1035.9242,1859.9065,1033.7208,1865.1166,1028.5107,1862.9132,1035.6,1869.75" style="stroke:#52606D;stroke-width:1;stroke-linejoin:miter;stroke-miterlimit:10;"/></g><!--link CANCEL to REFUND--><!--link API to FORK--><g class="link" data-entity-1="ent0003" data-entity-2="ent0006" data-link-type="dependency" data-source-line="108" id="lnk71"><path d="M961,181.26 C961,204.26 961,238.55 961,261.61" fill="none" id="API-to-FORK" style="stroke:#52606D;stroke-width:1;"/><polygon fill="#52606D" points="961,266.61,965,257.61,961,261.61,957,257.61,961,266.61" style="stroke:#52606D;stroke-width:1;stroke-linejoin:miter;stroke-miterlimit:10;"/></g><!--link READY to PAYMENT--><g class="link" data-entity-1="ent0015" data-entity-2="ent0031" data-link-type="dependency" data-source-line="109" id="lnk72"><path d="M848.15,1001.35 C827.97,1016.65 803.7,1036.87 785,1058 C768.56,1076.58 756.139,1096.1265 745.859,1114.3265" fill="none" id="READY-to-PAYMENT" style="stroke:#52606D;stroke-width:1;"/><polygon fill="#52606D" points="743.4,1118.68,751.3091,1112.8109,745.859,1114.3265,744.3434,1108.8764,743.4,1118.68" style="stroke:#52606D;stroke-width:1;stroke-linejoin:miter;stroke-miterlimit:10;"/></g><!--link SAVE_RESULT to ASYNC--><g class="link" data-entity-1="ent0034" data-entity-2="ent0041" data-link-type="dependency" data-source-line="110" id="lnk73"><path d="M676.33,1496.7 C613.26,1510.93 508.72,1536.86 476,1559 C452.89,1574.63 436.9815,1597.2682 426.4015,1615.2882" fill="none" id="SAVE_RESULT-to-ASYNC" style="stroke:#52606D;stroke-width:1;stroke-dasharray:7,7;"/><polygon fill="#52606D" points="423.87,1619.6,431.8762,1613.8641,426.4015,1615.2882,424.9774,1609.8136,423.87,1619.6" style="stroke:#52606D;stroke-width:1;stroke-linejoin:miter;stroke-miterlimit:10;"/><text fill="#364152" font-family="'Hiragino Sans'" font-size="10" lengthAdjust="spacing" textLength="50" x="533.22" y="1548.8">&#27880;&#25991;&#30906;&#23450;&#24460;</text></g><!--link INVENTORY_RESULT to ORDER_FAIL--><g class="link" data-entity-1="ent0008" data-entity-2="ent0066" data-link-type="dependency" data-source-line="111" id="lnk74"><path d="M1084.17,520.55 C1136.95,534.41 1223,567.25 1223,634 C1223,634 1223,634 1223,1782 C1223,1830.51 1178.6475,1855.7849 1131.7175,1870.2749" fill="none" id="INVENTORY_RESULT-to-ORDER_FAIL" style="stroke:#B42318;stroke-width:1;"/><polygon fill="#B42318" points="1126.94,1871.75,1136.7195,1872.9168,1131.7175,1870.2749,1134.3594,1865.2729,1126.94,1871.75" style="stroke:#B42318;stroke-width:1;stroke-linejoin:miter;stroke-miterlimit:10;"/><text fill="#364152" font-family="'Hiragino Sans'" font-size="10" lengthAdjust="spacing" textLength="30" x="1224" y="1219.8">&#12356;&#12356;&#12360;</text></g><!--link FRAUD_RESULT to CANCEL--><g class="link" data-entity-1="ent0011" data-entity-2="ent0063" data-link-type="dependency" data-source-line="112" id="lnk75"><path d="M969.48,530.43 C1028.12,562.04 1141,624.15 1141,634 C1141,634 1141,634 1141,1486 C1141,1534.42 1135.9398,1586.3214 1132.7298,1614.8114" fill="none" id="FRAUD_RESULT-to-CANCEL" style="stroke:#B42318;stroke-width:1;"/><polygon fill="#B42318" points="1132.17,1619.78,1137.1525,1611.2844,1132.7298,1614.8114,1129.2028,1610.3887,1132.17,1619.78" style="stroke:#B42318;stroke-width:1;stroke-linejoin:miter;stroke-miterlimit:10;"/><text fill="#364152" font-family="'Hiragino Sans'" font-size="10" lengthAdjust="spacing" textLength="20" x="1142" y="1047.8">&#25298;&#21542;</text></g><!--link MANUAL_RESULT to CANCEL--><g class="link" data-entity-1="ent0013" data-entity-2="ent0063" data-link-type="dependency" data-source-line="113" id="lnk76"><path d="M991.63,769.35 C1026.29,787.78 1070,819.79 1070,864 C1070,864 1070,864 1070,1486 C1070,1537.35 1097.308,1587.8502 1114.888,1615.5102" fill="none" id="MANUAL_RESULT-to-CANCEL" style="stroke:#B42318;stroke-width:1;"/><polygon fill="#B42318" points="1117.57,1619.73,1116.1182,1609.9887,1114.888,1615.5102,1109.3665,1614.2799,1117.57,1619.73" style="stroke:#B42318;stroke-width:1;stroke-linejoin:miter;stroke-miterlimit:10;"/><text fill="#364152" font-family="'Hiragino Sans'" font-size="10" lengthAdjust="spacing" textLength="20" x="1071" y="1219.8">&#25298;&#21542;</text></g><!--link PAYMENT_RESULT to RELEASE--><g class="link" data-entity-1="ent0032" data-entity-2="ent0065" data-link-type="dependency" data-source-line="114" id="lnk77"><path d="M683.11,1284.13 C641.65,1300.07 581,1332.37 581,1385 C581,1385 581,1385 581,1640 C581,1670.11 591.48,1680.53 616,1698 C666.66,1734.1 835.2799,1759.77 930.7799,1771.9" fill="none" id="PAYMENT_RESULT-to-RELEASE" style="stroke:#B42318;stroke-width:1;"/><polygon fill="#B42318" points="935.74,1772.53,927.3157,1767.4279,930.7799,1771.9,926.3077,1775.3641,935.74,1772.53" style="stroke:#B42318;stroke-width:1;stroke-linejoin:miter;stroke-miterlimit:10;"/><text fill="#364152" font-family="'Hiragino Sans'" font-size="10" lengthAdjust="spacing" textLength="20" x="582" y="1491.3">&#22833;&#25943;</text></g><!--link SAVE_RESULT to REFUND--><g class="link" data-entity-1="ent0034" data-entity-2="ent0064" data-link-type="dependency" data-source-line="115" id="lnk78"><path d="M775.62,1499.04 C814.63,1510.77 869.16,1530.57 911,1559 C935.71,1575.8 955.2198,1598.2381 968.7698,1615.8381" fill="none" id="SAVE_RESULT-to-REFUND" style="stroke:#B42318;stroke-width:1;"/><polygon fill="#B42318" points="971.82,1619.8,969.4992,1610.2285,968.7698,1615.8381,963.1602,1615.1088,971.82,1619.8" style="stroke:#B42318;stroke-width:1;stroke-linejoin:miter;stroke-miterlimit:10;"/><text fill="#364152" font-family="'Hiragino Sans'" font-size="10" lengthAdjust="spacing" textLength="20" x="898.45" y="1548.8">&#22833;&#25943;</text></g><!--link COMMIT to COMP--><!--link AFTER to COMP--><?plantuml-src ZLPjJzjM5FxkNs71nwaLII0WFcmoYQr6G9BbfHDQgyeGDqG56vbKg9icOTvPaZLbG5SK2eKMQ2TQTHk84KP-Z6Cd-TI_iFlYbsl7oOPGbDppFEVjddlEoKjpT5wY9wLyNfgbCpbPcChd996QVv8JvtYPdwKd-QadMLbwAcP2qemaqmlJkRn0oEUd-Ooqa1Epz6D-PfwK8DAK98k2JFlw2456UCm_dSbpafYFyhC2tNCl9_FPd2ZHILwSx_569dC_2BJFJmWPMPOMi5Ez0_vWNp3i5aAU0GW4-tq3VYy0LapwDmT2vhD2ClziHg1XHdWnEoEq0qOaEIF8XW5cA3J8CHwW_yYVfT-XpJyG3B0ZdZ2NlbvsY0jmd1UK2DytwEyB1CZCvlXPISmuG_05_Ns37Y2tIOxZ1iF1TY2PRyuVxcCeoiW2tUExI-j_dkcxwzhpb_NgRpqqFqz7eYbcbAL_f6ZRQRf7NJvHbs_KfKlugHGn2-6JAIQHSeAnb8b7BAIwj0LCgCeBO0Lygai5n0KGm4GQw3jtlaQ_VoByyrl-RPRqvsLz_qszUldbPgD-TT9yKzJMJnhbjIytcqXNFD7cD8QrTWlQARR7nHAZLgQSMArofbt_hYvTm02NVrMN_bQLgmUYThEZ_GD-RTLlzrk7DqQ6xhFHL2mnuQrXgt5qNQ_jFn1LvLHLIgfoy8sJzYZ19jDZASiH3orOXVQnMBzUQoCpuGdA7MX9Fp_MtrOQ1-_QG_ZqNZ-eEaFW4amwx3ACO8sBilwwOcEw-geNLa5ocekhy9ut2rfX1oj1z74cccR6N0G2H5Z2qEvfGPpMubvB-ONmBZRgoWGJ3Mlb3Vr20N4JcQI_ejiqe4I2fnha1jamL8Eg0vOXUS7MePaoI-Y46jwJ03CWDmwQ7QPLvPEgh40BKB5jmbRak01R7Xi5R7sprlnGyWBXP098yqG1mMEKSMZBRIlEv7Sou_OVud0bqZRUFdJcwVlfN2OZY0_bN7OwxvLAoxedqZkro0jlFAWAiei4G1VvVArVRQZA6Mud82_QnprK1Q7O-7WavUuS1jxzbCnZyYd5cObnu9GNNzyeQpyRhz-0TNzFoBdm2B25FRIQ9sm6vxW_9vdxh1SDGqYJ4Fa_x64ACFATCDdOhhRsZu3zPcrRLLuPxoGPZqNH2p62G1Vj3CWMafK4FO1LX2p0JWz_cmARIJgAQmXPj9daRVQRCm6dIBijWe7Gsd-jbOjwvS0v4nWknIPGxE3FVSSk3aW0CIcOv4Gq19W15Z1TlDLIQr5fgmtpcAoDvBr8l9iI37NS6M1qlJDC18qKV27c0-A5Or6sWpcbqDW-8_ercWktMgtYT3WMJtPGiBZdDLjmWp65fAPeB1NX9hef8yF6wEw18n8Hii7f4hJXrhcw_0wjBLUDLzLMyG-I_MsQJTjqmCSNZseKfDHnW2cmNk6rcX2YZ8cxiwJ8FV89k40muyEqzlQpllCIY8sqsUPizSuS4GYtYOv076oRDUFyxbqJ225hfUPxk3rHLhpkNkj8HySExex2JaedA1GwNZnsLrskDeyhsehnNCtc7U_qlEtUUNMkdnzXF1CDiME04MP3RCYxvOD5TLU_1BFY5cnkO4Y3JjXQVs5qGYuDsf8d7I-AQCZKh4smUNgiRzyQt36MIR8TRECb5yVPiH774c4syOXZ8cG4HaZmyamJuFPggs3wgye7xV0li0wfoY5OkW7O2800eqDCGzLecR1LjzqJrWAl2EphU6C0In9bBmRcI2JxEhI9dzAmktzJ7dj0xqY_F-0RUkZm2MrDA-X_Wt8kFYJ1y1lOAMnfvHFAjU5qWxfd68abqelVZsDiEP4epHQGCfQCjap2-gNmaFAK_Gi0?></g></svg>