<svg xmlns="http://www.w3.org/2000/svg" xmlns:xlink="http://www.w3.org/1999/xlink" contentStyleType="text/css" data-diagram-type="STATE" height="1080px" preserveAspectRatio="none" style="width:864px;height:1080px;background:#FFFFFF;" version="1.1" viewBox="0 0 864 1080" width="864px" zoomAndPan="magnify"><?plantuml 1.2026.6?><defs/><g><g class="title" data-source-line="1"><text fill="#000000" font-family="sans-serif" font-size="14" font-weight="700" lengthAdjust="spacing" textLength="196" x="330.88" y="23.5352">&#27880;&#25991;&#12521;&#12452;&#12501;&#12469;&#12452;&#12463;&#12523;&#12398;&#29366;&#24907;&#36983;&#31227;</text></g><g class="start_entity" data-qualified-name=".start." data-source-line="5" id="ent0001"><ellipse cx="630.76" cy="53.4883" fill="#222222" rx="10" ry="10" style="stroke:#222222;stroke-width:1;"/></g><rect fill="#F1F1F1" height="40" rx="12.5" ry="12.5" style="stroke:#181818;stroke-width:0.5;" width="66" x="597.76" y="124.4883"/><text fill="#000000" font-family="sans-serif" font-size="14" lengthAdjust="spacing" textLength="56" x="602.76" y="149.7793">&#21463;&#20184;&#28168;&#12415;</text><rect fill="#F1F1F1" height="40" rx="12.5" ry="12.5" style="stroke:#181818;stroke-width:0.5;" width="52" x="496.76" y="241.4883"/><text fill="#000000" font-family="sans-serif" font-size="14" lengthAdjust="spacing" textLength="42" x="501.76" y="266.7793">&#30906;&#35469;&#20013;</text><rect fill="#F1F1F1" height="40" rx="12.5" ry="12.5" style="stroke:#181818;stroke-width:0.5;" width="66" x="369.76" y="592.4883"/><text fill="#000000" font-family="sans-serif" font-size="14" lengthAdjust="spacing" textLength="56" x="374.76" y="617.7793">&#21462;&#28040;&#28168;&#12415;</text><rect fill="#F1F1F1" height="40" rx="12.5" ry="12.5" style="stroke:#181818;stroke-width:0.5;" width="66" x="173.76" y="358.4883"/><text fill="#000000" font-family="sans-serif" font-size="14" lengthAdjust="spacing" textLength="56" x="178.76" y="383.7793">&#25903;&#25173;&#24453;&#12385;</text><rect fill="#F1F1F1" height="40" rx="12.5" ry="12.5" style="stroke:#181818;stroke-width:0.5;" width="66" x="101.76" y="475.4883"/><text fill="#000000" font-family="sans-serif" font-size="14" lengthAdjust="spacing" textLength="56" x="106.76" y="500.7793">&#25903;&#25173;&#19981;&#26126;</text><rect fill="#F1F1F1" height="40" rx="12.5" ry="12.5" style="stroke:#181818;stroke-width:0.5;" width="66" x="60.76" y="592.4883"/><text fill="#000000" font-family="sans-serif" font-size="14" lengthAdjust="spacing" textLength="56" x="65.76" y="617.7793">&#25903;&#25173;&#28168;&#12415;</text><rect fill="#F1F1F1" height="40" rx="12.5" ry="12.5" style="stroke:#181818;stroke-width:0.5;" width="80" x="53.76" y="709.4883"/><text fill="#000000" font-family="sans-serif" font-size="14" lengthAdjust="spacing" textLength="70" x="58.76" y="734.7793">&#37197;&#36865;&#28310;&#20633;&#20013;</text><rect fill="#F1F1F1" height="40" rx="12.5" ry="12.5" style="stroke:#181818;stroke-width:0.5;" width="66" x="192.76" y="826.4883"/><text fill="#000000" font-family="sans-serif" font-size="14" lengthAdjust="spacing" textLength="56" x="197.76" y="851.7793">&#36820;&#37329;&#24453;&#12385;</text><rect fill="#F1F1F1" height="40" rx="12.5" ry="12.5" style="stroke:#181818;stroke-width:0.5;" width="66" x="69.76" y="826.4883"/><text fill="#000000" font-family="sans-serif" font-size="14" lengthAdjust="spacing" textLength="56" x="74.76" y="851.7793">&#30330;&#36865;&#28168;&#12415;</text><rect fill="#F1F1F1" height="40" rx="12.5" ry="12.5" style="stroke:#181818;stroke-width:0.5;" width="50" x="105.76" y="943.4883"/><text fill="#000000" font-family="sans-serif" font-size="14" lengthAdjust="spacing" textLength="28" x="116.76" y="968.7793">&#23436;&#20102;</text><rect fill="#F1F1F1" height="40" rx="12.5" ry="12.5" style="stroke:#181818;stroke-width:0.5;" width="66" x="192.76" y="943.4883"/><text fill="#000000" font-family="sans-serif" font-size="14" lengthAdjust="spacing" textLength="56" x="197.76" y="968.7793">&#36820;&#37329;&#28168;&#12415;</text><g class="end_entity" data-qualified-name=".end." data-source-line="29" id="ent0032"><ellipse cx="225.76" cy="1055.4883" fill="none" rx="11" ry="11" style="stroke:#222222;stroke-width:1;"/><ellipse cx="225.76" cy="1055.4883" fill="#222222" rx="6" ry="6" style="stroke:#222222;stroke-width:1;"/></g><!--link *start* to ????--><g class="link" data-entity-1="ent0001" data-entity-2="ent0002" data-link-type="dependency" data-source-line="5" id="lnk3"><path d="M630.76,63.6783 C630.76,77.8883 630.76,100.5083 630.76,119.2283" fill="none" id="*start*-to-&#21463;&#20184;&#28168;&#12415;" style="stroke:#181818;stroke-width:1;"/><polygon fill="#181818" points="630.76,124.2283,634.76,115.2283,630.76,119.2283,626.76,115.2283,630.76,124.2283" style="stroke:#181818;stroke-width:1;stroke-linejoin:miter;stroke-miterlimit:10;"/></g><!--link ???? to ???--><g class="link" data-entity-1="ent0002" data-entity-2="ent0004" data-link-type="dependency" data-source-line="6" id="lnk5"><path d="M612.68,164.7383 C592.74,185.9683 564.2732,216.2839 544.3132,237.5339" fill="none" id="&#21463;&#20184;&#28168;&#12415;-to-&#30906;&#35469;&#20013;" style="stroke:#181818;stroke-width:1;"/><polygon fill="#181818" points="540.89,241.1783,549.9673,237.3569,544.3132,237.5339,544.1362,231.8798,540.89,241.1783" style="stroke:#181818;stroke-width:1;stroke-linejoin:miter;stroke-miterlimit:10;"/><text fill="#000000" font-family="sans-serif" font-size="13" lengthAdjust="spacing" textLength="130" x="584.22" y="208.0566">&#22312;&#24235;&#30906;&#20445;&#12392;&#23529;&#26619;&#12434;&#38283;&#22987;</text></g><!--link ???? to ????--><g class="link" data-entity-1="ent0002" data-entity-2="ent0006" data-link-type="dependency" data-source-line="7" id="lnk7"><path d="M664.05,156.4183 C705.17,172.2583 769.76,205.8383 769.76,260.4883 C769.76,260.4883 769.76,260.4883 769.76,496.4883 C769.76,566.0983 531.2816,598.0661 440.9416,607.7361" fill="none" id="&#21463;&#20184;&#28168;&#12415;-to-&#21462;&#28040;&#28168;&#12415;" style="stroke:#181818;stroke-width:1;"/><polygon fill="#181818" points="435.97,608.2683,445.3446,611.2877,440.9416,607.7361,444.4932,603.3331,435.97,608.2683" style="stroke:#181818;stroke-width:1;stroke-linejoin:miter;stroke-miterlimit:10;"/><text fill="#000000" font-family="sans-serif" font-size="13" lengthAdjust="spacing" textLength="78" x="770.76" y="383.5566">&#12518;&#12540;&#12470;&#12540;&#21462;&#28040;</text></g><!--link ??? to ????--><g class="link" data-entity-1="ent0004" data-entity-2="ent0008" data-link-type="dependency" data-source-line="9" id="lnk9"><path d="M496.38,269.0783 C463.17,277.6383 404.55,293.6083 355.76,311.4883 C315.11,326.3783 274.3442,344.8985 244.4842,359.1185" fill="none" id="&#30906;&#35469;&#20013;-to-&#25903;&#25173;&#24453;&#12385;" style="stroke:#181818;stroke-width:1;"/><polygon fill="#181818" points="239.97,361.2683,249.8155,361.0101,244.4842,359.1185,246.3758,353.7873,239.97,361.2683" style="stroke:#181818;stroke-width:1;stroke-linejoin:miter;stroke-miterlimit:10;"/><text fill="#000000" font-family="sans-serif" font-size="13" lengthAdjust="spacing" textLength="109.5859" x="356.76" y="325.0566">&#22312;&#24235;OK&#12539;&#23529;&#26619;&#25215;&#35469;</text></g><!--link ??? to ????--><g class="link" data-entity-1="ent0004" data-entity-2="ent0006" data-link-type="dependency" data-source-line="10" id="lnk10"><path d="M516.42,281.9083 C502.52,324.3783 468.16,428.6783 437.76,515.4883 C428.43,542.1083 418.9294,568.0106 411.7494,587.3606" fill="none" id="&#30906;&#35469;&#20013;-to-&#21462;&#28040;&#28168;&#12415;" style="stroke:#181818;stroke-width:1;"/><polygon fill="#181818" points="410.01,592.0483,416.8911,585.002,411.7494,587.3606,409.3908,582.2189,410.01,592.0483" style="stroke:#181818;stroke-width:1;stroke-linejoin:miter;stroke-miterlimit:10;"/><text fill="#000000" font-family="sans-serif" font-size="13" lengthAdjust="spacing" textLength="117" x="468.13" y="442.0566">&#22312;&#24235;&#19981;&#36275;&#12539;&#23529;&#26619;&#25298;&#21542;</text></g><!--link ??? to ????--><g class="link" data-entity-1="ent0004" data-entity-2="ent0006" data-link-type="dependency" data-source-line="11" id="lnk11"><path d="M540.52,281.7583 C569.31,315.4483 620.4,387.0383 593.76,445.4883 C561.32,516.6483 486.0183,566.6757 440.4783,592.0357" fill="none" id="&#30906;&#35469;&#20013;-to-&#21462;&#28040;&#28168;&#12415;-1" style="stroke:#181818;stroke-width:1;"/><polygon fill="#181818" points="436.11,594.4683,445.9191,593.5843,440.4783,592.0357,442.0269,586.5949,436.11,594.4683" style="stroke:#181818;stroke-width:1;stroke-linejoin:miter;stroke-miterlimit:10;"/><text fill="#000000" font-family="sans-serif" font-size="13" lengthAdjust="spacing" textLength="93.0439" x="600.29" y="442.0566">&#21462;&#28040; / &#22312;&#24235;&#35299;&#25918;</text></g><!--link ???? to ????--><g class="link" data-entity-1="ent0008" data-entity-2="ent0008" data-link-type="dependency" data-source-line="13" id="lnk12"><path d="M239.99,368.0083 C258.14,366.1383 274.76,369.6283 274.76,378.4883 C274.76,387.3383 263.1137,391.3507 244.9637,389.4807" fill="none" id="&#25903;&#25173;&#24453;&#12385;-to-&#25903;&#25173;&#24453;&#12385;" style="stroke:#181818;stroke-width:1;"/><polygon fill="#181818" points="239.99,388.9683,248.5327,393.8696,244.9637,389.4807,249.3526,385.9117,239.99,388.9683" style="stroke:#181818;stroke-width:1;stroke-linejoin:miter;stroke-miterlimit:10;"/><text fill="#000000" font-family="sans-serif" font-size="13" lengthAdjust="spacing" textLength="98.7886" x="280.76" y="383.5566">&#20877;&#35430;&#34892; [3&#22238;&#26410;&#28288;]</text></g><!--link ???? to ????--><g class="link" data-entity-1="ent0008" data-entity-2="ent0013" data-link-type="dependency" data-source-line="14" id="lnk14"><path d="M194.71,398.7383 C181.41,419.9683 162.8027,449.69 149.5027,470.94" fill="none" id="&#25903;&#25173;&#24453;&#12385;-to-&#25903;&#25173;&#19981;&#26126;" style="stroke:#181818;stroke-width:1;"/><polygon fill="#181818" points="146.85,475.1783,155.0155,469.6715,149.5027,470.94,148.2342,465.4272,146.85,475.1783" style="stroke:#181818;stroke-width:1;stroke-linejoin:miter;stroke-miterlimit:10;"/><text fill="#000000" font-family="sans-serif" font-size="13" lengthAdjust="spacing" textLength="78" x="176.07" y="442.0566">&#12479;&#12452;&#12512;&#12450;&#12454;&#12488;</text></g><!--link ???? to ????--><g class="link" data-entity-1="ent0008" data-entity-2="ent0015" data-link-type="dependency" data-source-line="15" id="lnk16"><path d="M173.49,386.6383 C131.46,397.6583 60.87,423.2183 29.76,475.4883 C6,515.3983 42.6937,562.0135 69.4137,588.8735" fill="none" id="&#25903;&#25173;&#24453;&#12385;-to-&#25903;&#25173;&#28168;&#12415;" style="stroke:#181818;stroke-width:1;"/><polygon fill="#181818" points="72.94,592.4183,69.4285,583.2167,69.4137,588.8735,63.7569,588.8587,72.94,592.4183" style="stroke:#181818;stroke-width:1;stroke-linejoin:miter;stroke-miterlimit:10;"/><text fill="#000000" font-family="sans-serif" font-size="13" lengthAdjust="spacing" textLength="52" x="30.76" y="500.5566">&#27770;&#28168;&#25104;&#21151;</text></g><!--link ???? to ????--><g class="link" data-entity-1="ent0008" data-entity-2="ent0006" data-link-type="dependency" data-source-line="16" id="lnk17"><path d="M230.87,398.7683 C241.13,407.4183 252.96,418.0183 262.76,428.4883 C314.57,483.8183 363.5845,553.3695 387.0045,587.9195" fill="none" id="&#25903;&#25173;&#24453;&#12385;-to-&#21462;&#28040;&#28168;&#12415;" style="stroke:#181818;stroke-width:1;"/><polygon fill="#181818" points="389.81,592.0583,388.0711,582.3641,387.0045,587.9195,381.4491,586.8529,389.81,592.0583" style="stroke:#181818;stroke-width:1;stroke-linejoin:miter;stroke-miterlimit:10;"/><text fill="#000000" font-family="sans-serif" font-size="13" lengthAdjust="spacing" textLength="93.0439" x="335.27" y="500.5566">&#22833;&#25943; / &#22312;&#24235;&#35299;&#25918;</text></g><!--link ???? to ????--><g class="link" data-entity-1="ent0013" data-entity-2="ent0013" data-link-type="dependency" data-source-line="18" id="lnk18"><path d="M167.99,485.0083 C186.14,483.1383 202.76,486.6283 202.76,495.4883 C202.76,504.3383 191.1137,508.3507 172.9637,506.4807" fill="none" id="&#25903;&#25173;&#19981;&#26126;-to-&#25903;&#25173;&#19981;&#26126;" style="stroke:#181818;stroke-width:1;"/><polygon fill="#181818" points="167.99,505.9683,176.5327,510.8696,172.9637,506.4807,177.3526,502.9117,167.99,505.9683" style="stroke:#181818;stroke-width:1;stroke-linejoin:miter;stroke-miterlimit:10;"/><text fill="#000000" font-family="sans-serif" font-size="13" lengthAdjust="spacing" textLength="77.5684" x="208.76" y="500.5566">&#29031;&#20250; [&#20966;&#29702;&#20013;]</text></g><!--link ???? to ????--><g class="link" data-entity-1="ent0013" data-entity-2="ent0015" data-link-type="dependency" data-source-line="19" id="lnk19"><path d="M111.61,515.5883 C103.38,523.8283 95.09,534.1683 90.76,545.4883 C85.05,560.3783 85.5372,573.6386 87.9872,587.1386" fill="none" id="&#25903;&#25173;&#19981;&#26126;-to-&#25903;&#25173;&#28168;&#12415;" style="stroke:#181818;stroke-width:1;"/><polygon fill="#181818" points="88.88,592.0583,91.2086,582.4887,87.9872,587.1386,83.3372,583.9172,88.88,592.0583" style="stroke:#181818;stroke-width:1;stroke-linejoin:miter;stroke-miterlimit:10;"/><text fill="#000000" font-family="sans-serif" font-size="13" lengthAdjust="spacing" textLength="65" x="91.76" y="559.0566">&#25104;&#21151;&#12434;&#30906;&#35469;</text></g><!--link ???? to ????--><g class="link" data-entity-1="ent0013" data-entity-2="ent0006" data-link-type="dependency" data-source-line="20" id="lnk20"><path d="M148.31,515.8883 C159.79,530.8483 177.57,550.8883 197.76,562.4883 C252.64,594.0283 321.9922,604.8477 364.4122,608.8577" fill="none" id="&#25903;&#25173;&#19981;&#26126;-to-&#21462;&#28040;&#28168;&#12415;" style="stroke:#181818;stroke-width:1;"/><polygon fill="#181818" points="369.39,609.3283,360.8064,604.499,364.4122,608.8577,360.0535,612.4635,369.39,609.3283" style="stroke:#181818;stroke-width:1;stroke-linejoin:miter;stroke-miterlimit:10;"/><text fill="#000000" font-family="sans-serif" font-size="13" lengthAdjust="spacing" textLength="119.0439" x="198.76" y="559.0566">&#22833;&#25943;&#30906;&#35469; / &#22312;&#24235;&#35299;&#25918;</text></g><!--link ???? to ?????--><g class="link" data-entity-1="ent0015" data-entity-2="ent0021" data-link-type="dependency" data-source-line="22" id="lnk22"><path d="M93.76,632.7383 C93.76,653.9683 93.76,682.9283 93.76,704.1783" fill="none" id="&#25903;&#25173;&#28168;&#12415;-to-&#37197;&#36865;&#28310;&#20633;&#20013;" style="stroke:#181818;stroke-width:1;"/><polygon fill="#181818" points="93.76,709.1783,97.76,700.1783,93.76,704.1783,89.76,700.1783,93.76,709.1783" style="stroke:#181818;stroke-width:1;stroke-linejoin:miter;stroke-miterlimit:10;"/><text fill="#000000" font-family="sans-serif" font-size="13" lengthAdjust="spacing" textLength="52" x="94.76" y="676.0566">&#37197;&#36865;&#20381;&#38972;</text></g><!--link ???? to ????--><g class="link" data-entity-1="ent0015" data-entity-2="ent0023" data-link-type="dependency" data-source-line="23" id="lnk24"><path d="M121.73,632.7983 C158.59,660.2783 221.28,714.5983 242.76,779.4883 C247.89,794.9883 244.6157,808.4049 238.5957,821.6749" fill="none" id="&#25903;&#25173;&#28168;&#12415;-to-&#36820;&#37329;&#24453;&#12385;" style="stroke:#181818;stroke-width:1;"/><polygon fill="#181818" points="236.53,826.2283,243.8909,819.6848,238.5957,821.6749,236.6055,816.3797,236.53,826.2283" style="stroke:#181818;stroke-width:1;stroke-linejoin:miter;stroke-miterlimit:10;"/><text fill="#000000" font-family="sans-serif" font-size="13" lengthAdjust="spacing" textLength="52" x="230.44" y="734.5566">&#21462;&#28040;&#35201;&#27714;</text></g><!--link ????? to ????--><g class="link" data-entity-1="ent0021" data-entity-2="ent0025" data-link-type="dependency" data-source-line="24" id="lnk26"><path d="M56.16,749.8483 C38.15,761.9083 22.33,778.5283 31.76,796.4883 C39.83,811.8683 50.8002,820.9483 65.1502,828.9283" fill="none" id="&#37197;&#36865;&#28310;&#20633;&#20013;-to-&#30330;&#36865;&#28168;&#12415;" style="stroke:#181818;stroke-width:1;"/><polygon fill="#181818" points="69.52,831.3583,63.5984,823.4884,65.1502,828.9283,59.7104,830.4801,69.52,831.3583" style="stroke:#181818;stroke-width:1;stroke-linejoin:miter;stroke-miterlimit:10;"/><text fill="#000000" font-family="sans-serif" font-size="13" lengthAdjust="spacing" textLength="104" x="32.76" y="793.0566">&#37197;&#36865;&#26989;&#32773;&#12408;&#24341;&#28193;&#12375;</text></g><!--link ????? to ????--><g class="link" data-entity-1="ent0021" data-entity-2="ent0023" data-link-type="dependency" data-source-line="25" id="lnk27"><path d="M115.85,749.7383 C140.22,770.9683 175.4301,801.6438 199.8201,822.8938" fill="none" id="&#37197;&#36865;&#28310;&#20633;&#20013;-to-&#36820;&#37329;&#24453;&#12385;" style="stroke:#181818;stroke-width:1;"/><polygon fill="#181818" points="203.59,826.1783,199.4319,817.2502,199.8201,822.8938,194.1766,823.282,203.59,826.1783" style="stroke:#181818;stroke-width:1;stroke-linejoin:miter;stroke-miterlimit:10;"/><text fill="#000000" font-family="sans-serif" font-size="13" lengthAdjust="spacing" textLength="65" x="168.66" y="793.0566">&#37197;&#36865;&#21069;&#21462;&#28040;</text></g><!--link ???? to ??--><g class="link" data-entity-1="ent0025" data-entity-2="ent0028" data-link-type="dependency" data-source-line="26" id="lnk29"><path d="M107.44,866.7383 C112.61,887.9683 119.698,917.07 124.868,938.32" fill="none" id="&#30330;&#36865;&#28168;&#12415;-to-&#23436;&#20102;" style="stroke:#181818;stroke-width:1;"/><polygon fill="#181818" points="126.05,943.1783,127.809,933.4878,124.868,938.32,120.0358,935.379,126.05,943.1783" style="stroke:#181818;stroke-width:1;stroke-linejoin:miter;stroke-miterlimit:10;"/><text fill="#000000" font-family="sans-serif" font-size="13" lengthAdjust="spacing" textLength="52" x="119.43" y="910.0566">&#37197;&#36948;&#23436;&#20102;</text></g><!--link ???? to ????--><g class="link" data-entity-1="ent0023" data-entity-2="ent0030" data-link-type="dependency" data-source-line="27" id="lnk31"><path d="M225.76,866.7383 C225.76,887.9683 225.76,916.9283 225.76,938.1783" fill="none" id="&#36820;&#37329;&#24453;&#12385;-to-&#36820;&#37329;&#28168;&#12415;" style="stroke:#181818;stroke-width:1;"/><polygon fill="#181818" points="225.76,943.1783,229.76,934.1783,225.76,938.1783,221.76,934.1783,225.76,943.1783" style="stroke:#181818;stroke-width:1;stroke-linejoin:miter;stroke-miterlimit:10;"/><text fill="#000000" font-family="sans-serif" font-size="13" lengthAdjust="spacing" textLength="52" x="226.76" y="910.0566">&#36820;&#37329;&#25104;&#21151;</text></g><!--link ???? to *end*--><g class="link" data-entity-1="ent0006" data-entity-2="ent0032" data-link-type="dependency" data-source-line="29" id="lnk33"><path d="M400.61,632.5883 C398.24,655.3783 394.76,694.6683 394.76,728.4883 C394.76,728.4883 394.76,728.4883 394.76,964.4883 C394.76,1036.1283 279.9855,1050.548 242.0955,1053.438" fill="none" id="&#21462;&#28040;&#28168;&#12415;-to-*end*" style="stroke:#181818;stroke-width:1;"/><polygon fill="#181818" points="237.11,1053.8183,246.3881,1057.1222,242.0955,1053.438,245.7797,1049.1454,237.11,1053.8183" style="stroke:#181818;stroke-width:1;stroke-linejoin:miter;stroke-miterlimit:10;"/></g><!--link ?? to *end*--><g class="link" data-entity-1="ent0028" data-entity-2="ent0032" data-link-type="dependency" data-source-line="30" id="lnk34"><path d="M150.9,983.5783 C171.82,1003.3883 199.8407,1029.9291 214.3507,1043.6791" fill="none" id="&#23436;&#20102;-to-*end*" style="stroke:#181818;stroke-width:1;"/><polygon fill="#181818" points="217.98,1047.1183,214.1986,1038.0243,214.3507,1043.6791,208.6959,1043.8311,217.98,1047.1183" style="stroke:#181818;stroke-width:1;stroke-linejoin:miter;stroke-miterlimit:10;"/></g><!--link ???? to *end*--><g class="link" data-entity-1="ent0030" data-entity-2="ent0032" data-link-type="dependency" data-source-line="31" id="lnk35"><path d="M225.76,983.5783 C225.76,1002.1483 225.76,1024.6583 225.76,1039.3583" fill="none" id="&#36820;&#37329;&#28168;&#12415;-to-*end*" style="stroke:#181818;stroke-width:1;"/><polygon fill="#181818" points="225.76,1044.3583,229.76,1035.3583,225.76,1039.3583,221.76,1035.3583,225.76,1044.3583" style="stroke:#181818;stroke-width:1;stroke-linejoin:miter;stroke-miterlimit:10;"/></g><?plantuml-src XLFDJjj04BxlK-ov4kgXDmvzWHxw054k9PQmLEg8-j9RTgty4LnIb1zeeH1AdGG4KOIQHauKFynwn_PRTEqrCNPYzMBjp7xVDz_EZ7LL_wXWU1f1hywCCQEtpEWo-YSyq0apxXbvz8vcK6q5vAytN21TAsDTmnyqNTSES4azLFPqLVk4zjMIWfM3ilu5bvJFUuTgEKgZmgiYtjbvY_b9trsSmRp1Y8DU1j6jTsFxTwOxVy2xc5-Ck7qlCgvpoSY8JyPmjM3qDEYr-B2roUKdFPWruiGkPeR5Z2MZC_6LLmWbyY41EXDeTlcgoiXWNU_zEsOiP2reEWAT8MMgI98xD_tPKq9idVAszHzY5EBNiO8__0MT5K8fJzjCran_RFc3Ornumt_yX8ixi2l5F9hm1MTVmsPG9nhfDQCtZ8h6DF8eQuCmjSKP6cr-TBK9phxcTWhTVivhOXTRR7dLeRlyZWkyRddjckXKCO-Is8eCYJMGtTt4RtKcmJd-NknGK3M32W6xn-cvt4APSLUNmVLo4-yxdQ3-BPbELDkt24mfocf5-trkXxbdSp7azuDV4GfplXJQ0qRwMxcPMXB2csQyt2dfg16FnwvTYv6a8qEKKabarvRYK8uTfPePeiLlZ6BXvp0b42V_0G00?></g></svg>