<?xml version="1.0" encoding="UTF-8" standalone="no"?>
<!DOCTYPE svg PUBLIC "-//W3C//DTD SVG 1.1//EN"
 "http://www.w3.org/Graphics/SVG/1.1/DTD/svg11.dtd">
<!-- Generated by graphviz version 15.1.0 (20260618.0150)
 -->
<!-- Title: OrderState Pages: 1 -->
<svg width="719pt" height="762pt"
 viewBox="0.00 0.00 719.00 762.00" xmlns="http://www.w3.org/2000/svg" xmlns:xlink="http://www.w3.org/1999/xlink">
<g id="graph0" class="graph" transform="scale(1 1) rotate(0) translate(18 744.12)">
<title>OrderState</title>
<polygon fill="white" stroke="none" points="-18,18 -18,-744.12 701.09,-744.12 701.09,18 -18,18"/>
<text xml:space="preserve" text-anchor="middle" x="341.55" y="-708.82" font-family="Helvetica,sans-Serif" font-size="14.00">注文ライフサイクルの状態遷移</text>
<!-- start -->
<g id="node1" class="node">
<title>start</title>
<ellipse fill="#17201c" stroke="#45635a" cx="564.09" cy="-695.92" rx="7.2" ry="7.2"/>
</g>
<!-- accepted -->
<g id="node5" class="node">
<title>accepted</title>
<ellipse fill="#f7faf8" stroke="#45635a" cx="564.09" cy="-625.72" rx="36.09" ry="18"/>
<text xml:space="preserve" text-anchor="middle" x="564.09" y="-620.9" font-family="Helvetica,sans-Serif" font-size="11.00">受付済み</text>
</g>
<!-- start&#45;&gt;accepted -->
<g id="edge1" class="edge">
<title>start&#45;&gt;accepted</title>
<path fill="none" stroke="#52645d" d="M564.09,-688.38C564.09,-680.07 564.09,-665.23 564.09,-652.19"/>
<polygon fill="#52645d" stroke="#52645d" points="566.54,-652.48 564.09,-645.48 561.64,-652.48 566.54,-652.48"/>
</g>
<!-- end_cancel -->
<g id="node2" class="node">
<title>end_cancel</title>
<ellipse fill="#17201c" stroke="#45635a" cx="435.09" cy="-86.84" rx="7.92" ry="7.92"/>
<ellipse fill="none" stroke="#45635a" cx="435.09" cy="-86.84" rx="11.92" ry="11.92"/>
</g>
<!-- end_complete -->
<g id="node3" class="node">
<title>end_complete</title>
<ellipse fill="#17201c" stroke="#45635a" cx="156.09" cy="-11.92" rx="7.92" ry="7.92"/>
<ellipse fill="none" stroke="#45635a" cx="156.09" cy="-11.92" rx="11.92" ry="11.92"/>
</g>
<!-- end_refund -->
<g id="node4" class="node">
<title>end_refund</title>
<ellipse fill="#17201c" stroke="#45635a" cx="36.09" cy="-11.92" rx="7.92" ry="7.92"/>
<ellipse fill="none" stroke="#45635a" cx="36.09" cy="-11.92" rx="11.92" ry="11.92"/>
</g>
<!-- checking -->
<g id="node6" class="node">
<title>checking</title>
<ellipse fill="#f7faf8" stroke="#45635a" cx="499.09" cy="-535.97" rx="29.44" ry="18"/>
<text xml:space="preserve" text-anchor="middle" x="499.09" y="-531.15" font-family="Helvetica,sans-Serif" font-size="11.00">確認中</text>
</g>
<!-- accepted&#45;&gt;checking -->
<g id="edge2" class="edge">
<title>accepted&#45;&gt;checking</title>
<path fill="none" stroke="#52645d" d="M541.33,-611.4C531.72,-604.77 521.15,-595.97 514.09,-585.72 509.37,-578.87 506.09,-570.48 503.84,-562.6"/>
<polygon fill="#52645d" stroke="#52645d" points="506.22,-562.01 502.14,-555.82 501.46,-563.2 506.22,-562.01"/>
<text xml:space="preserve" text-anchor="middle" x="559.09" y="-577.17" font-family="Helvetica,sans-Serif" font-size="9.00">在庫確保と審査を開始</text>
</g>
<!-- cancelling -->
<g id="node13" class="node">
<title>cancelling</title>
<ellipse fill="#fdecec" stroke="#b42318" cx="435.09" cy="-176.59" rx="36.09" ry="18"/>
<text xml:space="preserve" text-anchor="middle" x="435.09" y="-171.77" font-family="Helvetica,sans-Serif" font-size="11.00">取消済み</text>
</g>
<!-- accepted&#45;&gt;cancelling -->
<g id="edge3" class="edge">
<title>accepted&#45;&gt;cancelling</title>
<path fill="none" stroke="#b42318" d="M583.95,-610.34C603.06,-594.67 629.09,-567.69 629.09,-536.97 629.09,-536.97 629.09,-536.97 629.09,-265.34 629.09,-199.98 536.56,-183.05 479.3,-178.82"/>
<polygon fill="#b42318" stroke="#b42318" points="479.78,-176.4 472.64,-178.39 479.46,-181.29 479.78,-176.4"/>
<text xml:space="preserve" text-anchor="middle" x="656.09" y="-397.48" font-family="Helvetica,sans-Serif" font-size="9.00">ユーザー取消</text>
</g>
<!-- awaiting -->
<g id="node7" class="node">
<title>awaiting</title>
<ellipse fill="#f7faf8" stroke="#45635a" cx="103.09" cy="-446.03" rx="36.09" ry="18"/>
<text xml:space="preserve" text-anchor="middle" x="103.09" y="-441.21" font-family="Helvetica,sans-Serif" font-size="11.00">支払待ち</text>
</g>
<!-- checking&#45;&gt;awaiting -->
<g id="edge4" class="edge">
<title>checking&#45;&gt;awaiting</title>
<path fill="none" stroke="#52645d" d="M471.56,-528.86C402.97,-513.63 224.19,-473.93 143.57,-456.02"/>
<polygon fill="#52645d" stroke="#52645d" points="144.46,-453.71 137.1,-454.58 143.4,-458.49 144.46,-453.71"/>
<text xml:space="preserve" text-anchor="middle" x="350.84" y="-487.42" font-family="Helvetica,sans-Serif" font-size="9.00">在庫OK・審査承認</text>
</g>
<!-- checking&#45;&gt;cancelling -->
<g id="edge5" class="edge">
<title>checking&#45;&gt;cancelling</title>
<path fill="none" stroke="#b42318" d="M499.09,-517.79C499.09,-500.06 499.09,-471.61 499.09,-447.03 499.09,-447.03 499.09,-447.03 499.09,-265.34 499.09,-238.13 478.76,-213.72 461.02,-197.6"/>
<polygon fill="#b42318" stroke="#b42318" points="462.67,-195.78 455.78,-193.03 459.45,-199.48 462.67,-195.78"/>
<text xml:space="preserve" text-anchor="middle" x="539.59" y="-357.58" font-family="Helvetica,sans-Serif" font-size="9.00">在庫不足・審査拒否</text>
<text xml:space="preserve" text-anchor="middle" x="539.59" y="-347.83" font-family="Helvetica,sans-Serif" font-size="9.00">取消 / 在庫解放</text>
</g>
<!-- awaiting&#45;&gt;awaiting -->
<g id="edge6" class="edge">
<title>awaiting&#45;&gt;awaiting</title>
<path fill="none" stroke="#52645d" stroke-dasharray="5,2" d="M136.02,-454.04C154.33,-455.54 171.19,-452.87 171.19,-446.03 171.19,-440.26 159.19,-437.46 144.44,-437.62"/>
<polygon fill="#52645d" stroke="#52645d" points="144.41,-435.17 137.54,-437.95 144.64,-440.07 144.41,-435.17"/>
<text xml:space="preserve" text-anchor="middle" x="204.19" y="-442.45" font-family="Helvetica,sans-Serif" font-size="9.00">再試行 [3回未満]</text>
</g>
<!-- unknown -->
<g id="node8" class="node">
<title>unknown</title>
<ellipse fill="#fff4cc" stroke="#a16207" cx="344.09" cy="-446.03" rx="36.09" ry="18"/>
<text xml:space="preserve" text-anchor="middle" x="344.09" y="-441.21" font-family="Helvetica,sans-Serif" font-size="11.00">支払不明</text>
</g>
<!-- awaiting&#45;&gt;unknown -->
<g id="edge7" class="edge">
<title>awaiting&#45;&gt;unknown</title>
<path fill="none" stroke="#52645d" d="M139.43,-446.03C182.27,-446.03 253.43,-446.03 299.55,-446.03"/>
<polygon fill="#52645d" stroke="#52645d" points="299.34,-448.48 306.34,-446.03 299.34,-443.58 299.34,-448.48"/>
<text xml:space="preserve" text-anchor="middle" x="223.59" y="-450.23" font-family="Helvetica,sans-Serif" font-size="9.00">タイムアウト</text>
</g>
<!-- paid -->
<g id="node9" class="node">
<title>paid</title>
<ellipse fill="#f7faf8" stroke="#45635a" cx="103.09" cy="-356.28" rx="36.09" ry="18"/>
<text xml:space="preserve" text-anchor="middle" x="103.09" y="-351.46" font-family="Helvetica,sans-Serif" font-size="11.00">支払済み</text>
</g>
<!-- awaiting&#45;&gt;paid -->
<g id="edge8" class="edge">
<title>awaiting&#45;&gt;paid</title>
<path fill="none" stroke="#52645d" d="M103.09,-427.7C103.09,-414.96 103.09,-397.43 103.09,-383.06"/>
<polygon fill="#52645d" stroke="#52645d" points="105.54,-383.1 103.09,-376.1 100.64,-383.1 105.54,-383.1"/>
<text xml:space="preserve" text-anchor="middle" x="121.09" y="-397.48" font-family="Helvetica,sans-Serif" font-size="9.00">決済成功</text>
</g>
<!-- awaiting&#45;&gt;cancelling -->
<g id="edge9" class="edge">
<title>awaiting&#45;&gt;cancelling</title>
<path fill="none" stroke="#b42318" d="M121.42,-430.27C177.42,-385.16 346.4,-249.04 410.27,-197.58"/>
<polygon fill="#b42318" stroke="#b42318" points="411.73,-199.55 415.65,-193.25 408.66,-195.74 411.73,-199.55"/>
<text xml:space="preserve" text-anchor="middle" x="303.3" y="-307.73" font-family="Helvetica,sans-Serif" font-size="9.00">失敗 / 在庫解放</text>
</g>
<!-- unknown&#45;&gt;unknown -->
<g id="edge10" class="edge">
<title>unknown&#45;&gt;unknown</title>
<path fill="none" stroke="#52645d" stroke-dasharray="5,2" d="M377.02,-454.04C395.33,-455.54 412.19,-452.87 412.19,-446.03 412.19,-440.26 400.19,-437.46 385.44,-437.62"/>
<polygon fill="#52645d" stroke="#52645d" points="385.41,-435.17 378.54,-437.95 385.64,-440.07 385.41,-435.17"/>
<text xml:space="preserve" text-anchor="middle" x="438.06" y="-442.45" font-family="Helvetica,sans-Serif" font-size="9.00">照会 [処理中]</text>
</g>
<!-- unknown&#45;&gt;paid -->
<g id="edge11" class="edge">
<title>unknown&#45;&gt;paid</title>
<path fill="none" stroke="#52645d" d="M315.5,-434.62C271.66,-418.66 187.84,-388.14 139.64,-370.59"/>
<polygon fill="#52645d" stroke="#52645d" points="140.49,-368.29 133.07,-368.2 138.81,-372.89 140.49,-368.29"/>
<text xml:space="preserve" text-anchor="middle" x="253.32" y="-397.48" font-family="Helvetica,sans-Serif" font-size="9.00">成功を確認</text>
</g>
<!-- unknown&#45;&gt;cancelling -->
<g id="edge12" class="edge">
<title>unknown&#45;&gt;cancelling</title>
<path fill="none" stroke="#b42318" d="M349.92,-427.9C365.53,-382.04 408.28,-256.39 426.59,-202.58"/>
<polygon fill="#b42318" stroke="#b42318" points="428.89,-203.43 428.82,-196.02 424.25,-201.85 428.89,-203.43"/>
<text xml:space="preserve" text-anchor="middle" x="430.02" y="-307.73" font-family="Helvetica,sans-Serif" font-size="9.00">失敗確認 / 在庫解放</text>
</g>
<!-- preparing -->
<g id="node10" class="node">
<title>preparing</title>
<ellipse fill="#f7faf8" stroke="#45635a" cx="131.09" cy="-266.34" rx="42.75" ry="18"/>
<text xml:space="preserve" text-anchor="middle" x="131.09" y="-261.52" font-family="Helvetica,sans-Serif" font-size="11.00">配送準備中</text>
</g>
<!-- paid&#45;&gt;preparing -->
<g id="edge13" class="edge">
<title>paid&#45;&gt;preparing</title>
<path fill="none" stroke="#52645d" d="M108.49,-338.33C112.65,-325.27 118.46,-307.03 123.14,-292.31"/>
<polygon fill="#52645d" stroke="#52645d" points="125.37,-293.4 125.16,-285.99 120.7,-291.91 125.37,-293.4"/>
<text xml:space="preserve" text-anchor="middle" x="135.93" y="-307.64" font-family="Helvetica,sans-Serif" font-size="9.00">配送依頼</text>
</g>
<!-- refunding -->
<g id="node14" class="node">
<title>refunding</title>
<ellipse fill="#fdecec" stroke="#b42318" cx="36.09" cy="-176.59" rx="36.09" ry="18"/>
<text xml:space="preserve" text-anchor="middle" x="36.09" y="-171.77" font-family="Helvetica,sans-Serif" font-size="11.00">返金待ち</text>
</g>
<!-- paid&#45;&gt;refunding -->
<g id="edge14" class="edge">
<title>paid&#45;&gt;refunding</title>
<path fill="none" stroke="#b42318" d="M82.97,-341.01C66.87,-328.25 45.48,-307.95 36.09,-284.34 25.7,-258.19 27.63,-225.5 30.93,-203.24"/>
<polygon fill="#b42318" stroke="#b42318" points="33.33,-203.76 32.04,-196.45 28.49,-202.96 33.33,-203.76"/>
<text xml:space="preserve" text-anchor="middle" x="54.09" y="-262.67" font-family="Helvetica,sans-Serif" font-size="9.00">取消要求</text>
</g>
<!-- shipped -->
<g id="node11" class="node">
<title>shipped</title>
<ellipse fill="#f7faf8" stroke="#45635a" cx="156.09" cy="-176.59" rx="36.09" ry="18"/>
<text xml:space="preserve" text-anchor="middle" x="156.09" y="-171.77" font-family="Helvetica,sans-Serif" font-size="11.00">発送済み</text>
</g>
<!-- preparing&#45;&gt;shipped -->
<g id="edge15" class="edge">
<title>preparing&#45;&gt;shipped</title>
<path fill="none" stroke="#52645d" d="M136.03,-248C139.7,-235.14 144.75,-217.41 148.87,-202.96"/>
<polygon fill="#52645d" stroke="#52645d" points="151.19,-203.75 150.75,-196.35 146.48,-202.41 151.19,-203.75"/>
<text xml:space="preserve" text-anchor="middle" x="180.34" y="-217.79" font-family="Helvetica,sans-Serif" font-size="9.00">配送業者へ引渡し</text>
</g>
<!-- preparing&#45;&gt;refunding -->
<g id="edge16" class="edge">
<title>preparing&#45;&gt;refunding</title>
<path fill="none" stroke="#b42318" d="M114.11,-249.65C98.61,-235.34 75.6,-214.09 58.59,-198.37"/>
<polygon fill="#b42318" stroke="#b42318" points="60.53,-196.83 53.72,-193.88 57.2,-200.42 60.53,-196.83"/>
<text xml:space="preserve" text-anchor="middle" x="108.94" y="-217.79" font-family="Helvetica,sans-Serif" font-size="9.00">配送前取消</text>
</g>
<!-- completed -->
<g id="node12" class="node">
<title>completed</title>
<ellipse fill="#e6f7ed" stroke="#15803d" cx="156.09" cy="-86.84" rx="27" ry="18"/>
<text xml:space="preserve" text-anchor="middle" x="156.09" y="-82.02" font-family="Helvetica,sans-Serif" font-size="11.00">完了</text>
</g>
<!-- shipped&#45;&gt;completed -->
<g id="edge17" class="edge">
<title>shipped&#45;&gt;completed</title>
<path fill="none" stroke="#52645d" d="M156.09,-158.25C156.09,-145.51 156.09,-127.99 156.09,-113.62"/>
<polygon fill="#52645d" stroke="#52645d" points="158.54,-113.65 156.09,-106.65 153.64,-113.65 158.54,-113.65"/>
<text xml:space="preserve" text-anchor="middle" x="174.09" y="-128.04" font-family="Helvetica,sans-Serif" font-size="9.00">配達完了</text>
</g>
<!-- completed&#45;&gt;end_complete -->
<g id="edge20" class="edge">
<title>completed&#45;&gt;end_complete</title>
<path fill="none" stroke="#52645d" d="M156.09,-68.56C156.09,-57.66 156.09,-43.56 156.09,-32.28"/>
<polygon fill="#52645d" stroke="#52645d" points="158.54,-32.47 156.09,-25.47 153.64,-32.47 158.54,-32.47"/>
</g>
<!-- cancelling&#45;&gt;end_cancel -->
<g id="edge19" class="edge">
<title>cancelling&#45;&gt;end_cancel</title>
<path fill="none" stroke="#52645d" d="M435.09,-158.25C435.09,-143.56 435.09,-122.5 435.09,-107.24"/>
<polygon fill="#52645d" stroke="#52645d" points="437.54,-107.53 435.09,-100.53 432.64,-107.53 437.54,-107.53"/>
</g>
<!-- refunded -->
<g id="node15" class="node">
<title>refunded</title>
<ellipse fill="#e6f7ed" stroke="#15803d" cx="36.09" cy="-86.84" rx="36.09" ry="18"/>
<text xml:space="preserve" text-anchor="middle" x="36.09" y="-82.02" font-family="Helvetica,sans-Serif" font-size="11.00">返金済み</text>
</g>
<!-- refunding&#45;&gt;refunded -->
<g id="edge18" class="edge">
<title>refunding&#45;&gt;refunded</title>
<path fill="none" stroke="#52645d" d="M36.09,-158.25C36.09,-145.51 36.09,-127.99 36.09,-113.62"/>
<polygon fill="#52645d" stroke="#52645d" points="38.54,-113.65 36.09,-106.65 33.64,-113.65 38.54,-113.65"/>
<text xml:space="preserve" text-anchor="middle" x="54.09" y="-128.04" font-family="Helvetica,sans-Serif" font-size="9.00">返金成功</text>
</g>
<!-- refunded&#45;&gt;end_refund -->
<g id="edge21" class="edge">
<title>refunded&#45;&gt;end_refund</title>
<path fill="none" stroke="#52645d" d="M36.09,-68.56C36.09,-57.66 36.09,-43.56 36.09,-32.28"/>
<polygon fill="#52645d" stroke="#52645d" points="38.54,-32.47 36.09,-25.47 33.64,-32.47 38.54,-32.47"/>
</g>
</g>
</svg>
