<svg xmlns="http://www.w3.org/2000/svg" xmlns:xlink="http://www.w3.org/1999/xlink" contentStyleType="text/css" data-diagram-type="DESCRIPTION" height="630px" preserveAspectRatio="none" style="width:901px;height:630px;background:#FFFFFF;" version="1.1" viewBox="0 0 901 630" width="901px" zoomAndPan="magnify"><?plantuml 1.2026.6?><defs/><g><g class="title" data-source-line="1"><text fill="#000000" font-family="sans-serif" font-size="14" font-weight="700" lengthAdjust="spacing" textLength="284.3818" x="305.1591" y="23.5352">EC&#27880;&#25991;&#12503;&#12521;&#12483;&#12488;&#12501;&#12457;&#12540;&#12512;&#12398;&#12467;&#12531;&#12509;&#12540;&#12493;&#12531;&#12488;&#22259;</text></g><!--cluster Client--><g class="cluster" data-qualified-name="Client" data-source-line="6" id="ent0001"><rect fill="none" height="87" rx="2.5" ry="2.5" style="stroke:#181818;stroke-width:1;" width="146.08" x="7" y="54.4883"/><text fill="#000000" font-family="sans-serif" font-size="14" font-weight="700" lengthAdjust="spacing" textLength="42.1504" x="58.9648" y="70.0234">Client</text></g><!--cluster Commerce Platform--><g class="cluster" data-qualified-name="Commerce Platform" data-source-line="10" id="ent0003"><rect fill="none" height="97" rx="2.5" ry="2.5" style="stroke:#181818;stroke-width:1;" width="462.69" x="181.08" y="44.4883"/><text fill="#000000" font-family="sans-serif" font-size="14" font-weight="700" lengthAdjust="spacing" textLength="142.6318" x="341.1091" y="60.0234">Commerce Platform</text></g><!--cluster Risk & Stock--><g class="cluster" data-qualified-name="Risk . Stock" data-source-line="18" id="ent0009"><rect fill="none" height="158" rx="2.5" ry="2.5" style="stroke:#181818;stroke-width:1;" width="167.09" x="503.27" y="165.4883"/><text fill="#000000" font-family="sans-serif" font-size="14" font-weight="700" lengthAdjust="spacing" textLength="89.5645" x="542.0328" y="181.0234">Risk &amp; Stock</text></g><!--cluster Payment Boundary--><g class="cluster" data-qualified-name="Payment Boundary" data-source-line="23" id="ent0012"><rect fill="none" height="87" rx="2.5" ry="2.5" style="stroke:#181818;stroke-width:1;" width="170.73" x="501.45" y="347.4883"/><text fill="#000000" font-family="sans-serif" font-size="14" font-weight="700" lengthAdjust="spacing" textLength="134.4219" x="519.6041" y="363.0234">Payment Boundary</text></g><!--cluster Asynchronous Processing--><g class="cluster" data-qualified-name="Asynchronous Processing" data-source-line="27" id="ent0014"><rect fill="none" height="158" rx="2.5" ry="2.5" style="stroke:#181818;stroke-width:1;" width="391.11" x="496.59" y="458.4883"/><text fill="#000000" font-family="sans-serif" font-size="14" font-weight="700" lengthAdjust="spacing" textLength="185.7529" x="599.2685" y="474.0234">Asynchronous Processing</text></g><!--entity Web--><g class="entity" data-qualified-name="Client.Web" data-source-line="7" id="ent0002"><rect fill="#F1F1F1" height="36.4883" rx="2.5" ry="2.5" style="stroke:#181818;stroke-width:0.5;" width="114.0762" x="23" y="89.2483"/><text fill="#000000" font-family="sans-serif" font-size="14" lengthAdjust="spacing" textLength="94.0762" x="33" y="112.7834">Web Frontend</text></g><!--entity API--><g class="entity" data-qualified-name="Commerce Platform.API" data-source-line="11" id="ent0004"><rect fill="#F1F1F1" height="36.4883" rx="2.5" ry="2.5" style="stroke:#181818;stroke-width:0.5;" width="84.8047" x="197.08" y="89.2483"/><text fill="#000000" font-family="sans-serif" font-size="14" lengthAdjust="spacing" textLength="64.8047" x="207.08" y="112.7834">Order API</text></g><!--entity Order--><g class="entity" data-qualified-name="Commerce Platform.Order" data-source-line="12" id="ent0005"><rect fill="#F1F1F1" height="36.4883" rx="2.5" ry="2.5" style="stroke:#181818;stroke-width:0.5;" width="110.7061" x="341.88" y="89.2483"/><text fill="#000000" font-family="sans-serif" font-size="14" lengthAdjust="spacing" textLength="90.7061" x="351.88" y="112.7834">Order Service</text></g><!--entity DB--><g class="entity" data-qualified-name="Commerce Platform.DB" data-source-line="13" id="ent0006"><path d="M545.86,89.7483 C545.86,79.7483 586.8165,79.7483 586.8165,79.7483 C586.8165,79.7483 627.7731,79.7483 627.7731,89.7483 L627.7731,115.2366 C627.7731,125.2366 586.8165,125.2366 586.8165,125.2366 C586.8165,125.2366 545.86,125.2366 545.86,115.2366 L545.86,89.7483" fill="#F1F1F1" style="stroke:#181818;stroke-width:0.5;"/><path d="M545.86,89.7483 C545.86,99.7483 586.8165,99.7483 586.8165,99.7483 C586.8165,99.7483 627.7731,99.7483 627.7731,89.7483" fill="none" style="stroke:#181818;stroke-width:0.5;"/><text fill="#000000" font-family="sans-serif" font-size="14" lengthAdjust="spacing" textLength="61.9131" x="555.86" y="117.2834">Order DB</text></g><!--entity Inventory--><g class="entity" data-qualified-name="Risk . Stock.Inventory" data-source-line="19" id="ent0010"><rect fill="#F1F1F1" height="36.4883" rx="2.5" ry="2.5" style="stroke:#181818;stroke-width:0.5;" width="135.0967" x="519.27" y="271.2483"/><text fill="#000000" font-family="sans-serif" font-size="14" lengthAdjust="spacing" textLength="115.0967" x="529.27" y="294.7834">Inventory Service</text></g><!--entity Fraud--><g class="entity" data-qualified-name="Risk . Stock.Fraud" data-source-line="20" id="ent0011"><rect fill="#F1F1F1" height="36.4883" rx="2.5" ry="2.5" style="stroke:#181818;stroke-width:0.5;" width="110.2275" x="531.7" y="200.2483"/><text fill="#000000" font-family="sans-serif" font-size="14" lengthAdjust="spacing" textLength="90.2275" x="541.7" y="223.7834">Fraud Service</text></g><!--entity Payment--><g class="entity" data-qualified-name="Payment Boundary.Payment" data-source-line="24" id="ent0013"><rect fill="#F1F1F1" height="36.4883" rx="2.5" ry="2.5" style="stroke:#181818;stroke-width:0.5;" width="138.7266" x="517.45" y="382.2483"/><text fill="#000000" font-family="sans-serif" font-size="14" lengthAdjust="spacing" textLength="118.7266" x="527.45" y="405.7834">Payment Gateway</text></g><!--entity Broker--><g class="entity" data-qualified-name="Asynchronous Processing.Broker" data-source-line="28" id="ent0015"><path d="M517.59,498.2483 L656.0441,498.2483 C661.0441,498.2483 661.0441,511.4924 661.0441,511.4924 C661.0441,511.4924 661.0441,524.7366 656.0441,524.7366 L517.59,524.7366 C512.59,524.7366 512.59,511.4924 512.59,511.4924 C512.59,511.4924 512.59,498.2483 517.59,498.2483" fill="#F1F1F1" style="stroke:#181818;stroke-width:0.5;"/><path d="M656.0441,498.2483 C651.0441,498.2483 651.0441,511.4924 651.0441,511.4924 C651.0441,524.7366 656.0441,524.7366 656.0441,524.7366" fill="none" style="stroke:#181818;stroke-width:0.5;"/><text fill="#000000" font-family="sans-serif" font-size="14" lengthAdjust="spacing" textLength="128.4541" x="517.59" y="516.7834">Order Event Broker</text></g><!--entity Shipping--><g class="entity" data-qualified-name="Asynchronous Processing.Shipping" data-source-line="29" id="ent0016"><rect fill="#F1F1F1" height="36.4883" rx="2.5" ry="2.5" style="stroke:#181818;stroke-width:0.5;" width="131.125" x="730.81" y="564.2483"/><text fill="#000000" font-family="sans-serif" font-size="14" lengthAdjust="spacing" textLength="111.125" x="740.81" y="587.7834">Shipping Service</text></g><!--entity Notify--><g class="entity" data-qualified-name="Asynchronous Processing.Notify" data-source-line="30" id="ent0017"><rect fill="#F1F1F1" height="36.4883" rx="2.5" ry="2.5" style="stroke:#181818;stroke-width:0.5;" width="150.6553" x="721.04" y="493.2483"/><text fill="#000000" font-family="sans-serif" font-size="14" lengthAdjust="spacing" textLength="130.6553" x="731.04" y="516.7834">Notification Service</text></g><!--link API to Order--><g class="link" data-entity-1="ent0004" data-entity-2="ent0005" data-link-type="dependency" data-source-line="14" id="lnk7"><path d="M282.17,107.4883 C300.42,107.4883 316.97,107.4883 336.46,107.4883" fill="none" id="API-to-Order" style="stroke:#181818;stroke-width:1;"/><polygon fill="#181818" points="341.46,107.4883,332.46,103.4883,336.46,107.4883,332.46,111.4883,341.46,107.4883" style="stroke:#181818;stroke-width:1;stroke-linejoin:miter;stroke-miterlimit:10;"/></g><!--link Order to DB--><g class="link" data-entity-1="ent0005" data-entity-2="ent0006" data-link-type="dependency" data-source-line="15" id="lnk8"><path d="M452.83,98.2383 C482.44,98.2383 513.24,98.2383 540.39,98.2383" fill="none" id="Order-to-DB" style="stroke:#181818;stroke-width:1;"/><polygon fill="#181818" points="545.39,98.2383,536.39,94.2383,540.39,98.2383,536.39,102.2383,545.39,98.2383" style="stroke:#181818;stroke-width:1;stroke-linejoin:miter;stroke-miterlimit:10;"/></g><!--link Broker to Shipping--><g class="link" data-entity-1="ent0015" data-entity-2="ent0016" data-link-type="dependency" data-source-line="31" id="lnk18"><path d="M586.7,525.1783 C586.7,545.8083 586.7,582.4883 586.7,582.4883 C586.7,582.4883 663.86,582.4883 725.31,582.4883" fill="none" id="Broker-to-Shipping" style="stroke:#181818;stroke-width:1;"/><polygon fill="#181818" points="730.31,582.4883,721.31,578.4883,725.31,582.4883,721.31,586.4883,730.31,582.4883" style="stroke:#181818;stroke-width:1;stroke-linejoin:miter;stroke-miterlimit:10;"/></g><!--link Broker to Notify--><g class="link" data-entity-1="ent0015" data-entity-2="ent0017" data-link-type="dependency" data-source-line="32" id="lnk19"><path d="M661.29,511.4883 C680.58,511.4883 696.37,511.4883 715.72,511.4883" fill="none" id="Broker-to-Notify" style="stroke:#181818;stroke-width:1;"/><polygon fill="#181818" points="720.72,511.4883,711.72,507.4883,715.72,511.4883,711.72,515.4883,720.72,511.4883" style="stroke:#181818;stroke-width:1;stroke-linejoin:miter;stroke-miterlimit:10;"/></g><!--link Web to API--><g class="link" data-entity-1="ent0002" data-entity-2="ent0004" data-link-type="dependency" data-source-line="35" id="lnk20"><path d="M137.15,107.4883 C156.81,107.4883 173.47,107.4883 191.77,107.4883" fill="none" id="Web-to-API" style="stroke:#181818;stroke-width:1;"/><polygon fill="#181818" points="196.77,107.4883,187.77,103.4883,191.77,107.4883,187.77,111.4883,196.77,107.4883" style="stroke:#181818;stroke-width:1;stroke-linejoin:miter;stroke-miterlimit:10;"/><text fill="#000000" font-family="sans-serif" font-size="13" lengthAdjust="spacing" textLength="40.1807" x="125.96" y="121.0566">HTTPS</text></g><!--link Order to Inventory--><g class="link" data-entity-1="ent0005" data-entity-2="ent0010" data-link-type="dependency" data-source-line="36" id="lnk21"><path d="M452.83,116.2383 C487.55,116.2383 525.7,116.2383 525.7,116.2383 C525.7,116.2383 525.7,221.2483 525.7,265.9483" fill="none" id="Order-to-Inventory" style="stroke:#181818;stroke-width:1;"/><polygon fill="#181818" points="525.7,270.9483,529.7,261.9483,525.7,265.9483,521.7,261.9483,525.7,270.9483" style="stroke:#181818;stroke-width:1;stroke-linejoin:miter;stroke-miterlimit:10;"/><text fill="#000000" font-family="sans-serif" font-size="13" lengthAdjust="spacing" textLength="105.3774" x="419.7" y="170.7266">reserve / release</text></g><!--link Order to Fraud--><g class="link" data-entity-1="ent0005" data-entity-2="ent0011" data-link-type="dependency" data-source-line="37" id="lnk22"><path d="M452.74,107.2383 C492.37,107.2383 538.7,107.2383 538.7,107.2383 C538.7,107.2383 538.7,163.1983 538.7,194.8683" fill="none" id="Order-to-Fraud" style="stroke:#181818;stroke-width:1;"/><polygon fill="#181818" points="538.7,199.8683,542.7,190.8683,538.7,194.8683,534.7,190.8683,538.7,199.8683" style="stroke:#181818;stroke-width:1;stroke-linejoin:miter;stroke-miterlimit:10;"/><text fill="#000000" font-family="sans-serif" font-size="13" lengthAdjust="spacing" textLength="41.1582" x="496.7" y="124.1466">screen</text></g><!--link Order to Payment--><g class="link" data-entity-1="ent0005" data-entity-2="ent0013" data-link-type="dependency" data-source-line="38" id="lnk23"><path d="M415.7,125.8183 C415.7,189.9583 415.7,400.4883 415.7,400.4883 C415.7,400.4883 464.84,400.4883 512.21,400.4883" fill="none" id="Order-to-Payment" style="stroke:#181818;stroke-width:1;"/><polygon fill="#181818" points="517.21,400.4883,508.21,396.4883,512.21,400.4883,508.21,404.4883,517.21,400.4883" style="stroke:#181818;stroke-width:1;stroke-linejoin:miter;stroke-miterlimit:10;"/><text fill="#000000" font-family="sans-serif" font-size="13" lengthAdjust="spacing" textLength="116.6382" x="298.7" y="327.4766">authorize / refund</text></g><!--link Order to Broker--><g class="link" data-entity-1="ent0005" data-entity-2="ent0015" data-link-type="dependency" data-source-line="39" id="lnk24"><path d="M378.7,126.1683 C378.7,205.6183 378.7,511.4883 378.7,511.4883 C378.7,511.4883 447.55,511.4883 507.27,511.4883" fill="none" id="Order-to-Broker" style="stroke:#181818;stroke-width:1;"/><polygon fill="#181818" points="512.27,511.4883,503.27,507.4883,507.27,511.4883,503.27,515.4883,512.27,511.4883" style="stroke:#181818;stroke-width:1;stroke-linejoin:miter;stroke-miterlimit:10;"/><text fill="#000000" font-family="sans-serif" font-size="13" lengthAdjust="spacing" textLength="91.5269" x="286.7" y="399.1766">publish events</text></g><?plantuml-src NLAzZjGm4Exp5ACjw4xqAP1kxmUkWHKvYG9HU9tPZRM97SREee0ek1HSGmaK2EbAQ6YsvMqixZaOEzdTvAH86Nq_C-FFTigL21TdzxjVzzy---wxxtxxhlFThU---Xkk__hkpd_wuszslkFlPqI-nFhstuzTKkBAWJD0Qbquo1MXTChen6wKhWM92gIfQgDHkyorF2m8X5wNE9AKIgDhQmH3hZ19Sj30xAnKR9t1XmJWzIjSmYKPxL3dRq1OO23vEDMRgaAI28jIk9MXQh2-e1m9JXTNqSV_8vWXRPN4I4I4gLmuiHIM6_QQy_aiqETpvjWC9oTF3jfU4H2cfzkyL7O3Zo1pHcw6HQxqbWzag9tCFQ11SacYoITqH1xqNeYsOW_CJQDpGUtGVmy_5GxVYJRQ1-n1WrFRQbbmdAPX2Hc9rYgzxlkyRR0vdFvY6mUHsI357FeoZCiALTVicgox1uFWkN5gfQG8hs8YYaGuRzyi1ZWoZj11oTk71n2GS0KfFBk-NcJ9CVvZj2a_Cykp41vpLIBVv4ZNvvk2bOIeHyG-knH4mm-HrFk-mOeJ7ic6rLAecsMfR04Ovjh_?></g></svg>