<?xml version="1.0" encoding="UTF-8" standalone="no"?>
<!DOCTYPE svg PUBLIC "-//W3C//DTD SVG 1.1//EN"
 "http://www.w3.org/Graphics/SVG/1.1/DTD/svg11.dtd">
<!-- Generated by graphviz version 15.1.0 (20260618.0150)
 -->
<!-- Title: OrderComponents Pages: 1 -->
<svg width="852pt" height="544pt"
 viewBox="0.00 0.00 852.00 544.00" xmlns="http://www.w3.org/2000/svg" xmlns:xlink="http://www.w3.org/1999/xlink">
<g id="graph0" class="graph" transform="scale(1 1) rotate(0) translate(21.6 522.1)">
<title>OrderComponents</title>
<polygon fill="white" stroke="none" points="-21.6,21.6 -21.6,-522.1 830.23,-522.1 830.23,21.6 -21.6,21.6"/>
<text xml:space="preserve" text-anchor="middle" x="404.31" y="-483.2" font-family="Helvetica,sans-Serif" font-size="14.00">EC注文プラットフォームのコンポーネント図</text>
<g id="clust1" class="cluster">
<title>cluster_client</title>
<path fill="white" stroke="#9cb7ac" d="M20,-393C20,-393 97,-393 97,-393 103,-393 109,-399 109,-405 109,-405 109,-456 109,-456 109,-462 103,-468 97,-468 97,-468 20,-468 20,-468 14,-468 8,-462 8,-456 8,-456 8,-405 8,-405 8,-399 14,-393 20,-393"/>
<text xml:space="preserve" text-anchor="middle" x="58.5" y="-450.7" font-family="Helvetica,sans-Serif" font-size="14.00">Client</text>
</g>
<g id="clust2" class="cluster">
<title>cluster_commerce</title>
<path fill="white" stroke="#9cb7ac" d="M188.25,-393C188.25,-393 595.75,-393 595.75,-393 601.75,-393 607.75,-399 607.75,-405 607.75,-405 607.75,-456 607.75,-456 607.75,-462 601.75,-468 595.75,-468 595.75,-468 188.25,-468 188.25,-468 182.25,-468 176.25,-462 176.25,-456 176.25,-456 176.25,-405 176.25,-405 176.25,-399 182.25,-393 188.25,-393"/>
<text xml:space="preserve" text-anchor="middle" x="392" y="-450.7" font-family="Helvetica,sans-Serif" font-size="14.00">Commerce Platform</text>
</g>
<g id="clust3" class="cluster">
<title>cluster_checks</title>
<path fill="white" stroke="#9cb7ac" d="M522.88,-242C522.88,-242 614.12,-242 614.12,-242 620.12,-242 626.12,-248 626.12,-254 626.12,-254 626.12,-373 626.12,-373 626.12,-379 620.12,-385 614.12,-385 614.12,-385 522.88,-385 522.88,-385 516.88,-385 510.88,-379 510.88,-373 510.88,-373 510.88,-254 510.88,-254 510.88,-248 516.88,-242 522.88,-242"/>
<text xml:space="preserve" text-anchor="middle" x="568.5" y="-367.7" font-family="Helvetica,sans-Serif" font-size="14.00">Risk &amp; Stock</text>
</g>
<g id="clust4" class="cluster">
<title>cluster_payment</title>
<path fill="white" stroke="#9cb7ac" d="M515.25,-159C515.25,-159 622.75,-159 622.75,-159 628.75,-159 634.75,-165 634.75,-171 634.75,-171 634.75,-222 634.75,-222 634.75,-228 628.75,-234 622.75,-234 622.75,-234 515.25,-234 515.25,-234 509.25,-234 503.25,-228 503.25,-222 503.25,-222 503.25,-171 503.25,-171 503.25,-165 509.25,-159 515.25,-159"/>
<text xml:space="preserve" text-anchor="middle" x="569" y="-216.7" font-family="Helvetica,sans-Serif" font-size="14.00">Payment Boundary</text>
</g>
<g id="clust5" class="cluster">
<title>cluster_async</title>
<path fill="white" stroke="#9cb7ac" d="M517.62,-8C517.62,-8 788.62,-8 788.62,-8 794.62,-8 800.62,-14 800.62,-20 800.62,-20 800.62,-139 800.62,-139 800.62,-145 794.62,-151 788.62,-151 788.62,-151 517.62,-151 517.62,-151 511.62,-151 505.62,-145 505.62,-139 505.62,-139 505.62,-20 505.62,-20 505.62,-14 511.62,-8 517.62,-8"/>
<text xml:space="preserve" text-anchor="middle" x="653.12" y="-133.7" font-family="Helvetica,sans-Serif" font-size="14.00">Asynchronous Processing</text>
</g>
<!-- Web -->
<g id="node1" class="node">
<title>Web</title>
<polygon fill="#f7faf8" stroke="#45635a" points="101,-437 16,-437 16,-433 12,-433 12,-429 16,-429 16,-409 12,-409 12,-405 16,-405 16,-401 101,-401 101,-437"/>
<polyline fill="none" stroke="#45635a" points="16,-433 20,-433 20,-429 16,-429"/>
<polyline fill="none" stroke="#45635a" points="16,-409 20,-409 20,-405 16,-405"/>
<text xml:space="preserve" text-anchor="middle" x="58.5" y="-414.55" font-family="Helvetica,sans-Serif" font-size="11.00">Web Frontend</text>
</g>
<!-- API -->
<g id="node2" class="node">
<title>API</title>
<polygon fill="#f7faf8" stroke="#45635a" points="248.25,-437 184.25,-437 184.25,-433 180.25,-433 180.25,-429 184.25,-429 184.25,-409 180.25,-409 180.25,-405 184.25,-405 184.25,-401 248.25,-401 248.25,-437"/>
<polyline fill="none" stroke="#45635a" points="184.25,-433 188.25,-433 188.25,-429 184.25,-429"/>
<polyline fill="none" stroke="#45635a" points="184.25,-409 188.25,-409 188.25,-405 184.25,-405"/>
<text xml:space="preserve" text-anchor="middle" x="216.25" y="-414.55" font-family="Helvetica,sans-Serif" font-size="11.00">Order API</text>
</g>
<!-- Web&#45;&gt;API -->
<g id="edge5" class="edge">
<title>Web&#45;&gt;API</title>
<path fill="none" stroke="#52645d" d="M101.19,-419C101.19,-419 175.28,-419 175.28,-419"/>
<polygon fill="#52645d" stroke="#52645d" points="175.28,-421.45 182.28,-419 175.28,-416.55 175.28,-421.45"/>
<text xml:space="preserve" text-anchor="middle" x="142.62" y="-420.2" font-family="Helvetica,sans-Serif" font-size="9.00">HTTPS</text>
</g>
<!-- Order -->
<g id="node3" class="node">
<title>Order</title>
<polygon fill="#f7faf8" stroke="#45635a" points="386,-437 303.25,-437 303.25,-433 299.25,-433 299.25,-429 303.25,-429 303.25,-409 299.25,-409 299.25,-405 303.25,-405 303.25,-401 386,-401 386,-437"/>
<polyline fill="none" stroke="#45635a" points="303.25,-433 307.25,-433 307.25,-429 303.25,-429"/>
<polyline fill="none" stroke="#45635a" points="303.25,-409 307.25,-409 307.25,-405 303.25,-405"/>
<text xml:space="preserve" text-anchor="middle" x="344.62" y="-414.55" font-family="Helvetica,sans-Serif" font-size="11.00">Order Service</text>
</g>
<!-- API&#45;&gt;Order -->
<g id="edge1" class="edge">
<title>API&#45;&gt;Order</title>
<path fill="none" stroke="#52645d" d="M248.64,-419C248.64,-419 294.49,-419 294.49,-419"/>
<polygon fill="#52645d" stroke="#52645d" points="294.49,-421.45 301.49,-419 294.49,-416.55 294.49,-421.45"/>
</g>
<!-- DB -->
<g id="node4" class="node">
<title>DB</title>
<path fill="#f7faf8" stroke="#45635a" d="M599.75,-433.73C599.75,-435.53 585.74,-437 568.5,-437 551.26,-437 537.25,-435.53 537.25,-433.73 537.25,-433.73 537.25,-404.27 537.25,-404.27 537.25,-402.47 551.26,-401 568.5,-401 585.74,-401 599.75,-402.47 599.75,-404.27 599.75,-404.27 599.75,-433.73 599.75,-433.73"/>
<path fill="none" stroke="#45635a" d="M599.75,-433.73C599.75,-431.92 585.74,-430.45 568.5,-430.45 551.26,-430.45 537.25,-431.92 537.25,-433.73"/>
<text xml:space="preserve" text-anchor="middle" x="568.5" y="-414.55" font-family="Helvetica,sans-Serif" font-size="11.00">Order DB</text>
</g>
<!-- Order&#45;&gt;DB -->
<g id="edge2" class="edge">
<title>Order&#45;&gt;DB</title>
<path fill="none" stroke="#52645d" d="M386.47,-425C386.47,-425 528.46,-425 528.46,-425"/>
<polygon fill="#52645d" stroke="#52645d" points="528.46,-427.45 535.46,-425 528.46,-422.55 528.46,-427.45"/>
</g>
<!-- Inventory -->
<g id="node5" class="node">
<title>Inventory</title>
<polygon fill="#f7faf8" stroke="#45635a" points="618.12,-354 518.88,-354 518.88,-350 514.88,-350 514.88,-346 518.88,-346 518.88,-326 514.88,-326 514.88,-322 518.88,-322 518.88,-318 618.12,-318 618.12,-354"/>
<polyline fill="none" stroke="#45635a" points="518.88,-350 522.88,-350 522.88,-346 518.88,-346"/>
<polyline fill="none" stroke="#45635a" points="518.88,-326 522.88,-326 522.88,-322 518.88,-322"/>
<text xml:space="preserve" text-anchor="middle" x="568.5" y="-331.55" font-family="Helvetica,sans-Serif" font-size="11.00">Inventory Service</text>
</g>
<!-- Order&#45;&gt;Inventory -->
<g id="edge6" class="edge">
<title>Order&#45;&gt;Inventory</title>
<path fill="none" stroke="#52645d" d="M386.15,-413C440.14,-413 527.62,-413 527.62,-413 527.62,-413 527.62,-362.76 527.62,-362.76"/>
<polygon fill="#52645d" stroke="#52645d" points="530.08,-362.76 527.63,-355.76 525.18,-362.76 530.08,-362.76"/>
<text xml:space="preserve" text-anchor="middle" x="448.62" y="-370.2" font-family="Helvetica,sans-Serif" font-size="9.00">reserve / release</text>
</g>
<!-- Fraud -->
<g id="node6" class="node">
<title>Fraud</title>
<polygon fill="#f7faf8" stroke="#45635a" points="610.25,-286 526.75,-286 526.75,-282 522.75,-282 522.75,-278 526.75,-278 526.75,-258 522.75,-258 522.75,-254 526.75,-254 526.75,-250 610.25,-250 610.25,-286"/>
<polyline fill="none" stroke="#45635a" points="526.75,-282 530.75,-282 530.75,-278 526.75,-278"/>
<polyline fill="none" stroke="#45635a" points="526.75,-258 530.75,-258 530.75,-254 526.75,-254"/>
<text xml:space="preserve" text-anchor="middle" x="568.5" y="-263.55" font-family="Helvetica,sans-Serif" font-size="11.00">Fraud Service</text>
</g>
<!-- Order&#45;&gt;Fraud -->
<g id="edge7" class="edge">
<title>Order&#45;&gt;Fraud</title>
<path fill="none" stroke="#52645d" d="M365.62,-400.79C365.62,-360.62 365.62,-268 365.62,-268 365.62,-268 517.95,-268 517.95,-268"/>
<polygon fill="#52645d" stroke="#52645d" points="517.95,-270.45 524.95,-268 517.95,-265.55 517.95,-270.45"/>
<text xml:space="preserve" text-anchor="middle" x="448.62" y="-279.2" font-family="Helvetica,sans-Serif" font-size="9.00">screen</text>
</g>
<!-- Payment -->
<g id="node7" class="node">
<title>Payment</title>
<polygon fill="#f7faf8" stroke="#45635a" points="620.75,-203 516.25,-203 516.25,-199 512.25,-199 512.25,-195 516.25,-195 516.25,-175 512.25,-175 512.25,-171 516.25,-171 516.25,-167 620.75,-167 620.75,-203"/>
<polyline fill="none" stroke="#45635a" points="516.25,-199 520.25,-199 520.25,-195 516.25,-195"/>
<polyline fill="none" stroke="#45635a" points="516.25,-175 520.25,-175 520.25,-171 516.25,-171"/>
<text xml:space="preserve" text-anchor="middle" x="568.5" y="-180.55" font-family="Helvetica,sans-Serif" font-size="11.00">Payment Gateway</text>
</g>
<!-- Order&#45;&gt;Payment -->
<g id="edge8" class="edge">
<title>Order&#45;&gt;Payment</title>
<path fill="none" stroke="#52645d" d="M344.62,-400.64C344.62,-345.48 344.62,-185 344.62,-185 344.62,-185 507.5,-185 507.5,-185"/>
<polygon fill="#52645d" stroke="#52645d" points="507.5,-187.45 514.5,-185 507.5,-182.55 507.5,-187.45"/>
<text xml:space="preserve" text-anchor="middle" x="448.62" y="-209.2" font-family="Helvetica,sans-Serif" font-size="9.00">authorize / refund</text>
</g>
<!-- Broker -->
<g id="node8" class="node">
<title>Broker</title>
<polygon fill="#f3efff" stroke="#6d4aff" points="623.38,-120 517.62,-120 513.62,-116 513.62,-84 619.38,-84 623.38,-88 623.38,-120"/>
<polyline fill="none" stroke="#6d4aff" points="619.38,-116 513.62,-116"/>
<polyline fill="none" stroke="#6d4aff" points="619.38,-116 619.38,-84"/>
<polyline fill="none" stroke="#6d4aff" points="619.38,-116 623.38,-120"/>
<text xml:space="preserve" text-anchor="middle" x="568.5" y="-97.55" font-family="Helvetica,sans-Serif" font-size="11.00">Order Event Broker</text>
</g>
<!-- Order&#45;&gt;Broker -->
<g id="edge9" class="edge">
<title>Order&#45;&gt;Broker</title>
<path fill="none" stroke="#6d4aff" stroke-dasharray="5,2" d="M323.62,-400.59C323.62,-332.93 323.62,-102 323.62,-102 323.62,-102 504.73,-102 504.73,-102"/>
<polygon fill="#6d4aff" stroke="#6d4aff" points="504.73,-104.45 511.73,-102 504.73,-99.55 504.73,-104.45"/>
<text xml:space="preserve" text-anchor="middle" x="448.62" y="-144.2" font-family="Helvetica,sans-Serif" font-size="9.00">publish events</text>
</g>
<!-- Shipping -->
<g id="node9" class="node">
<title>Shipping</title>
<polygon fill="#f7faf8" stroke="#45635a" points="787,-52 690,-52 690,-48 686,-48 686,-44 690,-44 690,-24 686,-24 686,-20 690,-20 690,-16 787,-16 787,-52"/>
<polyline fill="none" stroke="#45635a" points="690,-48 694,-48 694,-44 690,-44"/>
<polyline fill="none" stroke="#45635a" points="690,-24 694,-24 694,-20 690,-20"/>
<text xml:space="preserve" text-anchor="middle" x="738.5" y="-29.55" font-family="Helvetica,sans-Serif" font-size="11.00">Shipping Service</text>
</g>
<!-- Broker&#45;&gt;Shipping -->
<g id="edge3" class="edge">
<title>Broker&#45;&gt;Shipping</title>
<path fill="none" stroke="#52645d" stroke-dasharray="5,2" d="M568.62,-83.78C568.62,-63.63 568.62,-34 568.62,-34 568.62,-34 681.31,-34 681.31,-34"/>
<polygon fill="#52645d" stroke="#52645d" points="681.31,-36.45 688.31,-34 681.31,-31.55 681.31,-36.45"/>
</g>
<!-- Notify -->
<g id="node10" class="node">
<title>Notify</title>
<polygon fill="#f7faf8" stroke="#45635a" points="792.62,-120 684.38,-120 684.38,-116 680.38,-116 680.38,-112 684.38,-112 684.38,-92 680.38,-92 680.38,-88 684.38,-88 684.38,-84 792.62,-84 792.62,-120"/>
<polyline fill="none" stroke="#45635a" points="684.38,-116 688.38,-116 688.38,-112 684.38,-112"/>
<polyline fill="none" stroke="#45635a" points="684.38,-92 688.38,-92 688.38,-88 684.38,-88"/>
<text xml:space="preserve" text-anchor="middle" x="738.5" y="-97.55" font-family="Helvetica,sans-Serif" font-size="11.00">Notification Service</text>
</g>
<!-- Broker&#45;&gt;Notify -->
<g id="edge4" class="edge">
<title>Broker&#45;&gt;Notify</title>
<path fill="none" stroke="#52645d" stroke-dasharray="5,2" d="M623.69,-102C623.69,-102 675.65,-102 675.65,-102"/>
<polygon fill="#52645d" stroke="#52645d" points="675.65,-104.45 682.65,-102 675.65,-99.55 675.65,-104.45"/>
</g>
</g>
</svg>
