<svg xmlns="http://www.w3.org/2000/svg" xmlns:xlink="http://www.w3.org/1999/xlink" contentStyleType="text/css" data-diagram-type="CLASS" height="791px" preserveAspectRatio="none" style="width:947px;height:791px;background:#FFFFFF;" version="1.1" viewBox="0 0 947 791" width="947px" zoomAndPan="magnify"><?plantuml 1.2026.6?><defs/><g><g class="title" data-source-line="1"><text fill="#000000" font-family="sans-serif" font-size="14" font-weight="700" lengthAdjust="spacing" textLength="172.3818" x="383.8091" y="23.5352">EC&#27880;&#25991;&#12489;&#12513;&#12452;&#12531;&#12398;&#12463;&#12521;&#12473;&#22259;</text></g><!--cluster Order Domain--><g class="cluster" data-qualified-name="Order Domain" data-source-line="6" id="ent0001"><rect fill="none" height="552.6" rx="2.5" ry="2.5" style="stroke:#000000;stroke-width:1.5;" width="478" x="7" y="216.9483"/><text fill="#000000" font-family="sans-serif" font-size="14" font-weight="700" lengthAdjust="spacing" textLength="101.9443" x="195.0278" y="232.4834">Order Domain</text></g><!--cluster Customer Domain--><g class="cluster" data-qualified-name="Customer Domain" data-source-line="39" id="ent0007"><rect fill="none" height="148.46" rx="2.5" ry="2.5" style="stroke:#000000;stroke-width:1.5;" width="158" x="287" y="44.4883"/><text fill="#000000" font-family="sans-serif" font-size="14" font-weight="700" lengthAdjust="spacing" textLength="130.0537" x="300.9731" y="60.0234">Customer Domain</text></g><!--cluster Catalog Domain--><g class="cluster" data-qualified-name="Catalog Domain" data-source-line="47" id="ent0009"><rect fill="none" height="148.46" rx="2.5" ry="2.5" style="stroke:#000000;stroke-width:1.5;" width="144" x="509" y="629.3283"/><text fill="#000000" font-family="sans-serif" font-size="14" font-weight="700" lengthAdjust="spacing" textLength="115.0488" x="523.4756" y="644.8634">Catalog Domain</text></g><!--cluster Fulfillment--><g class="cluster" data-qualified-name="Fulfillment" data-source-line="55" id="ent0011"><rect fill="none" height="164.96" rx="2.5" ry="2.5" style="stroke:#000000;stroke-width:1.5;" width="424" x="509" y="440.3683"/><text fill="#000000" font-family="sans-serif" font-size="14" font-weight="700" lengthAdjust="spacing" textLength="77.8955" x="682.0522" y="455.9034">Fulfillment</text></g><!--class Order--><g class="entity" data-qualified-name="Order Domain.Order" data-source-line="7" id="ent0002"><rect fill="#F1F1F1" height="163.418" rx="2.5" ry="2.5" style="stroke:#181818;stroke-width:0.5;" width="206.1201" x="262.94" y="251.9483"/><ellipse cx="342.2779" cy="267.9483" fill="#ADD1B2" rx="11" ry="11" style="stroke:#181818;stroke-width:1;"/><path d="M344.751,274.0913 Q344.17,274.3902 343.5308,274.5396 Q342.8917,274.689 342.1861,274.689 Q339.6793,274.689 338.3594,273.0371 Q337.0396,271.3853 337.0396,268.2642 Q337.0396,265.1348 338.3594,263.4829 Q339.6793,261.8311 342.1861,261.8311 Q342.8917,261.8311 343.5391,261.9805 Q344.1866,262.1299 344.751,262.4287 L344.751,265.1514 Q344.1202,264.5704 343.5267,264.3006 Q342.9332,264.0308 342.3023,264.0308 Q340.9576,264.0308 340.2728,265.0975 Q339.5879,266.1641 339.5879,268.2642 Q339.5879,270.356 340.2728,271.4226 Q340.9576,272.4893 342.3023,272.4893 Q342.9332,272.4893 343.5267,272.2195 Q344.1202,271.9497 344.751,271.3687 Z " fill="#000000"/><text fill="#000000" font-family="sans-serif" font-size="14" lengthAdjust="spacing" textLength="38.9443" x="362.7779" y="273.2393">Order</text><line style="stroke:#181818;stroke-width:0.5;" x1="263.94" x2="468.0601" y1="283.9483" y2="283.9483"/><g data-visibility-modifier="PUBLIC_FIELD"><ellipse cx="273.94" cy="297.6924" fill="none" rx="3" ry="3" style="stroke:#038048;stroke-width:1;"/></g><text fill="#000000" font-family="sans-serif" font-size="14" lengthAdjust="spacing" textLength="73.5068" x="282.94" y="301.4834">id: OrderId</text><g data-visibility-modifier="PUBLIC_FIELD"><ellipse cx="273.94" cy="314.1807" fill="none" rx="3" ry="3" style="stroke:#038048;stroke-width:1;"/></g><text fill="#000000" font-family="sans-serif" font-size="14" lengthAdjust="spacing" textLength="130.5391" x="282.94" y="317.9717">status: OrderStatus</text><g data-visibility-modifier="PUBLIC_FIELD"><ellipse cx="273.94" cy="330.669" fill="none" rx="3" ry="3" style="stroke:#038048;stroke-width:1;"/></g><text fill="#000000" font-family="sans-serif" font-size="14" lengthAdjust="spacing" textLength="84.1709" x="282.94" y="334.46">total: Money</text><line style="stroke:#181818;stroke-width:0.5;" x1="263.94" x2="468.0601" y1="341.4131" y2="341.4131"/><g data-visibility-modifier="PUBLIC_METHOD"><ellipse cx="273.94" cy="355.1573" fill="#84BE84" rx="3" ry="3" style="stroke:#038048;stroke-width:1;"/></g><text fill="#000000" font-family="sans-serif" font-size="14" lengthAdjust="spacing" textLength="180.1201" x="282.94" y="358.9483">addLine(product, quantity)</text><g data-visibility-modifier="PUBLIC_METHOD"><ellipse cx="273.94" cy="371.6455" fill="#84BE84" rx="3" ry="3" style="stroke:#038048;stroke-width:1;"/></g><text fill="#000000" font-family="sans-serif" font-size="14" lengthAdjust="spacing" textLength="145.8652" x="282.94" y="375.4366">applyDiscount(policy)</text><g data-visibility-modifier="PUBLIC_METHOD"><ellipse cx="273.94" cy="388.1338" fill="#84BE84" rx="3" ry="3" style="stroke:#038048;stroke-width:1;"/></g><text fill="#000000" font-family="sans-serif" font-size="14" lengthAdjust="spacing" textLength="61.5576" x="282.94" y="391.9248">confirm()</text><g data-visibility-modifier="PUBLIC_METHOD"><ellipse cx="273.94" cy="404.6221" fill="#84BE84" rx="3" ry="3" style="stroke:#038048;stroke-width:1;"/></g><text fill="#000000" font-family="sans-serif" font-size="14" lengthAdjust="spacing" textLength="51.7139" x="282.94" y="408.4131">cancel()</text></g><!--class OrderLine--><g class="entity" data-qualified-name="Order Domain.OrderLine" data-source-line="17" id="ent0003"><rect fill="#F1F1F1" height="113.9531" rx="2.5" ry="2.5" style="stroke:#181818;stroke-width:0.5;" width="165.5693" x="303.22" y="475.3683"/><ellipse cx="348.2825" cy="491.3683" fill="#ADD1B2" rx="11" ry="11" style="stroke:#181818;stroke-width:1;"/><path d="M350.7556,497.5113 Q350.1746,497.8102 349.5354,497.9596 Q348.8963,498.109 348.1907,498.109 Q345.6839,498.109 344.364,496.4571 Q343.0442,494.8053 343.0442,491.6842 Q343.0442,488.5548 344.364,486.9029 Q345.6839,485.2511 348.1907,485.2511 Q348.8963,485.2511 349.5437,485.4005 Q350.1912,485.5499 350.7556,485.8487 L350.7556,488.5714 Q350.1248,487.9904 349.5313,487.7206 Q348.9378,487.4508 348.3069,487.4508 Q346.9622,487.4508 346.2774,488.5175 Q345.5926,489.5841 345.5926,491.6842 Q345.5926,493.776 346.2774,494.8426 Q346.9622,495.9093 348.3069,495.9093 Q348.9378,495.9093 349.5313,495.6395 Q350.1248,495.3697 350.7556,494.7887 Z " fill="#000000"/><text fill="#000000" font-family="sans-serif" font-size="14" lengthAdjust="spacing" textLength="66.9443" x="368.7825" y="496.6593">OrderLine</text><line style="stroke:#181818;stroke-width:0.5;" x1="304.22" x2="467.7893" y1="507.3683" y2="507.3683"/><g data-visibility-modifier="PUBLIC_FIELD"><ellipse cx="314.22" cy="521.1124" fill="none" rx="3" ry="3" style="stroke:#038048;stroke-width:1;"/></g><text fill="#000000" font-family="sans-serif" font-size="14" lengthAdjust="spacing" textLength="139.5693" x="323.22" y="524.9034">productId: ProductId</text><g data-visibility-modifier="PUBLIC_FIELD"><ellipse cx="314.22" cy="537.6007" fill="none" rx="3" ry="3" style="stroke:#038048;stroke-width:1;"/></g><text fill="#000000" font-family="sans-serif" font-size="14" lengthAdjust="spacing" textLength="82.585" x="323.22" y="541.3917">quantity: int</text><g data-visibility-modifier="PUBLIC_FIELD"><ellipse cx="314.22" cy="554.089" fill="none" rx="3" ry="3" style="stroke:#038048;stroke-width:1;"/></g><text fill="#000000" font-family="sans-serif" font-size="14" lengthAdjust="spacing" textLength="112.4648" x="323.22" y="557.88">unitPrice: Money</text><line style="stroke:#181818;stroke-width:0.5;" x1="304.22" x2="467.7893" y1="564.8331" y2="564.8331"/><g data-visibility-modifier="PUBLIC_METHOD"><ellipse cx="314.22" cy="578.5773" fill="#84BE84" rx="3" ry="3" style="stroke:#038048;stroke-width:1;"/></g><text fill="#000000" font-family="sans-serif" font-size="14" lengthAdjust="spacing" textLength="117.9131" x="323.22" y="582.3683">subtotal(): Money</text></g><!--class DiscountPolicy--><g class="entity" data-qualified-name="Order Domain.DiscountPolicy" data-source-line="24" id="ent0004"><rect fill="#F1F1F1" height="64.4883" rx="2.5" ry="2.5" style="stroke:#181818;stroke-width:0.5;" width="205.3066" x="63.35" y="500.0983"/><ellipse cx="112.268" cy="516.0983" fill="#B4A7E5" rx="11" ry="11" style="stroke:#181818;stroke-width:1;"/><path d="M108.6957,512.3634 L108.6957,510.2052 L116.0751,510.2052 L116.0751,512.3634 L113.6098,512.3634 L113.6098,520.4401 L116.0751,520.4401 L116.0751,522.5983 L108.6957,522.5983 L108.6957,520.4401 L111.161,520.4401 L111.161,512.3634 Z " fill="#000000"/><text fill="#000000" font-family="sans-serif" font-size="14" font-style="italic" lengthAdjust="spacing" textLength="98.9707" x="132.768" y="521.3893">DiscountPolicy</text><line style="stroke:#181818;stroke-width:0.5;" x1="64.35" x2="267.6566" y1="532.0983" y2="532.0983"/><line style="stroke:#181818;stroke-width:0.5;" x1="64.35" x2="267.6566" y1="540.0983" y2="540.0983"/><g data-visibility-modifier="PUBLIC_METHOD"><ellipse cx="74.35" cy="553.8424" fill="#84BE84" rx="3" ry="3" style="stroke:#038048;stroke-width:1;"/></g><text fill="#000000" font-family="sans-serif" font-size="14" lengthAdjust="spacing" textLength="179.3066" x="83.35" y="557.6334">discountFor(order): Money</text></g><!--class PercentageDiscount--><g class="entity" data-qualified-name="Order Domain.PercentageDiscount" data-source-line="28" id="ent0005"><rect fill="#F1F1F1" height="80.9766" rx="2.5" ry="2.5" style="stroke:#181818;stroke-width:0.5;" width="205.3066" x="23.35" y="672.5683"/><ellipse cx="55.8235" cy="688.5683" fill="#ADD1B2" rx="11" ry="11" style="stroke:#181818;stroke-width:1;"/><path d="M58.2967,694.7113 Q57.7156,695.0102 57.0765,695.1596 Q56.4373,695.309 55.7317,695.309 Q53.2249,695.309 51.9051,693.6571 Q50.5853,692.0053 50.5853,688.8842 Q50.5853,685.7548 51.9051,684.1029 Q53.2249,682.4511 55.7317,682.4511 Q56.4373,682.4511 57.0848,682.6005 Q57.7322,682.7499 58.2967,683.0487 L58.2967,685.7714 Q57.6658,685.1904 57.0723,684.9206 Q56.4788,684.6508 55.8479,684.6508 Q54.5032,684.6508 53.8184,685.7175 Q53.1336,686.7841 53.1336,688.8842 Q53.1336,690.976 53.8184,692.0426 Q54.5032,693.1093 55.8479,693.1093 Q56.4788,693.1093 57.0723,692.8395 Q57.6658,692.5697 58.2967,691.9887 Z " fill="#000000"/><text fill="#000000" font-family="sans-serif" font-size="14" lengthAdjust="spacing" textLength="134.4766" x="73.7065" y="693.8593">PercentageDiscount</text><line style="stroke:#181818;stroke-width:0.5;" x1="24.35" x2="227.6566" y1="704.5683" y2="704.5683"/><g data-visibility-modifier="PUBLIC_FIELD"><ellipse cx="34.35" cy="718.3124" fill="none" rx="3" ry="3" style="stroke:#038048;stroke-width:1;"/></g><text fill="#000000" font-family="sans-serif" font-size="14" lengthAdjust="spacing" textLength="88.0332" x="43.35" y="722.1034">rate: decimal</text><line style="stroke:#181818;stroke-width:0.5;" x1="24.35" x2="227.6566" y1="729.0566" y2="729.0566"/><g data-visibility-modifier="PUBLIC_METHOD"><ellipse cx="34.35" cy="742.8007" fill="#84BE84" rx="3" ry="3" style="stroke:#038048;stroke-width:1;"/></g><text fill="#000000" font-family="sans-serif" font-size="14" lengthAdjust="spacing" textLength="179.3066" x="43.35" y="746.5917">discountFor(order): Money</text></g><!--class CouponDiscount--><g class="entity" data-qualified-name="Order Domain.CouponDiscount" data-source-line="33" id="ent0006"><rect fill="#F1F1F1" height="80.9766" rx="2.5" ry="2.5" style="stroke:#181818;stroke-width:0.5;" width="205.3066" x="263.35" y="672.5683"/><ellipse cx="305.4304" cy="688.5683" fill="#ADD1B2" rx="11" ry="11" style="stroke:#181818;stroke-width:1;"/><path d="M307.9036,694.7113 Q307.3225,695.0102 306.6833,695.1596 Q306.0442,695.309 305.3386,695.309 Q302.8318,695.309 301.512,693.6571 Q300.1921,692.0053 300.1921,688.8842 Q300.1921,685.7548 301.512,684.1029 Q302.8318,682.4511 305.3386,682.4511 Q306.0442,682.4511 306.6917,682.6005 Q307.3391,682.7499 307.9036,683.0487 L307.9036,685.7714 Q307.2727,685.1904 306.6792,684.9206 Q306.0857,684.6508 305.4548,684.6508 Q304.1101,684.6508 303.4253,685.7175 Q302.7405,686.7841 302.7405,688.8842 Q302.7405,690.976 303.4253,692.0426 Q304.1101,693.1093 305.4548,693.1093 Q306.0857,693.1093 306.6792,692.8395 Q307.2727,692.5697 307.9036,691.9887 Z " fill="#000000"/><text fill="#000000" font-family="sans-serif" font-size="14" lengthAdjust="spacing" textLength="113.1279" x="325.4483" y="693.8593">CouponDiscount</text><line style="stroke:#181818;stroke-width:0.5;" x1="264.35" x2="467.6566" y1="704.5683" y2="704.5683"/><g data-visibility-modifier="PUBLIC_FIELD"><ellipse cx="274.35" cy="718.3124" fill="none" rx="3" ry="3" style="stroke:#038048;stroke-width:1;"/></g><text fill="#000000" font-family="sans-serif" font-size="14" lengthAdjust="spacing" textLength="134.2852" x="283.35" y="722.1034">couponCode: String</text><line style="stroke:#181818;stroke-width:0.5;" x1="264.35" x2="467.6566" y1="729.0566" y2="729.0566"/><g data-visibility-modifier="PUBLIC_METHOD"><ellipse cx="274.35" cy="742.8007" fill="#84BE84" rx="3" ry="3" style="stroke:#038048;stroke-width:1;"/></g><text fill="#000000" font-family="sans-serif" font-size="14" lengthAdjust="spacing" textLength="179.3066" x="283.35" y="746.5917">discountFor(order): Money</text></g><!--class Customer--><g class="entity" data-qualified-name="Customer Domain.Customer" data-source-line="40" id="ent0008"><rect fill="#F1F1F1" height="97.4648" rx="2.5" ry="2.5" style="stroke:#181818;stroke-width:0.5;" width="126.5088" x="302.75" y="79.4883"/><ellipse cx="330.6031" cy="95.4883" fill="#ADD1B2" rx="11" ry="11" style="stroke:#181818;stroke-width:1;"/><path d="M333.0763,101.6313 Q332.4952,101.9302 331.8561,102.0796 Q331.2169,102.229 330.5113,102.229 Q328.0045,102.229 326.6847,100.5771 Q325.3648,98.9253 325.3648,95.8042 Q325.3648,92.6748 326.6847,91.0229 Q328.0045,89.3711 330.5113,89.3711 Q331.2169,89.3711 331.8644,89.5205 Q332.5118,89.6699 333.0763,89.9688 L333.0763,92.6914 Q332.4454,92.1104 331.8519,91.8406 Q331.2584,91.5708 330.6275,91.5708 Q329.2828,91.5708 328.598,92.6375 Q327.9132,93.7041 327.9132,95.8042 Q327.9132,97.896 328.598,98.9626 Q329.2828,100.0293 330.6275,100.0293 Q331.2584,100.0293 331.8519,99.7595 Q332.4454,99.4897 333.0763,98.9087 Z " fill="#000000"/><text fill="#000000" font-family="sans-serif" font-size="14" lengthAdjust="spacing" textLength="65.9463" x="347.4594" y="100.7793">Customer</text><line style="stroke:#181818;stroke-width:0.5;" x1="303.75" x2="428.2588" y1="111.4883" y2="111.4883"/><g data-visibility-modifier="PUBLIC_FIELD"><ellipse cx="313.75" cy="125.2324" fill="none" rx="3" ry="3" style="stroke:#038048;stroke-width:1;"/></g><text fill="#000000" font-family="sans-serif" font-size="14" lengthAdjust="spacing" textLength="100.5088" x="322.75" y="129.0234">id: CustomerId</text><g data-visibility-modifier="PUBLIC_FIELD"><ellipse cx="313.75" cy="141.7207" fill="none" rx="3" ry="3" style="stroke:#038048;stroke-width:1;"/></g><text fill="#000000" font-family="sans-serif" font-size="14" lengthAdjust="spacing" textLength="86.1191" x="322.75" y="145.5117">name: String</text><line style="stroke:#181818;stroke-width:0.5;" x1="303.75" x2="428.2588" y1="152.4648" y2="152.4648"/><g data-visibility-modifier="PUBLIC_METHOD"><ellipse cx="313.75" cy="166.209" fill="#84BE84" rx="3" ry="3" style="stroke:#038048;stroke-width:1;"/></g><text fill="#000000" font-family="sans-serif" font-size="14" lengthAdjust="spacing" textLength="83.6104" x="322.75" y="170">placeOrder()</text></g><!--class Product--><g class="entity" data-qualified-name="Catalog Domain.Product" data-source-line="48" id="ent0010"><rect fill="#F1F1F1" height="97.4648" rx="2.5" ry="2.5" style="stroke:#181818;stroke-width:0.5;" width="112.8779" x="524.56" y="664.3283"/><ellipse cx="552.5669" cy="680.3283" fill="#ADD1B2" rx="11" ry="11" style="stroke:#181818;stroke-width:1;"/><path d="M555.0401,686.4713 Q554.459,686.7702 553.8199,686.9196 Q553.1807,687.069 552.4751,687.069 Q549.9683,687.069 548.6485,685.4171 Q547.3287,683.7653 547.3287,680.6442 Q547.3287,677.5148 548.6485,675.8629 Q549.9683,674.2111 552.4751,674.2111 Q553.1807,674.2111 553.8282,674.3605 Q554.4756,674.5099 555.0401,674.8087 L555.0401,677.5314 Q554.4092,676.9504 553.8157,676.6806 Q553.2222,676.4108 552.5913,676.4108 Q551.2466,676.4108 550.5618,677.4775 Q549.877,678.5441 549.877,680.6442 Q549.877,682.736 550.5618,683.8026 Q551.2466,684.8693 552.5913,684.8693 Q553.2222,684.8693 553.8157,684.5995 Q554.4092,684.3297 555.0401,683.7487 Z " fill="#000000"/><text fill="#000000" font-family="sans-serif" font-size="14" lengthAdjust="spacing" textLength="51.9736" x="569.4574" y="685.6193">Product</text><line style="stroke:#181818;stroke-width:0.5;" x1="525.56" x2="636.4379" y1="696.3283" y2="696.3283"/><g data-visibility-modifier="PUBLIC_FIELD"><ellipse cx="535.56" cy="710.0724" fill="none" rx="3" ry="3" style="stroke:#038048;stroke-width:1;"/></g><text fill="#000000" font-family="sans-serif" font-size="14" lengthAdjust="spacing" textLength="86.5361" x="544.56" y="713.8634">id: ProductId</text><g data-visibility-modifier="PUBLIC_FIELD"><ellipse cx="535.56" cy="726.5607" fill="none" rx="3" ry="3" style="stroke:#038048;stroke-width:1;"/></g><text fill="#000000" font-family="sans-serif" font-size="14" lengthAdjust="spacing" textLength="86.1191" x="544.56" y="730.3517">name: String</text><g data-visibility-modifier="PUBLIC_FIELD"><ellipse cx="535.56" cy="743.049" fill="none" rx="3" ry="3" style="stroke:#038048;stroke-width:1;"/></g><text fill="#000000" font-family="sans-serif" font-size="14" lengthAdjust="spacing" textLength="86.8779" x="544.56" y="746.84">price: Money</text><line style="stroke:#181818;stroke-width:0.5;" x1="525.56" x2="636.4379" y1="753.7931" y2="753.7931"/></g><!--class Payment--><g class="entity" data-qualified-name="Fulfillment.Payment" data-source-line="56" id="ent0012"><rect fill="#F1F1F1" height="113.9531" rx="2.5" ry="2.5" style="stroke:#181818;stroke-width:0.5;" width="175.1738" x="525.41" y="475.3683"/><ellipse cx="579.9574" cy="491.3683" fill="#ADD1B2" rx="11" ry="11" style="stroke:#181818;stroke-width:1;"/><path d="M582.4305,497.5113 Q581.8495,497.8102 581.2103,497.9596 Q580.5711,498.109 579.8656,498.109 Q577.3587,498.109 576.0389,496.4571 Q574.7191,494.8053 574.7191,491.6842 Q574.7191,488.5548 576.0389,486.9029 Q577.3587,485.2511 579.8656,485.2511 Q580.5711,485.2511 581.2186,485.4005 Q581.8661,485.5499 582.4305,485.8487 L582.4305,488.5714 Q581.7996,487.9904 581.2061,487.7206 Q580.6126,487.4508 579.9818,487.4508 Q578.6371,487.4508 577.9522,488.5175 Q577.2674,489.5841 577.2674,491.6842 Q577.2674,493.776 577.9522,494.8426 Q578.6371,495.9093 579.9818,495.9093 Q580.6126,495.9093 581.2061,495.6395 Q581.7996,495.3697 582.4305,494.7887 Z " fill="#000000"/><text fill="#000000" font-family="sans-serif" font-size="14" lengthAdjust="spacing" textLength="57.5791" x="600.4574" y="496.6593">Payment</text><line style="stroke:#181818;stroke-width:0.5;" x1="526.41" x2="699.5838" y1="507.3683" y2="507.3683"/><g data-visibility-modifier="PUBLIC_FIELD"><ellipse cx="536.41" cy="521.1124" fill="none" rx="3" ry="3" style="stroke:#038048;stroke-width:1;"/></g><text fill="#000000" font-family="sans-serif" font-size="14" lengthAdjust="spacing" textLength="92.1416" x="545.41" y="524.9034">id: PaymentId</text><g data-visibility-modifier="PUBLIC_FIELD"><ellipse cx="536.41" cy="537.6007" fill="none" rx="3" ry="3" style="stroke:#038048;stroke-width:1;"/></g><text fill="#000000" font-family="sans-serif" font-size="14" lengthAdjust="spacing" textLength="149.1738" x="545.41" y="541.3917">status: PaymentStatus</text><line style="stroke:#181818;stroke-width:0.5;" x1="526.41" x2="699.5838" y1="548.3448" y2="548.3448"/><g data-visibility-modifier="PUBLIC_METHOD"><ellipse cx="536.41" cy="562.089" fill="#84BE84" rx="3" ry="3" style="stroke:#038048;stroke-width:1;"/></g><text fill="#000000" font-family="sans-serif" font-size="14" lengthAdjust="spacing" textLength="73.6504" x="545.41" y="565.88">authorize()</text><g data-visibility-modifier="PUBLIC_METHOD"><ellipse cx="536.41" cy="578.5773" fill="#84BE84" rx="3" ry="3" style="stroke:#038048;stroke-width:1;"/></g><text fill="#000000" font-family="sans-serif" font-size="14" lengthAdjust="spacing" textLength="53.9697" x="545.41" y="582.3683">refund()</text></g><!--class Shipment--><g class="entity" data-qualified-name="Fulfillment.Shipment" data-source-line="63" id="ent0013"><rect fill="#F1F1F1" height="97.4648" rx="2.5" ry="2.5" style="stroke:#181818;stroke-width:0.5;" width="181.4766" x="735.26" y="483.6183"/><ellipse cx="789.8074" cy="499.6183" fill="#ADD1B2" rx="11" ry="11" style="stroke:#181818;stroke-width:1;"/><path d="M792.2805,505.7613 Q791.6995,506.0602 791.0603,506.2096 Q790.4211,506.359 789.7156,506.359 Q787.2087,506.359 785.8889,504.7071 Q784.5691,503.0553 784.5691,499.9342 Q784.5691,496.8048 785.8889,495.1529 Q787.2087,493.5011 789.7156,493.5011 Q790.4211,493.5011 791.0686,493.6505 Q791.7161,493.7999 792.2805,494.0987 L792.2805,496.8214 Q791.6496,496.2404 791.0561,495.9706 Q790.4626,495.7008 789.8318,495.7008 Q788.4871,495.7008 787.8022,496.7675 Q787.1174,497.8341 787.1174,499.9342 Q787.1174,502.026 787.8022,503.0926 Q788.4871,504.1593 789.8318,504.1593 Q790.4626,504.1593 791.0561,503.8895 Q791.6496,503.6197 792.2805,503.0387 Z " fill="#000000"/><text fill="#000000" font-family="sans-serif" font-size="14" lengthAdjust="spacing" textLength="63.8818" x="810.3074" y="504.9093">Shipment</text><line style="stroke:#181818;stroke-width:0.5;" x1="736.26" x2="915.7366" y1="515.6183" y2="515.6183"/><g data-visibility-modifier="PUBLIC_FIELD"><ellipse cx="746.26" cy="529.3624" fill="none" rx="3" ry="3" style="stroke:#038048;stroke-width:1;"/></g><text fill="#000000" font-family="sans-serif" font-size="14" lengthAdjust="spacing" textLength="98.4443" x="755.26" y="533.1534">id: ShipmentId</text><g data-visibility-modifier="PUBLIC_FIELD"><ellipse cx="746.26" cy="545.8507" fill="none" rx="3" ry="3" style="stroke:#038048;stroke-width:1;"/></g><text fill="#000000" font-family="sans-serif" font-size="14" lengthAdjust="spacing" textLength="155.4766" x="755.26" y="549.6417">status: ShipmentStatus</text><line style="stroke:#181818;stroke-width:0.5;" x1="736.26" x2="915.7366" y1="556.5948" y2="556.5948"/><g data-visibility-modifier="PUBLIC_METHOD"><ellipse cx="746.26" cy="570.339" fill="#84BE84" rx="3" ry="3" style="stroke:#038048;stroke-width:1;"/></g><text fill="#000000" font-family="sans-serif" font-size="14" lengthAdjust="spacing" textLength="61.2432" x="755.26" y="574.13">arrange()</text></g><!--link Customer to Order--><g class="link" data-entity-1="ent0008" data-entity-2="ent0002" data-link-type="dependency" data-source-line="70" id="lnk14"><path codeLine="70" d="M366,177.4283 C366,199.6283 366,221.4483 366,246.5583" fill="none" id="Customer-to-Order" style="stroke:#181818;stroke-width:1;"/><polygon fill="#181818" points="366,251.5583,370,242.5583,366,246.5583,362,242.5583,366,251.5583" style="stroke:#181818;stroke-width:1;stroke-linejoin:miter;stroke-miterlimit:10;"/><text fill="#000000" font-family="sans-serif" font-size="13" lengthAdjust="spacing" textLength="39.6475" x="326" y="211.0666">places</text><text fill="#000000" font-family="sans-serif" font-size="13" lengthAdjust="spacing" textLength="8.2202" x="357.4767" y="197.6376">1</text><text fill="#000000" font-family="sans-serif" font-size="13" lengthAdjust="spacing" textLength="22.7119" x="343.052" y="241.1606">0..*</text></g><!--reverse link Order to OrderLine--><g class="link" data-entity-1="ent0002" data-entity-2="ent0003" data-link-type="composition" data-source-line="71" id="lnk15"><path codeLine="71" d="M386,427.6183 C386,447.6083 386,456.5683 386,475.1183" fill="none" id="Order-backto-OrderLine" style="stroke:#181818;stroke-width:1;"/><polygon fill="#181818" points="386,415.6183,382,421.6183,386,427.6183,390,421.6183,386,415.6183" style="stroke:#181818;stroke-width:1;stroke-linejoin:miter;stroke-miterlimit:10;"/><text fill="#000000" font-family="sans-serif" font-size="13" lengthAdjust="spacing" textLength="53.2061" x="387" y="441.9366">contains</text><text fill="#000000" font-family="sans-serif" font-size="13" lengthAdjust="spacing" textLength="8.2202" x="379.3845" y="435.888">1</text><text fill="#000000" font-family="sans-serif" font-size="13" lengthAdjust="spacing" textLength="22.7119" x="362.7022" y="464.817">1..*</text></g><!--link OrderLine to Product--><g class="link" data-entity-1="ent0003" data-entity-2="ent0010" data-link-type="dependency" data-source-line="72" id="lnk16"><path codeLine="72" d="M385.93,589.8183 C385.93,627.1083 385.93,668.7883 385.93,668.7883 C385.93,668.7883 461.72,668.7883 519.32,668.7883" fill="none" id="OrderLine-to-Product" style="stroke:#181818;stroke-width:1;"/><polygon fill="#181818" points="524.32,668.7883,515.32,664.7883,519.32,668.7883,515.32,672.7883,524.32,668.7883" style="stroke:#181818;stroke-width:1;stroke-linejoin:miter;stroke-miterlimit:10;"/><text fill="#000000" font-family="sans-serif" font-size="13" lengthAdjust="spacing" textLength="65.7427" x="349.64" y="665.3566">references</text><text fill="#000000" font-family="sans-serif" font-size="13" lengthAdjust="spacing" textLength="6.2651" x="379.5898" y="609.9171">*</text><text fill="#000000" font-family="sans-serif" font-size="13" lengthAdjust="spacing" textLength="8.2202" x="508.1811" y="659.4206">1</text></g><!--reverse link Order to Payment--><g class="link" data-entity-1="ent0002" data-entity-2="ent0012" data-link-type="aggregation" data-source-line="73" id="lnk17"><path codeLine="73" d="M481.32,360.7883 C549,360.7883 613,360.7883 613,360.7883 C613,360.7883 613,425.3183 613,475.2183" fill="none" id="Order-backto-Payment" style="stroke:#181818;stroke-width:1;"/><polygon fill="none" points="469.32,360.7883,475.32,364.7883,481.32,360.7883,475.32,356.7883,469.32,360.7883" style="stroke:#181818;stroke-width:1;stroke-linejoin:miter;stroke-miterlimit:10;"/><text fill="#000000" font-family="sans-serif" font-size="13" lengthAdjust="spacing" textLength="54.4629" x="543.38" y="357.3566">payment</text><text fill="#000000" font-family="sans-serif" font-size="13" lengthAdjust="spacing" textLength="8.2202" x="477.2094" y="359.8097">1</text><text fill="#000000" font-family="sans-serif" font-size="13" lengthAdjust="spacing" textLength="24.667" x="587.5056" y="464.5263">0..1</text></g><!--reverse link Order to Shipment--><g class="link" data-entity-1="ent0002" data-entity-2="ent0013" data-link-type="aggregation" data-source-line="74" id="lnk18"><path codeLine="74" d="M481.52,306.7883 C617.17,306.7883 826,306.7883 826,306.7883 C826,306.7883 826,416.7583 826,483.1283" fill="none" id="Order-backto-Shipment" style="stroke:#181818;stroke-width:1;"/><polygon fill="none" points="469.52,306.7883,475.52,310.7883,481.52,306.7883,475.52,302.7883,469.52,306.7883" style="stroke:#181818;stroke-width:1;stroke-linejoin:miter;stroke-miterlimit:10;"/><text fill="#000000" font-family="sans-serif" font-size="13" lengthAdjust="spacing" textLength="58.9443" x="676.93" y="303.3566">shipment</text><text fill="#000000" font-family="sans-serif" font-size="13" lengthAdjust="spacing" textLength="8.2202" x="477.0877" y="301.951">1</text><text fill="#000000" font-family="sans-serif" font-size="13" lengthAdjust="spacing" textLength="24.667" x="800.3596" y="472.7419">0..1</text></g><!--link Order to DiscountPolicy--><g class="link" data-entity-1="ent0002" data-entity-2="ent0004" data-link-type="dependency" data-source-line="75" id="lnk19"><path codeLine="75" d="M280.17,415.6283 C280.17,466.3283 280.17,521.7883 280.17,521.7883 C280.17,521.7883 280.82,521.7883 273.81,521.7883" fill="none" id="Order-to-DiscountPolicy" style="stroke:#181818;stroke-width:1;"/><polygon fill="#181818" points="268.81,521.7883,277.81,525.7883,273.81,521.7883,277.81,517.7883,268.81,521.7883" style="stroke:#181818;stroke-width:1;stroke-linejoin:miter;stroke-miterlimit:10;"/><text fill="#000000" font-family="sans-serif" font-size="13" lengthAdjust="spacing" textLength="44.9287" x="235.17" y="470.9566">applies</text></g><!--reverse link DiscountPolicy to PercentageDiscount--><g class="link" data-entity-1="ent0004" data-entity-2="ent0005" data-link-type="extension" data-source-line="76" id="lnk20"><path codeLine="76" d="M146,583.0683 C146,613.1783 146,639.9383 146,672.3383" fill="none" id="DiscountPolicy-backto-PercentageDiscount" style="stroke:#181818;stroke-width:1;stroke-dasharray:7,7;"/><polygon fill="none" points="146,565.0683,140,583.0683,152,583.0683,146,565.0683" style="stroke:#181818;stroke-width:1;stroke-linejoin:miter;stroke-miterlimit:10;"/></g><!--reverse link DiscountPolicy to CouponDiscount--><g class="link" data-entity-1="ent0004" data-entity-2="ent0006" data-link-type="extension" data-source-line="77" id="lnk21"><path codeLine="77" d="M286.93,542.7883 C300.43,542.7883 291.69,542.7883 291.69,542.7883 C291.69,542.7883 291.69,621.8983 291.69,672.2683" fill="none" id="DiscountPolicy-backto-CouponDiscount" style="stroke:#181818;stroke-width:1;stroke-dasharray:7,7;"/><polygon fill="none" points="268.93,542.7883,286.93,548.7883,286.93,536.7883,268.93,542.7883" style="stroke:#181818;stroke-width:1;stroke-linejoin:miter;stroke-miterlimit:10;"/></g><?plantuml-src bPIzZXCn4CVxVOhHLhb08cXNY2R7IIU1Y9GdyDbEpZglRRpZOe4hI0h42z1G8L500qKgdcV5FGVUjPtihhQ0AlP_nlERpCUYGCdXnUhX-FtXyyVcyAavV6tstvh3iVdmizd_QWu_cltlFr-E6Me3gE568-eIcB2Sej0gg-w4CiII4WoXTsJ7DrZxaAsPg9taFGSf5CVQSD0MRtMMnGUGlxQCMxZK9H4gXtSP09MagY3exHtWaM154AvP42eawAeeRhfBCA168WjufHMlWq8OU-dXCsCrSnGVmnj750giBwBT65bVYefgft1cj1GqcQXMMs7BMReIHRdiRlVPCD6Ma9ADe6kVypeTWoMH2n0AW-IKmBKLb0zohjnDzqTc5sUvG_ftt6u9vP0oNdS99pQBwfMsCzqcDWuGSbvpIxb2tu0K9WMm17qgZ5DH4lbVCLVQ6Qt6yMYdhZJpKJTeXThzIz3xte2iNEMdRd96JgRUc2GjrLoHSeGsqjUlwrfivO16VDdrRW8MUzbdZTexWHfsTeYwSd8hf2nz8mOSKhVIW1EayV17kJ_-nFdjik8jJpDh-TOfDfxPpQqmOqZInfIa3p3M-WNdv_gTEf4_pM6nU0xva-LodiSjBg2hUPM5Q-ipNopyxzcdMw02_CQXhtlqxCHy7YFwLwa7XV_6RBdbQXXKjq4zkFMCLVJeS9fsEnMYW2eUesEB7ErO0UstGdZaoF3i_N8viLEJRiCr-Gi0?></g></svg>